<svg xmlns="http://www.w3.org/2000/svg" width="905.84" height="53.56"><path d="M0 52.43h9.12V30.61h25.87v-8.85H9.12V9.2h25.87V.36H0v52.07zM48.18.36h9.33v52.07h-9.33zm51.23 26.41A14 14 0 00105.29 15 14 14 0 0099.5 3.3c-3-2.08-6.91-3-12.73-3L70.44.37v52.06h9.12V29.72h5.89l14.23 22.71h11.26L95.88 28.56a14.09 14.09 0 003.53-1.79zm-5.48-7.17c-1.27 1-3.06 1.47-5.61 1.47h-8.76V9h8.76c2.55 0 4.34.47 5.61 1.46A5.59 5.59 0 0196.09 15a5.57 5.57 0 01-2.16 4.6zM135.68 9a8.86 8.86 0 018.16 5.73l.6 1.51 8.73-3.4-.57-1.51C150.14 4.79 143.44.24 135.93 0c-9.49-.31-17 5.73-17.38 14.05a13.83 13.83 0 004.32 10.63c1.94 1.94 4.81 3.52 9.34 5.13l4.13 1.4c6.51 2.17 7.33 4.73 7.24 7.21a5.44 5.44 0 01-1.68 3.93 9 9 0 01-6.54 2.13A10 10 0 01126 38l-.56-1.55-9.11 3.55.59 1.54c2.69 6.91 9.92 11.75 18 12h.8a18.57 18.57 0 0012.63-4.7 14.77 14.77 0 004.78-10.33 14.16 14.16 0 00-2.58-8.94c-2.4-3.53-6.38-5.45-11.64-7.26l-4.18-1.39c-5.89-2-6.52-4.69-6.48-6.55.09-3.27 3.16-5.49 7.43-5.37zm25.99.2h15.41v43.23h9.67V9.2h15.34V.36h-40.42V9.2zm95.04-7.92h-19.62v52.28h19.62c16.32 0 26.46-9.9 26.46-25.83 0-16.32-10.17-26.45-26.46-26.45zm.07 43.3h-9.73V10.26h9.73c10.31 0 16.22 6.37 16.22 17.47 0 10.86-5.76 16.85-16.22 16.85zm67.15-16.89A14 14 0 00329.81 16 14 14 0 00324 4.22c-3-2.08-6.92-3-12.73-3L295 1.29v52.06h9.13V30.63l5.89.05 14.23 22.67h11.25l-15-23.87a13.7 13.7 0 003.43-1.79zm-5.47-7.17c-1.28 1-3.07 1.47-5.62 1.47h-8.75V9.91h8.75c2.55 0 4.34.47 5.61 1.46a5.57 5.57 0 012.17 4.63 5.55 5.55 0 01-2.16 4.52zm41.59-19.24l-19.72 52.07H350l5.09-13.46h19.29l5.09 13.46h9.69L369.48 1.28zm-1.6 29.91l6.34-16.75 6.3 16.75zm38.77 22.16h9.12V31.53h25.86v-8.85h-25.86V10.12h25.86V1.28h-34.98v52.07zm45.14-52.07v8.84h15.41v43.23h9.67V10.12h15.34V1.28h-40.42zM534.86 0h370.99v53.56H534.86z"/><path d="M567.38 28.39h-16.09v14.48h-6.21V10.69h6.21v12.18h16.09V10.69h6.21v32.18h-6.21zm18.16-17.7h6.21v32.18h-6.21zm22.07 16.09a10.82 10.82 0 0011 11 11.28 11.28 0 007.18-2.48v-6.91h-8.28v-5.52H632v14.3a16.91 16.91 0 01-13.51 6.16c-10 0-17.06-7.31-17.06-16.55s6.94-16.55 17-16.55a16.68 16.68 0 0111.77 4.6l-4 4.23a11 11 0 00-7.81-3.31 10.73 10.73 0 00-10.78 11.03zm57.69 1.61h-16.09v14.48H643V10.69h6.21v12.18h16.09V10.69h6.21v32.18h-6.21zm18.16-17.7h6.2v26.66h13.57v5.52h-19.77zm29.19 0h6.21v32.18h-6.21zm22.06 16.09a10.83 10.83 0 0011 11 11.3 11.3 0 007.18-2.48v-6.91h-8.29v-5.52h14.48v14.3a16.92 16.92 0 01-13.52 6.16c-10 0-17-7.31-17-16.55s6.94-16.55 17-16.55a16.7 16.7 0 0111.77 4.6l-4 4.23a11 11 0 00-7.81-3.31 10.74 10.74 0 00-10.81 11.03zm57.7 1.61h-16.09v14.48h-6.21V10.69h6.21v12.18h16.09V10.69h6.21v32.18h-6.21zm38.84-17.7v5.52h-8.5v26.66h-6.21V16.21H808v-5.52zm25.52 0H863v32.18h-6.2zm38.84 0v5.52h-8.5v26.66h-6.21V16.21h-8.5v-5.52z" fill="#fff"/></svg>