<svg xmlns="http://www.w3.org/2000/svg" viewBox="0 0 240 240"><defs><style>.cls-1{fill:#fff}</style></defs><g id="Illo"><path class="cls-1" d="M126.41 135.26l.06 4.45 6.3 1.9 6.62 2.34 6.19 2.9 6.55 1.89 6.51 2.53 6.54 1.86 6.57 2.22 6.39 2.9 6.42 2.25 6.12 1.58 4.85-2.76 9.4-5-7.75-8.32-4.52-4-7.08-1.41-7.44-1.64-7.4-1.75-7.43-1.13-7.51-1.24-15-2.71-7.47-1.49-6.68-1.1zm59.86 15.12l2 4.06 9-4.4.88 1.8-10.8 5.28-2.87-5.86zm-59.05 13.95v1.8l6.15 1.26 8 1.42 7.62 1.6 5.19-2.44 4.43-2.38-2.73-4L153 157h-6.24l-6.85-.48-6.73-.18h-6.67v.84zm17.16-2.09l2 2.11 5-4.67 1.37 1.46-6.41 6-3.37-3.57zM126.58 106v1.33l7 .8 7.3.76 7.3.64 7.29.19 7.38.71 7.32.83 7 .46 6.93-4.79 6.23-4.52-5.08-5.41-5.05-6-6.33.22-6.82.77-6.82 1-7 .53-6.91 1-7 .14-6.81.71-5.6.78-.13 2.49zm40.18-5.8l3.5 2.86 6.34-7.76 1.55 1.27-7.61 9.31-5-4.13z"/><path class="cls-1" d="M114.5 215l-.39-7.32.25-7.43-.72-7.4v-.06l.23-7.4-.07-7.35.34-7.46-.12-2.69-6 1.67-7.49 1.61-7.53 1.52-7.34 1.76-7.42 1.68-7.71 1.87-6.77-5-7.23-6 6.82-6.14 5.73-5.73 7.68-.59 7.44-.12 7.35-.55 7.45.21 7.31-.28 7.33-.49.13 2-7.36.49-7.4.28-7.41-.21-7.31.55-7.44.12-6.88.53-5.24 5.24-5.14 4.69 5.4 4.46 6 4.38 6.84-1.67 7.42-1.68 7.37-1.76 7.49-1.51 7.41-1.59 6.44-1.78-.12-2.56v-7.43l.33-7.45.45-7.35-.32-4L88.12 128l-1.65 1-12.2 8.17-5.78 4.61-6.2 3.86-5.76 4.5-6.66 4.32-14.18-3.75 1.17-8.07 1.41-7.45 6.73-3.51 6.34-3.28 6.1-3.79 6.47-3 4.33-2.09-4.62-1.62-6.33-2.38-6.93-2.22-1.73-7.3-2.25-7.48 11.83-4.8 6.15 3.36 5.8 3L76 103l5.79 3.08 5.8 3-.07.16 1.67-.81 6.23-3.37 6.37-3.17 6.06-3.89 6.41-3.16v-4.07l.29-7.14-.23-2.63-6.46.22-6.93-.17-6.87-.25h-6.82l-6.87-.09h-7.22l-5.29-6.11-5.44-7 6.52-5.05 5.64-4.87L81.76 59l6.74 1.7 6.7 1.3 6.7 2 6.64 1.53 5.7 1.13-.36-4.38.3-14.6 6.27-9.33 6.09 9 .19 7.49-.1 7.36v2L131 61l6-3.84 6.22-3.43 5.7-4.08 6.06-3.75 5.68-4.1 5.92-3.93 6.42-3.65 7.2.88 8.28.57-2.25 9.66-2.23 8.89-6.82 3.24-6.47 2.72-6.43 2.82-6.13 3.2-6.42 2.8-6.42 2.76-6.45 2.69-6.21 3.06-5.8 2.81L127 84l.3 7.29-.16 2.89 5.23-.74 6.93-.71 7-.15 6.8-1 7-.53 6.78-1 6.93-.77 7.29-.28 5.65 6.69 6.57 7-8.08 5.87-7.53 5.19-7.76-.51-7.35-.83-7.29-.71-7.29-.19-7.37-.64-7.33-.76-6.79-.79-.07 4 .54 7.27v.05l-.2 6.88 6.94 1.15 7.48 1.5 14.93 2.7 7.47 1.23 7.5 1.15 7.47 1.76 7.4 1.63 7.6 1.52 5 4.43 9.59 10.34-11.68 6.16-5.5 3.13-7-1.81-6.59-2.31-6.41-2.89-6.41-2.21-6.59-1.83-6.51-2.53-6.68-1.94-6.22-2.92-6.45-2.27-5.64-1.7v.69l-.07 7.33.06 4.44h6.73l6.8.18 6.82.48h7.28l3.42 5.48 4 5.82-6.44 3.46-5.85 2.75-8.25-1.67-8-1.41-5.78-1.19v3.56l-.73 7.35.08 7.25.49 7.3-.28 7.3.45 7.34v.09l-.82 7.25v7.24l.32 6.59 4-.56 7.12.63 14.28-1.34 7.14 1.91h7l7.08-.09 7-.68 7.2-.54 7.19.75 7 .2 6.93-.5 7.18-1.28 7.23.71 6.22.41.47-6.2-.51-7-.74-14.22-.26-7.2v-.09l1-7.1.68-7-.2-7-1.18-7.13.33-7.21-.18-7.1v-.07l.82-6.93-1.55-7 .24-7.23.72-7.16.2-7-.42-7.12 1.16-7.06-.82-7-.84-7.24 1.57-7-1.71-7.09 1.56-7.15-.93-6.91-.58-7.29 1.43-7-1.16-7 .14-7.31 1-7-.41-7-.47-5.78-5.83-.47-7 .09-7.06-.41-7.14 1.23-7.16.08-7.15-.72-7.11-.83-6.89-.2-7.18 1.62L159 10.4l-7.06 1.09-7.13-1-7 .63-7.11.55h-7.17l-7.15-.38h-7l-7.08.14h-7.11L88 10.84l-7.11.07-7.08-.91-7 .42-7.06.67-7.26.28-7.08-1.22-7 .37L31.3 10l-7.11.7-7-.67-5.67 1.47-1.29 5.64 1.16 7.06-.92 7.08 1.47 7.15-1.77 7.13 1.1 7-1 7.17.09 7-.32 7 1.74 7.14-.78 7.24.65 7.12-1.07 7.09.74 7 .44 7.14-.06 7.38-1.58 6.92 1 7.06-1.12 7.03 1.52 7.15-1.31 7.11 1.17 7-.28 7.2-.7 7.16-.12 6.93.91 7.12-.36 7.09.89 7.18-1.61 7 1.82 7.08-1.39 6.61 6.53-1.19 7.18-.28 7.17.74 7 .33 7.12.45 6.92-.24L59.7 228l7.24-.09 7 2 7-1.19 7.14.66 7-.69 7.17-.22 7.06-.43 4.52.17.53-5.83zm-41.24-44.84l-4.26-4.9 1.5-1.32 3 3.4 7.5-6.61 1.32 1.51z"/><path class="cls-1" d="M114.46 69.37v-.67l-6.28-1.25-6.74-1.54-6.66-2-6.67-1.27L81.33 61l-6.17-1.18-5 4.28-5 3.86 4.18 5.42L74 78.79h6.31l6.88.09h6.91l6.89.25 6.86.17 6.33-.21-.18-2.58zm-39.17 3.78L72 67.52l1.73-1L76 70.41l8.66-5 1 1.73zm51.5 5.01l5-2.41 6.21-3.09 6.54-2.66 6.39-2.75 6.35-2.84 6.14-3.2 6.45-2.82 6.45-2.7 5.92-2.82 2-8L186 37.5l-6-.41-6.6-.81-5.81 3.29-5.83 3.88-5.71 4.11-6.05 3.75-5.79 4.14-6.21 3.42-5.85 3.83-5.49 3.84.09 10.21zm40.09-32l3.66 2.64 5.86-8.13 1.6 1.19-7 9.75-5.28-3.81zm-62.3 70.3l-1.18.86 10.66 5.57v-3.53l.35-7.19.02-2.49-3.76 2.65-6.09 4.13zm-7.07 2.68l5.92-4.31 6.1-4.14 4.92-3.48v-2.14l-.17-7.07v-.87l-5.48 2.7-6.07 3.9-6.39 3.17-6.24 3.38-6.47 3.11-6.1 3.55-6.3 3.4-6.46 3.12-6.43 3-6 3.74-6.4 3.31-5.87 3.1-1.24 6.39-.91 6.26 11.6 3.07 5.85-3.78 5.82-4.55 6.2-3.86 5.7-4.55 12.28-8.23 6.17-4zm-49.07 28.11l-5.95-2.67.82-1.82 4.12 1.85 4.1-9.14 1.83.82zm75.97 68.19l.82-7.22-.45-7.26.28-7.3-.49-7.25-.08-7.42.74-7.36v-3.87l-.23-.04.23-1.11v-2.18l-.69-7.21-.11-7.39.07-7.33-.09-7.28.38-7.37.21-7.23-.53-7.26.11-7.39.27-7.33.41-7.32-.3-7.21-.21-7.32-.12-14.64.1-7.34-.17-6.87-4.1-6.04-4.29 6.38-.29 13.91.59 7.17-.46 7.14.5 7.13-.29 7.2.06 7.09.19 7.13-.02 2.73.22.32-.22.15-.04 3.98-.35 7.18-.01 7.11-.1 7.16.6 7.38-.47 7.46-.32 7.38.05 7.35.33 7.36-.34 7.48.07 7.35-.23 7.37.72 7.4v.07l-.26 7.4.4 7.31-.13 7.47-.52 5.8.86.04 6.92 1.57 1.09-.15-.33-6.82.02-7.46zm-10.36-88.94v-1.35l-12.45-6.51-2.93 2.13-6.01 4.24-2.44 1.59 23.83 8.27-.1-1.12.1-7.25zm-43.46-8.14l6-3.21 6.14-3.56 2.77-1.33-4.6-2.38-5.78-3.07-5.83-3-5.82-3-5.34-2.91-9.27 3.76 1.75 5.8 1.39 6.28 5.89 1.89 6.4 2.37 6.34 2.23zm-14.13-9.86l-2.41-4.92 1.79-.88 1.53 3.13 7.15-3.5.88 1.8z"/><path d="M230.44 201.55l-.26-7 1-7 .7-7.16-.21-7.17-1.2-7.22.32-7.06-.16-7 .85-7.2-1.57-7.14.23-6.9.72-7.17.2-7.19-.41-7 1.17-7.13L231 95l-.73-6.93 1.6-7.16-1.71-7.1 1.54-7-1-7.22-.56-7 1.46-7.14-1.19-7.18.12-6.94 1-7.13-.42-7.2-.6-7.53-7.63-.47-7 .09-7.21-.42-7.17 1.25-7 .08-7-.71-7.18-.83-7.22-.22-7 1.58-7.1-1.46-7.13 1.11-7.06-1-7.2.64-7 .55h-7l-7.14-.38h-7.17l-7.08.14h-7l-7.15-.67-7.07.16L73.88 8l-7.23.43-7 .67-7 .27-7.1-1.22-7.15.38L31.27 8l-7.08.7L17 8 9.84 9.86l-1.65 7.22 1.18 7.15-.92 7.12 1.44 7-1.76 7.12 1.12 7.15-.94 7 .09 7.11L8.06 74l1.73 7.07-.78 7 .65 7.08-1.08 7.1.77 7.18.43 7v7l-1.63 7.17 1 7.13L8 144.9l1.48 7.1-1.3 7.08 1.19 7.16-.26 6.94-.71 7.17-.12 7.16.9 7.08-.35 7.09.87 7-1.65 7.15 1.83 7.11L8 232l9.24-1.7 7-.27 7.09.74 7.08.33 7.2.45 7.09-.24 7.1-1.31 6.88-.07 7.17 2 7.15-1.22 7.06.64 7.13-.7 7.13-.21 7-.43 7 .26 7.18 1.64 7.17-1 7.07.63 14.1-1.33 6.93 1.86h7.36l7.18-.09 7.07-.68 7-.53 7.07.73 7.2.21 7.09-.5 7.06-1.26 7 .69 8.22.54.64-8.32-.53-7.16zM113.7 229.76l.15-1.58-4.52-.17-7.06.43-7.17.22-7 .69-7.1-.66-7 1.19-7-2-7.3.12-7.2 1.29-6.92.24-7.12-.45-7-.33-7.21-.75-7.18.28-6.53 1.19 1.39-6.61-1.82-7.08 1.61-7-.89-7.18.36-7.09-.91-7.12.12-6.93.7-7.16.28-7.2-1.17-7 1.31-7.1-1.52-7.15 1.1-7.06-1-7.06 1.58-6.92.06-7.38-.44-7.14-.74-7 1.07-7.09-.63-7.09.8-7.17-1.72-7.14.32-7-.09-7 1-7.17-1.1-7 1.77-7.13-1.47-7.15.92-7.08-1.16-7.06 1.29-5.64 5.65-1.43 7 .67L31.3 10l7.06.5 7-.37 7.08 1.22 7.26-.28 7.06-.67 7-.42 7.07.89 7.17-.03 7.14.67h7.11l7.08-.14h7l7.15.38h7.17l7.11-.55 7-.63 7.13 1L159 10.4l7.14 1.47 7.18-1.62 6.89.2 7.11.83 7.15.72 7.16-.08 7.14-1.23 7.06.41 7-.09 5.82.36.47 5.78.41 7-1 7-.14 7.31 1.16 7-1.43 7 .58 7.29.93 6.91-1.56 7.15 1.71 7.09-1.57 7 .76 7.27.82 7-1.16 7.06.42 7.12-.2 7-.72 7.16-.24 7.23 1.55 7-.82 6.93v.07l.18 7.1-.33 7.21 1.18 7.13.2 7-.68 7-1 7.1v.09l.26 7.2.74 14.22.51 7-.47 6.2-6.22-.41-7.23-.71-7.18 1.28-6.93.5-7-.2-7.19-.75-7.2.54-7 .68-7.08.09h-7l-7.14-1.91-14.28 1.34-7.12-.63-4 .56v.66l-2 .1v-.48l-1.09.15-6.92-1.57h-.86l-.15 1.68z"/><path d="M115.85 228.26l.52-5.8.13-7.47-.4-7.31.26-7.41v-.06l-.72-7.4.23-7.38-.07-7.34.34-7.48-.33-7.36v-7.35l.32-7.38.47-7.47-.6-7.37.1-7.16v-7.11l.35-7.18v-4l.22-.16-.22-.32v-2.73l-.19-7.13-.06-7.09.29-7.2-.49-7.1.46-7.14-.59-7.17.29-13.91 4.29-6.38 4.1 6 .17 6.87-.1 7.34.12 14.64.21 7.32.3 7.21-.41 7.32-.27 7.33-.11 7.39.53 7.26-.21 7.23-.38 7.37.09 7.28-.07 7.33.11 7.39.69 7.21v2.18l-.23 1.11.23.05v3.86l-.74 7.36.08 7.42.49 7.25-.28 7.3.45 7.26-.82 7.22v7.46l.33 6.82v.48l2-.1v-.66l-.32-6.59v-7.24l.82-7.25v-.09l-.45-7.34.28-7.3-.49-7.3-.08-7.25.73-7.35v-3.56l5.78 1.19 8 1.41 8.24 1.74 5.85-2.75 6.44-3.46-4-5.82-3.41-5.44h-7.28l-6.84-.5-6.8-.18h-6.73l-.06-4.44.07-7.33v-.69l5.64 1.7 6.45 2.27 6.22 2.92 6.68 1.94 6.51 2.53 6.59 1.87 6.42 2.17 6.38 2.89 6.59 2.31 7 1.81 5.52-3.15 11.68-6.16-9.59-10.34-5-4.43-7.6-1.52-7.4-1.63-7.47-1.76-7.5-1.15-7.47-1.23-14.93-2.7-7.48-1.5-6.94-1.15.2-6.88v-.05l-.54-7.27.07-4 6.79.79 7.33.76 7.37.64 7.29.19 7.29.71 7.35.83 7.76.51 7.53-5.19 8.08-5.87-6.57-7L181.1 89l-7.38.26-6.93.77-6.78 1-7 .53-6.8 1-7 .15-6.93.71-5.23.74.16-2.89L127 84l-.11-3.69 5.8-2.81 6.21-3.06 6.45-2.69 6.38-2.75 6.42-2.87 6.13-3.2 6.38-2.78 6.47-2.72 6.87-3.21 2.27-8.89 2.25-9.66-8.28-.57-7.2-.88-6.45 3.65-5.92 3.93-5.68 4.1-6.06 3.75-5.7 4.08-6.23 3.43-6 3.84-4.39 3.08v-2l.1-7.36-.19-7.49-6.09-9-6.27 9.33-.3 14.6.36 4.38-5.7-1.13L101.9 64l-6.7-2-6.7-1.3-6.74-1.7-7.18-1.37-5.64 4.87-6.52 5.05 5.44 7 5.29 6.15h7.22l6.87.09h6.82l6.87.25 6.93.17 6.46-.22.19 2.63-.29 7.14v4.07L107.85 98l-6.07 3.89-6.37 3.17-6.23 3.37-1.67.81.07-.16-5.8-3L76 103l-5.83-3-5.8-3-6.15-3.36-11.83 4.8 2.24 7.56 1.72 7.3 6.93 2.22 6.33 2.38 4.62 1.62-4.33 2.09-6.47 3-6.1 3.79-6.33 3.28-6.72 3.55-1.41 7.45-1.17 8.07 14.18 3.75 6.66-4.32 5.76-4.5 6.2-3.86 5.78-4.61L86.47 129l1.67-1 26.1 9.06.32 4-.45 7.35-.33 7.45v7.43l.12 2.56-6.44 1.78-7.41 1.59-7.49 1.51-7.37 1.76-7.42 1.68-6.77 1.68-6-4.38-5.41-4.47 5.14-4.63 5.27-5.23 6.88-.53 7.44-.12 7.31-.55 7.41.21 7.4-.28 7.36-.49-.13-2-7.33.49-7.31.28-7.45-.21-7.35.55-7.44.12-7.68.59-5.73 5.73-6.82 6.14 7.23 6 6.77 5 7.73-1.88 7.42-1.68 7.29-1.82 7.46-1.5 7.49-1.61 6-1.67.12 2.69-.34 7.46.07 7.35-.23 7.4v.06l.72 7.4-.25 7.43.39 7.32-.12 7.33-.53 5.83-.15 1.58 2 .18zm17.34-71.94l6.73.18 6.85.48h6.24l2.86 4.57 2.73 4-4.43 2.45-5.17 2.41-7.62-1.6-8-1.42-6.15-1.26v-1.8l-.69-7.22v-.84zm7.66-24.21l15 2.71 7.51 1.24 7.43 1.13 7.4 1.75 7.44 1.64 7.08 1.41 4.52 4 7.75 8.36-9.4 5-4.85 2.76-6.12-1.58-6.42-2.25-6.39-2.9-6.57-2.22-6.54-1.86-6.51-2.53-6.55-1.89-6.19-2.9-6.62-2.34-6.3-1.9-.06-4.45.29-5.74 6.68 1.1zm-8.27-36.64l6.81-.71 7-.14 6.91-1 7-.53 6.82-1 6.82-.77 6.26-.32 5.05 6 5.06 5.42-6.23 4.58-6.93 4.79-7-.46-7.32-.83-7.38-.71-7.29-.19-7.3-.64-7.3-.76-7-.8v-1.33l.27-7.28.13-2.49zm-.43-32.77l5.85-3.83 6.2-3.42 5.8-4.14 6.06-3.75 5.71-4.11 5.83-3.88 5.81-3.29 6.6.81 6 .41-1.71 7.35-2 8-5.92 2.82-6.45 2.7-6.45 2.82-6.14 3.2-6.35 2.84-6.45 2.77-6.54 2.66-6.25 3.09-5 2.41v-1.41l-.09-10.21zm-17.74 49.47l-.35 7.19v3.53l-10.66-5.57 1.18-.86 6.09-4.13 3.76-2.65zm-6.56-32.92l-6.85-.17-6.89-.25h-6.85l-6.88-.09h-6.31l-4.66-5.41-4.18-5.42 5-3.86 5-4.28 6.1 1.23 6.73 1.69 6.67 1.27 6.66 2 6.74 1.54 6.28 1.25v.67l-.41 7.09.18 2.53zm-49.92 34.38L52 111.74l-1.48-6.25-1.75-5.8 9.27-3.76 5.34 2.91 5.82 3 5.83 3 5.78 3.07 4.6 2.38-2.77 1.33-6.14 3.56-6 3.21v-.11L64.29 116zm27.44 13.74l-12.28 8.23-5.7 4.55-6.2 3.85-5.82 4.55-5.85 3.78-11.6-3.07.91-6.26 1.22-6.46 5.87-3.1 6.4-3.31 6-3.74 6.43-3 6.46-3.12 6.3-3.4 6.1-3.55 6.47-3.11 6.24-3.38 6.39-3.17 6.07-3.9 5.48-2.7V98l.19 7.11v2.14l-4.92 3.48-6.1 4.14-5.92 4.31-6 4.22zm4.85-.77l2.44-1.6 6-4.24 2.93-2.13 12.45 6.51v1.35l-.09 7.25.09 1.12z"/><path d="M76.01 70.41l-2.28-3.9-1.72 1.01 3.29 5.63 10.37-6.06-1-1.73-8.66 5.05zm-28.58 74.2l-4.12-1.85-.82 1.83 5.95 2.66 4.92-10.96-1.83-.82-4.1 9.14zM178.02 41.86l-1.62-1.17-5.86 8.13-3.66-2.64-1.17 1.62 5.28 3.81 7.03-9.75zm.13 54.73l-1.55-1.27-6.34 7.76-3.5-2.86-1.27 1.55 5.05 4.13 7.61-9.31zm19.99 55.25l-.88-1.8-9.01 4.4-1.98-4.06-1.8.88 2.87 5.86 10.8-5.28zM57.37 105.83l-1.53-3.13-1.79.88 2.4 4.92 8.95-4.37-.88-1.8-7.15 3.5zm16.08 61.51l-2.98-3.4-1.5 1.32 4.3 4.9 9.03-7.92-1.32-1.51-7.53 6.61zm79.26-6.2l-1.37-1.46-4.96 4.67-2-2.11-1.45 1.37 3.37 3.57 6.41-6.04z" fill="#ff4f42"/></g></svg>