<svg xmlns="http://www.w3.org/2000/svg" viewBox="0 0 240 240"><defs><style>.cls-1{fill:#fff}.cls-2{fill:#ff4f42}</style></defs><g id="Illo"><path class="cls-1" d="M137.15 139.19l3.21-1.62-3.24-5.87-3.52-6.98-5.94-9.56 1.5 3.23 2.33 7.37 3.43 7.03 2.23 6.4zm-10.33 26.06l3.68-13.53 2.46-6.69 1.98-6.12-.57-1.62-2.38 4.18-3.01 6.33-3.66 5.93-3.72 5.89-4.13 5.7-3.49 5.86-2.85 6.42-1.56 2.74 2.98-1.71 5.94-4.01 6.02-3.44 2.31-5.93zm14.67-22.29l-.36 4.39-.13 7.85-.06 7.9.05 6.58 4.18-.08-.68-6.89-.93-7.92-1.68-7.85-.39-3.98zM139 171.1l-.06-8 .06-7.92.13-7.93.59-7.12-3.68 1.87-1.19 3.68-2.45 6.65-3.69 13.59-2.09 5.36 4.68 6.17 8.07 8.93-.26-3.02.46-6.17-.57-6.09zM84.04 110l-7.27-3.02-7.28-2.26-7.91-1.21-6.31-2.59-.46 3.33 6.52 1.56 7.52 1.44 7.98.48 7.35 2.35.12.01-.26-.09zm65.47 17.47l-5.13-5.02-5.45-4.52-5.37-4.78-5.25-4.92-5.01-5.21-.08-.08.39.7 3.58 6.97 4.07 6.51 4.08 6.63 3.54 7.02 3.75 6.76 3.1 5.31 2.63 5.62 1.87 2.68.75-4.96 2-7.4 1.44-6.62-4.91-4.69zm-89.99 24.66l5.83-4.04 6.32-3.56 6.15-3.61 5.95-3.91 6.38-3.45.65-.41-1.18.28-7.02 2.31-7.01 3.13-7.33 1.84-7.02 2.44-6.79 3.11-7.12 2.63-7.18 2.41-2.41.6 2.03.38 7.28 1.24 6.44 2.14 6.03-3.53zm22.51-3.37l-5.43 5.58-4.77 6.31-5 4.58 3.2 2.29 3.98-5.46 4.09-6.53 4.28-6.5 3.06-4.22-3.41 3.95zm-19.8-47.15l7.78 1.18 7.44 2.31 7.28 3.03 7.33 2.41 2.5.6-1.72-1.18-5.88-4.1-5.79-4.28-6.1-3.8-5.58-4.41-6.1-3.63-4.84-3.45-7.22 2.62-6.84 3.53-4.66 1.78 3.32 1.13 5.7 2.29 6.26 1.05 7.12 2.92zm2.25-13.55l6.2 3.7 5.59 4.41 6.03 3.76 5.82 4.31 5.86 4.07.69.48-.75-.9-5.49-5.24-4.65-5.85-5.54-5.02-5.11-5.61-5.35-5.23-5.28-5.41-5.06-5.63-2.49-2.57.84 3.22 3.55 13.84 5.14 3.67zm10.65 64.93l5.42-5.58 5.04-5.83 5.29-5.75.63-.77-.35.22-6.36 3.44-5.92 3.9-6.21 3.65-6.26 3.52-5.82 4.03-6.16 3.61.53 6.53.08 7.72-.29 4.05 1.64-2.26 4.76-3.82 3.57-5.2 5.7-5.21 4.71-6.25zm153.79-45.62l-6.87.13-14.43-.68 3.49.94 6.4 1.54 6.37 1.9 5.53 1.72-.52-3.54.03-2.01zm-11.11 9.22l6.21 4.3 5.12 3.36.07-.83.72-6.98-.24-1.64-.09.28-6.31-1.96-6.31-1.89-6.36-1.54-5.47-1.47 6.46 3.84 6.2 4.53zm2.4 4.99l5.36 4.49 3.15 3.17.23-2.72-6.05-3.97-6.25-4.33-5.99-4.38 3.97 3.74 5.58 4z"/><path class="cls-1" d="M222.91 228.14l5.59.28.19-5.57v-7.07l-.28-7.17 1.27-7.12.12-7-.8-7-.33-7.16v-7.15l.14-7.25 1.11-7-.72-7.06.59-7-1.54-7.08.23-5.88-4.34-4.37-5.14-4.39-5.67-4.07-5-4.75-5.34-4.24-3.22-2.91-1.51-1-.37-.11v-.1l-4-2.54 5.2.54.07-.09.12.11 7 .71 15.87.75 6.87-.13.16-10.26.76-7.08-.7-7.09.58-7.06-1.14-7.14 1.26-7.12-.82-6.94-.2-7.26.83-7-1.44-7.09.87-7.2.12-7 .33-6.55-6.62.93-7.12-.27-7.11.75-7.18-.42-7.06.28h-.05l-7.1-.47-7.11-.59-7-.42-7 1-7.32.42-7-1.54-7 1.54-7.25-.65-7-.94-7.16 1.71-7.17-1.78-6.94.53-7.16 1-7.1-.83-7 .85-7.18.27-7.18-.36-7.08-.25-7.08.26-7.1-.6-7.12.14-7-.89-7.1 1.43L24 10.5l-6.93-.44-6.37.56.3 6.44.75 7.15-.71 7.21-.09 7 .9 14.21-.94 7.13.1 6.95 1.07 7.15-.65 7.22-1.12 7 1 7.09-1.06 7.14.35 7 .89 7.12-.49 7.22-.21 7.06-.49 7.08.29 7.11L10 152l.1 7 1.55 7.22-1.65 7.01 2 7.08-1.43 7.18.71 6.94.34 7.21-.49 7.15-.05 7-.4 7.21-.11 6.51 6.56.15 7-.37 7.12-.25 7.19.43h7l7.22-1.19 7.09 1.8 7-1.37 7.25 1.04 7-.3 7.15-.87 7.09 1.06 7.07-1 7.14.63 7.13-.44 7.12 1.11h7l14.07-.18 7.19-1.57 7.17-.15 7.09.93 7-.12 14.16 1.15 7.12-1.4 7.22-.24 7 1.58 7-1.82zM17.49 79l-.55-1.92 7.45-2.14L32 73.56l8 .51 7.21 2.39-.62 1.89L39.45 76l-7.33-.44-7.33 1.32zm20.05 90.33L34 175.94l-1.63 7.44-1.23 7.47.93 7.61-2 .25-1-7.9L30.4 183l1.76-7.88 3.84-7.07 5.29-5.69 1.47 1.37zm60.13-37.95l-4.86 6-4.2 6.46-4.61 6.32-4.25 6.45-4.12 6.57-5.19 7.12-5-3.54-3 4.36-4.77 3.82-5.51 7.83.8-11.15.04-7.57-.54-6.64-5.93-2-7.06-1.19-11.17-2.02 11.29-2.82 7.08-2.38 7-2.59 6.81-3.11 7.19-2.51L75 137l6.92-3.09 7.15-2.35 7-1.69h.07l2.92-.71-1.71 2.06zm-3.51-18.28l-2.58-.44-7.9-.64-7.34-2.35-7.8-.45-7.63-1.46-8.33-2 .75-5.37-5.12-.86-5.75-2.31-8.52-2.89 9.79-3.75 6.86-3.54 6.73-2.44-6.22-24.11 7.8 8.05 5.1 5.63 5.23 5.36 5.37 5.25 5.09 5.59 5.65 5.12 4.66 5.86 5.47 5.22 7.1 8.51zm2.08-47.59l-4.71 6.29-1.6-1.2 4.93-6.6 7-4.53 7.55-3.39 7.92-1.41.35 2-7.8 1.39-7.12 3.23zm36.19 157l-3.7-5.67-3.14-6.19-1.45-6.51-1.14-6.78-.11-6.74L124 184l2 .34-1.12 6.43.11 6.47 1.1 6.45 1.42 6.34 3 5.79 3.63 5.53zM180.5 171l-.75-6.93-2.24-6.53-3.36-6-4.32-5.39-5.15-4.7L166 140l5.33 4.87 4.51 5.65 3.51 6.36 2.36 6.94.76 7zM170 132.36l-7.27 1.07-6.4-.7-1.42 6.53-2 7.39-1.45 9.75-4.89-7-2.57-5.63-.46-.79.36 3.72 1.67 7.77.95 8 .9 9.06-6.32.12.52 5.49-.46 6.18.73 8.8-12.09-13.42-4.4-5.7-5.85 3.35-6 4-9.43 5.43 5.2-9.09 2.86-6.45 3.57-6 4.25-5.74 3.67-5.83 3.63-5.87 3-6.25 3.28-5.77-.45-1.28-3.45-7.07-2.33-7.37-3.23-7-2.84-7.28-3.24-7h.1l-1.4-2.54 2.8 1.53.13-.14.47.47 5.79 3.15 6.68 3.42 6.73 3.81 5.84 4.69 6.57 3.5 6.46 3.95 6.5 3.75 6.21 4.29 11.6 5.34zm12.25-80.77l.15.37-7.11 3-6.74 4.04-7.24 2.87-6.84 3.46-6.74 4-8.09 3.67-1.79-5.21-5.2 2.27-6 1.64-8.52 2.59 5.52-8.71 2.91-7.27 3.56-5.46-10.05-8.75-7.46-7 10.26 2 7.78.48 7.11 2.42 7.24 1.41 7.62.69 7.3 1.79 7.35 1.48 7.39 1.39L182 50l3.17.55z"/><path class="cls-1" d="M152.69 61.72l-7.3 2.25-5.73 2.93 1.15 3.36 6.04-2.76 6.67-3.92 6.34-3.21-7.17 1.35zm10.87 63.31l-6.45-3.71-6.43-3.93-6.75-3.62-5.86-4.7-6.49-3.66-6.31-3.23 4.45 4.63 5.19 4.86 5.32 4.75 5.49 4.55 5.18 5.06 4.84 4.63 6.96.76 7.21-1.06 2.31.12-2.45-1.15-6.21-4.3zm4.11-67.95l-3.04 1.32 3.11-1.23.58-.35-.65.26zm-28.78-5.7l7.22-.31 7.18-.18 7.09-.52 7.19-.29 2.68-.13-3.32-.62-7.4-1.49-7.27-1.78-7.55-.67-7.54-1.48-7.05-2.43-7.56-.45-3.56-.68 2.41 2.27 10.95 9.51 6.53-.75zm5.83 10.71l7.54-2.32 7.6-1.44 7.04-3.1 7.27-2.87 1.62-.58-1.07-.04-7.06.34-7.17.28-7.1.53-7.21.18-7.14.3-7.05.82-.05-.48-3.65 5.6-2.9 7.25-2.68 4.24 3.39-1.03 5.95-1.63 5.59-2.45 7.08-3.6z"/><path d="M230.7 180.3v-7.09l.13-7L232 159l-.73-7.14.59-7.15-1.54-7.12.27-6.93.6-7.08.74-7.22-1.05-7.14.21-14 .78-7.19-.7-7.11.59-7.13-1.13-7 1.26-7.07-.89-7.19-.19-7 .86-7.18-1.44-7.09.83-6.93.13-7.16.45-8.93-8.84 1.23-7.09-.26-7.09.74-7.11-.4-7.05.27-7-.47-7.12-.59-7.2-.43-7.11 1-7 .4-7.13-1.56-7.16 1.57-6.9-.62-7.28-1-7 1.69-7-1.75-7.32.56-7 .94-7.09-.83-7.15.9-7 .28-7.11-.37-7.17-.25-7 .26L52.59 9l-7.07.13-7.18-.91-7.08 1.38-7-1.08-7.18-.46-8.42.73.34 8.42.73 7-.7 7.08L9 38.48l.89 14.1-.94 7.07.05 7.17 1.05 7.11-.61 6.91-1.14 7.25 1 7.1-1 7.06.37 7.27.87 7-.44 7-.21 7.05-.49 7.15.29 7.09-.69 7.12.09 7.15 1.5 7.07-1.72 7.13 2 7.11-1.4 7 .74 7.19.32 7-.47 7.09-.06 7-.36 7.13-.14 8.54 8.62.19 7.09-.37 7-.25 7.15.43h7.18l7-1.15 7.11 1.8 7.15-1.39 7 1 7.27-.31 7-.85 7.1 1.07 7.13-1 7.06.63 7.06-.44 7 1.08h7.26l14.2-.18 7.2-1.57L159 230l7.09.93 7.07-.12L187.5 232l7.15-1.42 6.88-.24 7.2 1.64 7.21-1.88h6.91l7.58.39.26-7.63v-7.14l-.27-7 1.24-7 .15-7.32-.82-7.1zm-29 48.06l-7.22.24-7.12 1.4-14.14-1.16-7 .12-7.09-.93-7.17.15-7.19 1.57-14.07.18h-7l-7.12-1.11-7.13.44-7.14-.63-7.07 1-7.09-1.06-7.15.87-7 .3-7.17-1.06-7 1.37-7.09-1.8-7.22 1.19h-7l-7.24-.44-7.12.25-7 .37-6.56-.15.11-6.51.36-7.14.05-7 .49-7.15-.34-7.21-.71-6.94 1.44-7.21-2-7.08 1.7-7.06-1.6-7.17-.1-7 .62-7.11-.29-7.11.49-7.08.21-7.06.45-7.19-.89-7.12-.35-7 1.06-7.14-1-7.09 1.12-7 .65-7.22L11 66.72l-.1-6.95.94-7.13L11 38.43l.09-7 .71-7.21-.8-7.16-.28-6.44 6.37-.56 6.91.44 7.27 1.13 7.1-1.43 7 .89 7.16-.09 7.1.6 7.08-.26 7.08.25 7.21.31 7.18-.28 7-.85 7.1.83 7.16-1 6.94-.53 7.17 1.78 7.16-1.71 7 .94 7.25.65 7-1.54 7 1.54 7.32-.42 7-1 7 .42 7.11.59 7.1.47h.05l7.06-.28 7.18.42 7.11-.75 7.12.27 6.62-.93-.33 6.55-.12 7-.87 7.2 1.44 7.09-.83 7 .2 7.26.82 6.94-1.26 7.12 1.14 7.14-.58 7.06.7 7.09-.76 7.08-.18 10.32-6.87.13-15.87-.75-7-.71-.12-.11-.14.07-5.2-.54 4 2.54v.1l.37.11 1.51 1 3.22 2.91 5.34 4.24 5 4.75 5.67 4.07 5.23 4.39 4.34 4.37-.23 5.88 1.54 7.08-.59 7 .8 7.1-1.11 7-.14 7.25v7.15l.33 7.16.8 7-.12 7-1.27 7.12.28 7.17v7.07l-.19 5.57-5.59-.28h-7.23l-7 1.82zm8.9-118.67l6.36 1.54 6.32 1.89 6.3 2 .09-.28.24 1.64-.72 7-.07.83-5.12-3.42-6.21-4.3-6.2-4.53-6.46-3.83zm13.26 1.51l-6.37-1.9-6.4-1.54-3.49-.94 14.43.68 6.87-.13v2l.52 3.54zm-7.23 7l6.25 4.33 6 4-.23 2.72-3.15-3.17-5.36-4.5-5.58-4-4-3.74z"/><path d="M90 101.35l-4.7-5.86-5.65-5.12-5.09-5.59-5.37-5.25L64 74.17l-5.1-5.63-7.8-8.05 6.22 24.12-6.73 2.44-6.86 3.54-9.79 3.75 8.52 2.89 5.75 2.31 5.12.86-.75 5.37 8.33 2 7.63 1.46 7.8.45 7.34 2.32 7.9.64 2.58.44 8.36 2-7.1-8.51zm-34.21-30.8L55 67.33l2.49 2.57 5.06 5.63 5.28 5.41 5.34 5.23 5.12 5.62 5.54 5 4.65 5.85 5.49 5.24.75.9-.69-.47-5.86-4.08-5.87-4.3-6-3.76-5.59-4.41-6.2-3.7-5.14-3.67zm-12.64 24.8l-3.32-1.12 4.66-1.8 6.84-3.52 7.23-2.62 4.83 3.45 6.1 3.63 5.58 4.41 6.1 3.8 5.83 4.28 5.88 4.1 1.72 1.18-2.5-.6-7.33-2.41-7.28-3-7.49-2.34-7.78-1.18-7.12-2.92-6.26-1zm33.68 12.38l-8-.48-7.52-1.44-6.52-1.56.46-3.33 6.31 2.59 7.91 1.21 7.3 2.28 7.23 3 .26.09h-.12z"/><path class="cls-2" d="M39.45 76.01l7.08 2.34.63-1.9-7.21-2.38-7.95-.51-7.61 1.37-7.45 2.14.55 1.92 7.3-2.1 7.33-1.32 7.33.44z"/><path d="M96.18 129.8h-.07l-7 1.69-7.15 2.35L75 137l-7.32 1.84-7.18 2.46-6.81 3.11-7 2.59-7.08 2.38-11.31 2.82 11.13 2.05 7.06 1.19 5.93 2 .54 6.64.08 7.57-.8 11.15 5.51-7.83 4.77-3.82 3-4.36 5 3.54 5.19-7.12 4.12-6.57 4.17-6.48 4.58-6.31 4.2-6.46 4.86-6-.28-.22 1.71-2.06zm-49.13 23.72l-7.28-1.24-2-.38 2.41-.6 7.18-2.41 7.13-2.63 6.78-3.11 7-2.44 7.33-1.84 7-3.13 7-2.31 1.18-.28-.65.41-6.36 3.44-6 3.91-6.15 3.61-6.32 3.56-5.83 4-6 3.53zm14.1 16.13l-4.76 3.82-1.64 2.26.29-4L55 164l-.53-6.53 6.16-3.61 5.82-4 6.26-3.52 6.21-3.66 5.92-3.88 6.36-3.45.35-.22-.63.77-5.29 5.75-5 5.83-5.51 5.52-4.7 6.25-5.7 5.21zM82.38 149l-4.28 6.5-4.1 6.56-4 5.46-3.21-2.29 5-4.58 4.77-6.31 5.44-5.58 3.41-3.95z"/><path class="cls-2" d="M35.99 168.05l-3.83 7.07L30.4 183l-1.29 7.81.96 7.9 1.99-.25-.93-7.61 1.23-7.47 1.63-7.44 3.55-6.62 5.21-5.59-1.47-1.37-5.29 5.69z"/><path d="M164.63 123.35l-6.5-3.75-6.46-3.95-6.57-3.5-5.84-4.69-6.73-3.81-6.68-3.42-5.79-3.15-.47-.47-.13.14-2.8-1.53 1.4 2.54h-.1l3.24 7 2.84 7.28 3.23 7 2.33 7.37 3.45 7.07.45 1.28-3.28 5.77-3 6.25-3.63 5.87-3.59 5.85-4.15 5.72-3.57 6-2.86 6.45-5.2 9.09 9.43-5.43 6-4 5.75-3.33 4.36 5.76 12.09 13.42-.73-8.8.46-6.18-.52-5.49 6.32-.12-.9-9.06-.95-8-1.67-7.77-.36-3.76.46.79 2.62 5.61 4.89 7 1.45-9.75 2-7.39 1.42-6.53 6.4.7 7.27-1.07 12.51.65-11.68-5.37zm-33.14 2.41l-2.34-7.36-1.49-3.25 5.94 9.57 3.52 7 3.24 5.87-3.21 1.62-2.23-6.4zm-13 48.86l-5.94 4-3 1.71 1.56-2.74 2.85-6.42 3.49-5.86 4.13-5.7 3.72-5.89 3.7-5.92 3-6.33 2.38-4.18.57 1.62L133 145l-2.46 6.69-3.68 13.53-2.31 5.93zm20.87 11.76l-8.06-8.93-4.68-6.17 2.09-5.36 3.69-13.59 2.45-6.65L136 142l3.68-1.87-.59 7.12-.12 7.93-.07 7.92.06 8 .57 6.09-.46 6.17zm5.13-23.67l.68 6.89-4.18.08-.05-6.58.07-7.9.12-7.85.36-4.39.38 4 1.69 7.85zm6.51-16.53l-.75 5-1.87-2.68-2.63-5.62-3.1-5.31-3.75-6.76-3.54-7-4.08-6.63-4.07-6.51-3.58-7-.39-.7.08.08 5 5.21 5.25 4.92 5.37 4.78 5.46 4.52 5.12 5 4.91 4.69-1.43 6.61zm18.93-15.82l-7.21 1.06-7-.76-4.82-4.66-5.18-5-5.49-4.55-5.32-4.75-5.19-4.86-4.45-4.63 6.31 3.23 6.49 3.66 5.86 4.7 6.75 3.62 6.43 3.93 6.45 3.72 6.21 4.29 2.45 1.15z"/><path class="cls-2" d="M179.37 156.83l-3.52-6.36-4.51-5.65-5.32-4.87-1.34 1.48 5.15 4.7 4.32 5.39 3.36 6.04 2.24 6.53.75 6.93 1.99-.21-.76-7.04-2.36-6.94z"/><path d="M182 50l-7.27-1.25-7.39-1.39-7.34-1.47-7.3-1.79-7.7-.69-7.24-1.41-7.11-2.46-7.78-.48-10.26-2 7.46 7 10.05 8.74-3.56 5.46-2.91 7.27-5.52 8.71 8.52-2.59 6-1.64 5.2-2.27 1.79 5.26 8.09-3.69 6.74-4 6.84-3.46 7.24-2.85 6.75-4.06 7.11-3-.15-.37 2.9-1L182 50zm-60.58-7.39L119 40.35l3.56.68 7.56.45 7 2.44 7.54 1.47 7.55.67 7.27 1.78 7.4 1.49 3.32.62-2.68.13-7.19.29-7.09.52-7.18.18-7.22.31-6.53.75zm10.64 25.52l-6 1.63-3.39 1 2.68-4.24 2.9-7.25 3.64-5.6.06.48 7.06-.82 7.13-.3 7.21-.18 7.1-.53 7.17-.28 7.06-.33h1.07l-1.62.58-7.27 2.87-7 3.1-7.6 1.44-7.54 2.32-7.08 3.6zm21.47-4.56l-6.67 3.92-6 2.76-1.15-3.36 5.68-2.89 7.3-2.25 7.17-1.35zm11.11-5.18l3-1.32.65-.26-.58.35z"/><path class="cls-2" d="M117.67 56.67l-.35-1.97-7.92 1.42-7.55 3.38-6.99 4.53-4.93 6.56 1.6 1.21 4.71-6.28 6.51-4.23 7.12-3.23 7.8-1.39zm9.85 153.37l-1.41-6.34-1.11-6.45-.11-6.47 1.12-6.43-1.97-.34-1.15 6.61.11 6.74 1.14 6.73 1.45 6.51 3.14 6.19 3.7 5.67 1.67-1.1-3.62-5.53-2.96-5.79z"/></g></svg>