<svg xmlns="http://www.w3.org/2000/svg" viewBox="0 0 240 240"><defs><style>.cls-1{fill:#fff}.cls-2{fill:#ff4f42}</style></defs><g id="Illo"><path class="cls-1" d="M122.53 78.62a20.47 20.47 0 012 .68 16.6 16.6 0 001.86.63l7.89 2.24c1 .27 1.46.39 1.94.5s1 .24 2 .53 1.51.46 2 .63.95.32 1.91.59a16.08 16.08 0 001.89.44 16.45 16.45 0 012.11.48c1 .28 1.46.41 1.95.54l2 .56c1 .28 1.48.43 2 .58s1 .29 2 .56 1.54.49 2 .68.92.35 1.87.62l1.95.54 2 .55a16 16 0 001.9.43 18.41 18.41 0 012.11.48l3.97 1.12a1.27 1.27 0 001.66-.74c.25-.88.39-1.32.52-1.76s.27-.86.51-1.72a10.14 10.14 0 00.34-1.64 11 11 0 01.4-1.93 12.65 12.65 0 01.64-1.83 12 12 0 00.56-1.61c.24-.84.33-1.27.43-1.7s.2-.91.46-1.81.4-1.34.55-1.78.28-.84.52-1.69a1.39 1.39 0 00-.13-1.05 1.33 1.33 0 00-.8-.66c-.95-.27-1.42-.37-1.92-.47a19.55 19.55 0 01-2.08-.5c-1-.29-1.53-.48-2-.67s-.92-.34-1.87-.61-1.47-.41-2-.54l-2-.55c-1-.28-1.47-.4-2-.53s-1-.26-2-.54-1.5-.44-2-.6-1-.3-1.94-.58l-3.94-1.12a17.78 17.78 0 00-1.91-.45 19.58 19.58 0 01-2.09-.5 17.25 17.25 0 01-2-.7 13.67 13.67 0 00-1.84-.63 15.69 15.69 0 00-1.9-.44 16.78 16.78 0 01-2.1-.48c-1-.28-1.49-.44-2-.59s-1-.3-1.93-.58-1.52-.46-2-.64-1-.32-1.9-.6-1.46-.39-1.94-.51-1-.24-2-.53a1.37 1.37 0 00-1.7.86c-.24.86-.35 1.29-.45 1.72s-.23.9-.48 1.8-.34 1.27-.44 1.7-.2.92-.46 1.82l-1 3.49c-.25.88-.39 1.32-.52 1.76s-.27.85-.51 1.71-.4 1.33-.54 1.77-.28.85-.52 1.71a1.28 1.28 0 00.97 1.56zm14.05-12.57c1 .28 1.49.41 2 .53l2 .55c1 .29 1.53.46 2 .62s1 .32 1.95.6 1.51.43 2 .58l2 .59c1 .27 1.45.38 2 .48s1 .23 2.08.52 1.55.48 2.05.66.95.34 1.92.62 1.47.39 2 .5 1 .23 2.07.52l4 1.14 2 .59 2 .59 2 .55 2 .55-.55 1.93-2-.55c-.51-.14-1-.27-2-.56l-2-.59-2-.59-4-1.13c-1-.28-1.47-.39-2-.5s-1-.24-2.07-.53-1.55-.48-2-.66-.95-.34-1.92-.61-1.45-.38-2-.49-1-.23-2.08-.52l-2-.59c-.49-.15-1-.3-2-.58s-1.52-.45-2-.62-1-.31-1.95-.59-1.49-.41-2-.54-1-.26-2-.55zm-9.28-.71c.42-1.49.41-1.5.84-3a1 1 0 011.29-.71l3 .85a1 1 0 01.73 1.28l-.85 3a1 1 0 01-1.29.71l-3-.85a1 1 0 01-.72-1.28zm.31 3.37c1 .27 1.41.43 1.88.58s.9.3 1.8.56 1.38.39 1.84.51.94.25 1.88.52 1.37.37 1.83.49.95.24 1.89.51l3.7 1.07c.93.27 1.39.42 1.86.56l1.83.55c.94.27 1.4.41 1.87.56s.9.29 1.82.55 1.36.37 1.82.49 1 .23 1.9.51 1.43.45 1.89.62.88.32 1.77.58l7.39 2.13c.91.27 1.37.38 1.83.5s1 .24 1.89.51l-.56 1.92c-.91-.26-1.36-.38-1.82-.49s-.95-.24-1.89-.52l-7.4-2.13c-1-.28-1.44-.45-1.9-.62a18 18 0 00-1.76-.58c-.9-.26-1.36-.38-1.82-.49s-1-.24-1.9-.51l-1.86-.56c-.46-.15-.91-.29-1.83-.55l-1.86-.56c-.46-.14-.91-.28-1.83-.54l-3.69-1.08c-.91-.26-1.37-.38-1.83-.49s-.95-.24-1.89-.51-1.38-.39-1.84-.51-1-.25-1.88-.52-1.41-.43-1.88-.58-.9-.3-1.81-.56zm-1.9 4.71c1 .29 1.53.46 2 .63s1 .33 1.93.61 1.51.43 2 .58 1 .3 2 .58 1.44.38 1.95.49 1.05.23 2.09.52l4 1.14c1 .3 1.56.5 2.06.69a16.83 16.83 0 001.88.64l4 1.13c1 .28 1.45.38 2 .49s1 .23 2.08.52l2 .56c.51.14 1 .27 2 .56s1.53.47 2 .64 1 .33 1.94.61l-.54 1.92c-1-.29-1.54-.46-2.05-.64s-1-.33-1.93-.61l-2-.55-2-.57c-1-.27-1.45-.38-2-.48s-1-.23-2.08-.52l-4-1.14c-1.05-.3-1.57-.5-2.07-.69a18.3 18.3 0 00-1.88-.64l-4-1.14c-1-.27-1.45-.37-2-.48s-1.05-.23-2.08-.52l-2-.59c-.5-.15-1-.3-2-.58s-1.53-.46-2-.64-1-.32-1.93-.6zM63.75 107.7a1.19 1.19 0 001 0 1.4 1.4 0 00.75-.71c.47-1 .75-1.44 1-1.9a16.85 16.85 0 00.94-1.73L71 96c.44-.91.63-1.37.83-1.83s.41-1 .87-1.92.71-1.41 1-1.87.48-.88.91-1.79a15.38 15.38 0 00.76-1.8 19.3 19.3 0 01.83-2c.45-.93.66-1.39.88-1.85s.44-.94.89-1.87.67-1.39.9-1.85.46-.92.9-1.85.74-1.43 1-1.89.5-.85.93-1.73.66-1.38.87-1.85.43-.9.83-1.9a14.68 14.68 0 00.76-1.8 16.18 16.18 0 01.83-2l1.77-3.7a1.58 1.58 0 00.13-1.08 1 1 0 00-.57-.69c-.83-.4-1.24-.61-1.66-.82l-1.61-.8a10.05 10.05 0 00-1.57-.61 10.73 10.73 0 01-1.83-.72 14.51 14.51 0 01-1.7-.94 10.47 10.47 0 00-1.49-.84c-.79-.38-1.2-.55-1.61-.72s-.87-.36-1.71-.77-1.25-.62-1.66-.84-.78-.42-1.58-.81a1.47 1.47 0 00-.58-.12 1.41 1.41 0 00-1.28.75c-.43.89-.6 1.34-.79 1.82s-.38 1-.85 2-.73 1.43-1 1.89-.5.86-.93 1.75-.66 1.38-.87 1.84-.43.95-.88 1.88-.65 1.38-.86 1.84-.43 1-.88 1.89-.69 1.4-.93 1.86-.46.9-.9 1.81l-1.78 3.71c-.42.89-.59 1.34-.77 1.81a20.78 20.78 0 01-.85 2 17.38 17.38 0 01-1 1.9A18.1 18.1 0 0053 85a17.78 17.78 0 01-.84 2c-.45.94-.68 1.4-.92 1.87s-.47.9-.9 1.81-.72 1.41-1 1.88-.49.87-.92 1.77-.64 1.38-.84 1.84-.42 1-.87 1.9a1.47 1.47 0 00-.07 1.07 1.19 1.19 0 00.63.75c.81.39 1.22.57 1.62.75s.86.37 1.7.77 1.2.56 1.61.72.87.37 1.72.77l3.27 1.59c.83.39 1.24.6 1.65.81s.8.41 1.61.8 1.25.62 1.65.83.9.38 1.65.77zm-7.44-18.58c.22-.48.43-1 .89-1.91s.7-1.43.95-1.9.48-.91.92-1.83.69-1.42.93-1.89.46-.93.91-1.86.63-1.38.82-1.85.4-1 .87-2 .73-1.45 1-1.91.5-.88.93-1.79.64-1.39.84-1.86.41-1 .87-2L68 64.65c.45-1 .69-1.42.93-1.89s.46-.92.91-1.86.67-1.41.89-1.89.44-.95.89-1.89l1.81.86c-.45.93-.67 1.4-.88 1.87s-.45 1-.91 1.91-.69 1.43-.93 1.9-.46.93-.91 1.86L68 69.28c-.44.91-.64 1.38-.84 1.85s-.41 1-.87 2-.74 1.45-1 1.91-.5.88-.94 1.79-.63 1.39-.82 1.86-.41 1-.87 2-.66 1.31-.88 1.79-.46.93-.91 1.86-.7 1.43-.95 1.9-.47.91-.92 1.83-.66 1.4-.87 1.87-.43 1-.89 1.91l-1.8-.85c.44-.94.66-1.41.87-1.88zm-.43 7.63c-.67 1.4-.68 1.39-1.35 2.79a1 1 0 01-1.38.5c-1.4-.68-1.4-.67-2.8-1.34a1 1 0 01-.48-1.4c.67-1.4.68-1.39 1.35-2.79A1 1 0 0152.6 94l2.8 1.35a1 1 0 01.48 1.4zm4.21 1c-.43.89-.66 1.33-.9 1.76s-.44.84-.86 1.69l-1.79-.87c.43-.89.66-1.32.89-1.76s.45-.84.86-1.69.62-1.3.82-1.74.41-.89.83-1.76.61-1.29.8-1.72.4-.9.83-1.79l1.7-3.47c.43-.88.65-1.31.87-1.75s.43-.85.84-1.71.65-1.31.88-1.74.43-.85.85-1.71.6-1.28.79-1.71.4-.91.83-1.79.69-1.34.94-1.77.46-.81.87-1.65l3.37-6.94c.41-.85.61-1.29.8-1.72s.4-.9.83-1.78l1.8.88c-.41.85-.61 1.28-.8 1.72s-.4.89-.83 1.77l-3.37 7c-.44.89-.69 1.33-.94 1.76s-.46.81-.87 1.65-.6 1.29-.8 1.72-.39.9-.82 1.79-.65 1.31-.88 1.74-.43.85-.85 1.71-.64 1.3-.86 1.73-.43.86-.85 1.73l-1.7 3.47c-.41.85-.61 1.28-.8 1.72s-.4.9-.83 1.78-.61 1.29-.81 1.72-.41.83-.84 1.71zm1.75 3.36c.24-.45.49-.9.93-1.82s.69-1.42.92-1.89.46-.92.91-1.86.63-1.38.82-1.85.41-1 .87-2L68.1 88c.47-1 .76-1.46 1-1.92s.51-.86 1-1.76l1.8-3.76c.44-.91.63-1.38.82-1.85s.41-1 .87-2 .67-1.4.89-1.87.45-.95.91-1.9.72-1.44 1-1.91.49-.89.93-1.81l1.8.87c-.46 1-.72 1.43-1 1.9s-.49.9-.93 1.82-.67 1.41-.9 1.88-.44 1-.9 1.89-.62 1.38-.82 1.85-.4 1-.87 2l-1.8 3.76a21.38 21.38 0 01-1 1.91c-.27.45-.51.87-.95 1.76l-1.81 3.76c-.43.92-.63 1.39-.82 1.85s-.4 1-.87 2-.69 1.41-.92 1.88-.46.93-.91 1.87-.72 1.43-1 1.9-.49.89-.93 1.81l-1.8-.87c.44-1.06.7-1.51.95-1.97zm95.53-40.17c.3.88.43 1.32.56 1.77s.26.85.55 1.69a1.28 1.28 0 001.67.74 20.73 20.73 0 012.07-.6c.49-.12.95-.23 1.88-.54l7.77-2.66c.95-.32 1.42-.5 1.88-.69s1-.38 2-.71 1.5-.49 2-.63 1-.28 1.91-.6a14.47 14.47 0 001.81-.72 20 20 0 012-.8l1.93-.67 1.94-.67 2-.66 1.93-.65c1-.34 1.54-.47 2-.6a17.39 17.39 0 001.88-.55l1.94-.67c.48-.17 1-.35 1.93-.68a15.89 15.89 0 001.81-.72 16.37 16.37 0 012-.81l3.88-1.32a1.28 1.28 0 001-1.55c-.3-.88-.44-1.32-.58-1.76s-.27-.85-.56-1.7a10.18 10.18 0 00-.66-1.54 12 12 0 01-.77-1.81 14.32 14.32 0 01-.51-1.86 12.35 12.35 0 00-.45-1.64c-.29-.84-.45-1.24-.62-1.65s-.35-.87-.65-1.75-.43-1.33-.56-1.78-.25-.85-.53-1.68a1.45 1.45 0 00-1.35-.95 1.09 1.09 0 00-.4.07c-.93.32-1.37.51-1.84.71a20.91 20.91 0 01-2 .77c-1 .34-1.54.48-2.05.61s-1 .24-1.89.55l-1.92.68c-.49.17-1 .35-1.95.68s-1.43.5-1.91.68-1 .36-2 .69-1.47.49-2 .64-1 .3-1.92.63l-3.88 1.32a17.89 17.89 0 00-1.83.72c-.49.21-1 .43-2 .78a15.49 15.49 0 01-2.08.58 16.22 16.22 0 00-1.87.53 15.89 15.89 0 00-1.81.72 15.17 15.17 0 01-2 .8c-1 .34-1.48.49-2 .65s-1 .3-1.92.63-1.51.48-2 .62-1 .26-1.9.58-1.42.51-1.89.69-1 .37-2 .71a1.45 1.45 0 00-.81.69 1.22 1.22 0 00-.1 1c.29.85.45 1.26.61 1.68s.33.87.63 1.74.45 1.24.61 1.65.35.87.66 1.76l1.16 3.44c.3.86.43 1.3.57 1.74s.34.83.63 1.68zm36.54-11.3c-.49.14-1 .28-1.94.61l-1.95.67-2 .69c-.95.32-1.4.51-1.88.71s-1 .41-2 .76l-3.94 1.34c-1 .35-1.57.48-2.09.61a18.1 18.1 0 00-1.91.55l-3.93 1.34c-1 .33-1.41.51-1.89.71s-1 .41-2 .76-1.48.5-2 .66l-2 .65c-1 .35-1.52.49-2 .64s-1 .28-1.93.6l-.65-1.89c1-.34 1.52-.49 2-.63s1-.28 1.94-.61l2-.66 2-.65c1-.33 1.4-.52 1.88-.72s1-.41 2-.75l3.94-1.34c1-.35 1.57-.48 2.09-.61a18.1 18.1 0 001.91-.55l3.94-1.34c.95-.33 1.4-.52 1.88-.72s1-.41 2-.75l2-.68 2-.69c1-.34 1.52-.49 2-.63s1-.28 1.94-.6L196 49c-1.06.35-1.57.5-2.09.64zm-27.42-3.52c.49-.18 1-.36 2-.7s1.51-.5 2-.65 1-.3 1.94-.63l2-.66c.49-.16 1-.31 1.95-.65s1.42-.51 1.89-.71 1-.41 2-.75 1.55-.49 2.06-.63 1-.26 1.92-.58 1.43-.52 1.9-.71 1-.4 2-.74l3.93-1.35 2-.66c.5-.15 1-.31 2-.65s1.46-.5 1.95-.68l2-.69.65 1.89-1.95.68c-.5.18-1 .36-2 .7s-1.49.5-2 .66-1 .31-2 .65l-3.93 1.34c-1 .33-1.43.52-1.9.71s-1 .4-2 .74-1.54.49-2.05.62-1 .27-1.93.59-1.42.52-1.89.71-1 .41-2 .76l-2 .66c-.49.15-1 .31-2 .65s-1.51.49-2 .64-1 .3-1.94.63-1.46.51-1.94.69l-2 .7-.65-1.89zm-2.32 6.19c.46-.16.91-.33 1.84-.64s1.34-.47 1.78-.63.92-.35 1.85-.66l3.65-1.22 1.85-.61c.45-.14.91-.28 1.81-.59l1.86-.6 1.81-.58c.89-.3 1.33-.47 1.77-.64s.92-.35 1.85-.66 1.44-.44 1.92-.57.9-.23 1.78-.53l7.29-2.45c.9-.3 1.34-.47 1.79-.63s.91-.34 1.84-.66l.64 1.9c-.9.3-1.34.47-1.79.63s-.91.34-1.84.66l-7.3 2.45c-.94.32-1.43.44-1.91.57s-.9.23-1.78.53-1.33.46-1.77.63-.92.35-1.86.66-1.39.46-1.85.6-.91.28-1.81.59-1.38.45-1.85.6l-1.81.59-3.65 1.22c-.9.3-1.34.47-1.79.64s-.91.34-1.84.66l-1.8.62c-.46.17-.92.34-1.84.65s-1.41.45-1.88.59-.91.26-1.81.57l-.63-1.9c.93-.31 1.4-.45 1.88-.59s.9-.27 1.8-.57 1.35-.46 1.8-.63zm-7.66-.81l-1-2.92a1 1 0 01.66-1.32l2.93-1a1 1 0 011.32.63l1 2.93a1.05 1.05 0 01-.66 1.32l-2.93 1a1 1 0 01-1.32-.64zM40.52 116.76c0 .88.11 1.32.16 1.76s.11.93.17 1.87l.23 3.63c.05.92.07 1.38.09 1.84s0 .9.1 1.79.07 1.39.08 1.85 0 .9.09 1.79a1.29 1.29 0 001.43 1.16 18.61 18.61 0 012.15 0h2l8.21-.54c1-.06 1.51-.12 2-.17s1-.11 2.09-.18 1.58-.07 2.1-.08 1 0 2-.08a16.12 16.12 0 001.94-.23 21.21 21.21 0 012.15-.24l2-.14 2.06-.15 2.06-.12 2-.12c1.07-.07 1.62 0 2.14 0h2l2-.15 2.06-.14a16.35 16.35 0 002-.23 17.58 17.58 0 012.14-.25l4.1-.26a1.28 1.28 0 001.32-1.27c-.06-.92-.08-1.38-.1-1.84s0-.9-.09-1.8a10.91 10.91 0 00-.23-1.67 11.38 11.38 0 01-.27-2 13.86 13.86 0 010-1.94 13.8 13.8 0 000-1.7c-.06-.88-.11-1.32-.17-1.76s-.11-.93-.17-1.87-.07-1.39-.08-1.86 0-.89-.07-1.77a1.41 1.41 0 00-.48-1 1.36 1.36 0 00-1-.36c-1 .07-1.46.13-2 .21s-1.06.15-2.13.22-1.61.06-2.14 0-1 0-2 0-1.52.11-2 .15l-2.07.15c-1 .06-1.52.11-2 .15s-1 .1-2.07.16-1.56.09-2.08.11-1 0-2 .1l-4.11.27a17.66 17.66 0 00-2 .21 21.38 21.38 0 01-2.13.23 20 20 0 01-2.16 0h-1.96a16.9 16.9 0 00-1.94.22 18.12 18.12 0 01-2.14.25l-2.08.1c-.51 0-1 0-2 .11s-1.58.07-2.11.07-1 0-2 .08-1.5.11-2 .16-1 .11-2.09.18a1.46 1.46 0 00-1 .46 1.25 1.25 0 00-.34.92c.06.89.1 1.34.15 1.78s.13 1.01.19 1.94zm39.08 9.52c-.51 0-1 0-2 .07l-2.07.14-2.1.15c-1 .06-1.49.13-2 .2s-1.07.14-2.14.21l-4.17.27a18.55 18.55 0 01-2.18 0 17.55 17.55 0 00-2 0l-4.16.27c-1 .06-1.5.13-2 .2s-1.07.14-2.15.21l-2.1.12c-.51 0-1 0-2.06.12s-1.61.07-2.14.08-1 0-2 .07l-.13-2c1.07-.07 1.6-.08 2.14-.08s1 0 2-.08l2.1-.12 2.06-.12c1-.06 1.5-.13 2-.2s1.07-.14 2.15-.21l4.16-.26a17 17 0 012.18 0 15.44 15.44 0 002 0l4.17-.27c1-.06 1.49-.13 2-.2s1.07-.14 2.14-.21 1.56-.1 2.08-.14l2.09-.15c1.07-.07 1.61-.07 2.14-.07s1 0 2-.08l.13 2c-1.07.07-1.6.07-2.14.08zM54 115.69c.52 0 1.05-.1 2.1-.16s1.59-.09 2.12-.1 1 0 2-.09 1.57-.09 2.1-.12 1 0 2.07-.12 1.49-.12 2-.19 1.07-.14 2.15-.21 1.62-.07 2.15-.07a20 20 0 002-.06c1-.06 1.52-.12 2-.18s1.07-.13 2.13-.2l4.17-.27c1-.07 1.58-.1 2.1-.12l2.07-.11 2.07-.15c.52-.05 1-.09 2.1-.16l.13 2-2.07.15c-.52 0-1 .09-2.1.15s-1.58.09-2.11.12l-2.06.11-4.17.27c-1 .07-1.51.13-2 .19s-1.06.13-2.13.2-1.63.07-2.16.06-1 0-2 .06-1.5.13-2 .2-1.07.14-2.15.21-1.57.09-2.1.12l-2.06.11c-1.06.07-1.59.09-2.12.1s-1 0-2 .09-1.54.12-2.05.16-1 .1-2.11.16l-.13-2c1.06-.06 1.52-.1 2.06-.15zm-3.87 5.39l2-.14c.95-.06 1.42-.1 1.89-.15s1-.1 2-.16l3.85-.22c1-.06 1.46-.08 1.94-.1s1 0 1.92-.1 1.46-.07 1.95-.09 1 0 1.9-.09 1.42-.11 1.88-.15 1-.1 2-.16 1.51 0 2 0a18.51 18.51 0 001.86 0l7.7-.47c.95 0 1.42-.1 1.89-.14s1-.09 2-.15l.12 2c-1 .06-1.42.1-1.89.15s-1 .09-2 .15l-7.7.47c-1 .06-1.51.05-2 0s-.93 0-1.86 0-1.41.11-1.88.16-1 .1-2 .16l-1.95.09c-.48 0-1 0-1.9.09s-1.47.08-2 .1l-1.9.09-3.85.23c-.95.06-1.42.1-1.89.15s-1 .1-2 .16-1.42.09-1.9.13-1 .09-2 .15-1.48.07-2 .07-1 0-1.89.08l-.12-2c1-.06 1.48-.07 2-.08s.95 0 1.9-.07zm-6.42-7l3.1-.19a1 1 0 011.11 1l.2 3.09a1.06 1.06 0 01-1 1.11l-3.1.19a1 1 0 01-1.1-1c-.1-1.55-.11-1.55-.21-3.1a1 1 0 01.98-1.09zM60 158.66l2 .37 2 .37a19.88 19.88 0 012.09.47c.5.13 1 .25 1.93.43s1.51.26 2 .34l2 .35a16.74 16.74 0 001.94.24 19.92 19.92 0 012.14.26l4 .72a1.28 1.28 0 001.59-.91c.17-.91.26-1.36.35-1.82s.17-.88.33-1.76a9.13 9.13 0 00.17-1.67 12.54 12.54 0 01.2-2 13.82 13.82 0 01.46-1.88 14 14 0 00.39-1.66c.16-.87.21-1.31.26-1.74s.12-.94.28-1.86.27-1.37.37-1.83.19-.86.35-1.74a1.42 1.42 0 00-.24-1 1.32 1.32 0 00-.87-.58 19.14 19.14 0 00-2-.27c-.53-.05-1.07-.11-2.12-.29s-1.58-.33-2.1-.46a18.66 18.66 0 00-1.93-.43c-1-.18-1.51-.26-2-.34s-1-.16-2-.35-1.5-.25-2-.32l-1.99-.3c-1-.19-1.53-.29-2-.4l-2-.38-4-.72c-1-.17-1.45-.21-2-.26s-1.07-.1-2.12-.28a19.33 19.33 0 01-2.11-.49 15.57 15.57 0 00-1.9-.45 17 17 0 00-1.94-.24 18.5 18.5 0 01-2.15-.27c-1-.18-1.53-.29-2-.39s-1-.2-2-.38-1.56-.31-2.07-.43-1-.23-2-.41-1.49-.24-2-.31-1-.15-2.06-.33a1.48 1.48 0 00-1 .22 1.22 1.22 0 00-.56.81c-.16.88-.22 1.32-.28 1.77s-.13.92-.29 1.83-.21 1.31-.26 1.75-.12.93-.28 1.86l-.72 3.5c-.16.91-.25 1.36-.34 1.81s-.18.88-.34 1.76-.26 1.37-.36 1.83-.18.87-.34 1.74a1.16 1.16 0 00.22.93 1.45 1.45 0 00.89.54c1.06.19 1.59.33 2.11.47a16.06 16.06 0 001.92.44l8.1 1.43c1 .18 1.49.25 2 .31s1 .14 2.07.33 1.55.3 2.07.42 1 .22 2 .4a17 17 0 001.94.24 18.25 18.25 0 012.15.27l2 .35zm-15.61-19c1 .18 1.53.25 2 .33s1.05.16 2.09.34 1.56.3 2.08.42 1 .21 2 .39l2.07.39c.5.1 1 .2 2 .38s1.48.23 2 .28 1.07.12 2.13.31 1.6.32 2.11.45 1 .25 2 .42 1.51.24 2 .3 1.06.13 2.12.32l4.11.73c1 .18 1.55.28 2.07.38l2 .39 2 .34 2.07.35-.35 2c-1-.18-1.53-.26-2-.34s-1-.17-2.07-.36-1.56-.28-2.07-.38l-2-.39-4.11-.71c-1-.18-1.51-.24-2-.3s-1.06-.13-2.12-.32-1.59-.32-2.1-.45-1-.24-2-.42-1.48-.23-2-.29-1.07-.12-2.13-.3l-2.07-.39c-.5-.1-1-.2-2-.38s-1.56-.3-2.08-.41-1-.22-2-.4-1.53-.25-2-.33-1-.16-2.08-.34zm-3 4.65c.49.07 1 .15 1.94.32s1.4.24 1.86.31 1 .14 1.95.32l3.8.69 1.91.37 1.88.36c1 .18 1.44.28 1.92.38s.93.19 1.87.36 1.4.24 1.87.3 1 .14 1.94.32 1.48.3 2 .43.9.23 1.82.4l7.59 1.38c.93.17 1.4.24 1.87.31s1 .14 1.94.32l-.36 2c-.93-.17-1.4-.24-1.87-.31s-1-.15-1.94-.32l-7.59-1.38c-1-.18-1.48-.31-2-.44s-.9-.23-1.82-.4-1.39-.23-1.86-.3-1-.13-1.95-.31-1.44-.28-1.92-.38-.93-.19-1.87-.36l-1.91-.37-1.94-.31-3.8-.7c-.93-.17-1.4-.23-1.87-.3s-1-.14-1.94-.32-1.41-.24-1.89-.32l-1.93-.36c-1-.18-1.45-.29-1.93-.4s-.93-.21-1.86-.38l.36-2c1 .17 1.45.28 1.93.39s.93.21 1.86.38zm-5.78-7.49a1 1 0 011.21-.83l3.06.55a1 1 0 01.85 1.2l-.54 3a1.06 1.06 0 01-1.22.84l-3-.55a1 1 0 01-.85-1.2c.16-1.45.15-1.45.43-2.98zM54.39 154a18.24 18.24 0 01-2.13-.49 16.13 16.13 0 00-1.94-.44l-4.1-.73c-1-.18-1.49-.23-2-.29s-1.07-.12-2.13-.31-1.55-.28-2.06-.38l-2-.38c-1-.18-1.57-.31-2.09-.43s-1-.23-2-.41l.35-2c1 .18 1.57.3 2.09.43s1 .23 2 .4l2.07.39 2 .37c1 .18 1.49.23 2 .29s1.07.12 2.14.31l4.1.73a17.75 17.75 0 012.13.49c.5.13 1 .26 1.94.44l4.11.73c1 .17 1.48.23 2 .28s1.07.12 2.13.31l2.05.35 2.07.36c1.06.19 1.58.31 2.1.44s1 .23 2 .41l-.35 2c-1-.19-1.58-.31-2.1-.44s-1-.23-2-.41l-2-.35-2.07-.36c-1-.18-1.48-.23-2-.29s-1.07-.11-2.13-.3zm129.05-37.48a3.51 3.51 0 01-2.44 1h-1.17l-1.6.44-3.94 1.13a18.65 18.65 0 00-1.86.62 21 21 0 01-2 .68 16.83 16.83 0 01-2.11.48 16.13 16.13 0 00-1.9.44 16.67 16.67 0 00-1.84.63 17.81 17.81 0 01-2 .7c-1 .29-1.5.41-2 .54l-1.95.53c-1 .29-1.53.41-2.05.53s-1 .21-1.93.49-1.44.43-1.91.59-1 .32-2 .61a1.5 1.5 0 00-.85.65 1.26 1.26 0 00-.14 1c.25.85.39 1.28.53 1.7s.28.88.54 1.77.38 1.27.53 1.68.31.89.56 1.79l1 3.49c.26.88.37 1.33.49 1.77s.22.87.47 1.73.37 1.34.48 1.79.21.86.45 1.72a1.18 1.18 0 00.61.73 1.4 1.4 0 001 .09 19.58 19.58 0 012.09-.5 16.73 16.73 0 001.91-.45l7.89-2.26c1-.28 1.44-.44 1.92-.6s1-.33 2-.62 1.52-.4 2-.52 1-.23 1.94-.5a15.54 15.54 0 001.84-.64 19.89 19.89 0 012-.69l2-.58 2-.57c1-.29 1.49-.42 2-.56l2-.55c1-.29 1.56-.4 2.08-.5a17.78 17.78 0 001.91-.45c1-.28 1.46-.43 1.95-.58l2-.58a16.67 16.67 0 001.84-.63 17.37 17.37 0 012-.71l3.93-1.12a1.29 1.29 0 001-1.51c-.26-.88-.37-1.33-.49-1.77s-.23-.87-.47-1.73a10.77 10.77 0 00-.58-1.58 9.82 9.82 0 01-.68-1.84 14.22 14.22 0 01-.43-1.9 10.82 10.82 0 00-.36-1.65c-.25-.85-.39-1.26-.54-1.68s-.3-.88-.56-1.78-.36-1.35-.47-1.8-.21-.86-.45-1.71a1.46 1.46 0 00-1.36-1 1.27 1.27 0 00-.34 0c-.94.27-1.4.44-1.87.62a19.77 19.77 0 01-2 .67c-1 .3-1.56.4-2.08.51a17.31 17.31 0 00-1.91.46c-1 .28-1.47.43-2 .58s-1 .3-2 .58-1.45.43-1.94.58c-.18.09-.47.16-.74.24zm-28.75 16.2a1 1 0 01-1.28-.7c-.43-1.49-.44-1.49-.86-3a1 1 0 01.72-1.28l3-.84a1 1 0 011.29.7l.85 3a1 1 0 01-.72 1.29zm36.16-.7c-.49.11-1 .23-2 .51l-2 .58-2 .58c-1 .28-1.43.44-1.92.62s-1 .36-2 .66l-4 1.14a19.69 19.69 0 01-2.12.5 18 18 0 00-1.93.46l-4 1.14c-1 .28-1.43.44-1.92.62s-1 .36-2 .66l-2 .56-2 .55c-1 .29-1.54.41-2.06.53s-1 .23-2 .51l-.55-1.92c1-.29 1.55-.41 2.07-.53s1-.23 2-.51 1.52-.43 2-.56 1-.27 2-.56 1.43-.44 1.92-.62 1-.36 2-.65l4-1.15a17 17 0 012.12-.49c.5-.1 1-.19 1.93-.46l4-1.15c1-.27 1.43-.44 1.92-.61s1-.37 2-.66l2-.58 2-.59c1-.29 1.55-.41 2.08-.53s1-.23 2-.5l.55 1.92c-1.05.29-1.57.41-2.09.51zm4.12-6.27c-.47.15-.93.29-1.88.56l-7.4 2.09c-1 .27-1.46.37-1.94.47s-.92.19-1.81.44-1.35.4-1.8.54-.94.31-1.88.57-1.41.39-1.88.51-.93.23-1.84.49l-1.87.51c-.47.12-.93.24-1.85.5l-3.71 1c-.91.26-1.36.4-1.81.55s-.93.3-1.88.56-1.37.4-1.82.54-.93.29-1.88.55-1.42.38-1.9.5-.92.22-1.83.47l-.54-1.92c.94-.27 1.42-.38 1.9-.5s.92-.22 1.83-.47 1.37-.4 1.83-.54.93-.29 1.87-.55 1.36-.4 1.81-.55.94-.3 1.88-.57l3.71-1c.94-.27 1.41-.39 1.88-.51l1.84-.5c.94-.27 1.41-.39 1.88-.51l1.83-.49c.91-.26 1.36-.4 1.81-.55s.93-.3 1.88-.57 1.46-.37 1.94-.47.91-.19 1.81-.44l7.4-2.09c.91-.25 1.36-.4 1.81-.54s.94-.3 1.88-.56l.54 1.92c-.91.27-1.36.41-1.78.56zm-5.33-6.09l2-.55c.5-.14 1-.27 2-.56s1.49-.43 2-.58l2-.59.55 1.92c-1 .28-1.49.43-2 .58l-2 .6c-1 .29-1.52.42-2 .56s-1 .26-2 .55l-4 1.14c-1 .28-1.46.45-1.94.61s-1 .35-2 .65-1.57.41-2.09.52-1 .21-1.95.49-1.43.44-1.92.62-1 .36-2 .65-1.52.43-2 .56l-2 .55c-1 .29-1.53.42-2 .55s-1 .24-2 .53l-2 .58c-.52.15-1 .32-2 .61l-.55-1.92 2-.59c.51-.16 1-.32 2-.61s1.53-.42 2-.54 1-.25 2-.53l2-.56 2-.55c1-.28 1.43-.44 1.92-.62s1-.36 2-.66 1.57-.41 2.08-.52 1-.21 2-.48 1.45-.45 1.93-.61 1-.36 2-.65zm-19.11-24.75h-14.31a16.9 16.9 0 00-2 .1c-.52 0-1.06.1-2.13.11a18 18 0 01-2.15-.09 17 17 0 00-1.95-.09 15.51 15.51 0 00-1.95.12 18 18 0 01-2.15.13h-8.18c-1 0-1.51 0-2 .06s-1 0-2.08 0a1.49 1.49 0 00-1 .41 1.24 1.24 0 00-.39.9c0 .89 0 1.34.05 1.78s0 .93.05 1.85 0 1.33.06 1.77.06.93.07 1.87v10.88a1.17 1.17 0 00.39.87 1.32 1.32 0 001 .36h.31c.87 0 1.36 0 1.83.08a18.83 18.83 0 002 .07l8.21-.09c1 0 1.5 0 2-.06s1.05 0 2.09-.06 1.58 0 2.1 0h2a15.84 15.84 0 002-.12 20.87 20.87 0 012.14-.12h8.16c1.07 0 1.61 0 2.13.07a19.4 19.4 0 002 .06h4.06a18.1 18.1 0 002-.12 17.75 17.75 0 012.14-.13h2.81c.48-.12 1-.24 1.95-.52l.62-.18a1.16 1.16 0 00.1-.47v-3.63a10 10 0 00-.13-1.68 12.24 12.24 0 01-.16-2 14.41 14.41 0 01.09-1.93 13.07 13.07 0 00.09-1.7c0-.89 0-1.32-.07-1.76s-.06-.94-.07-1.87 0-1.4 0-1.86v-1.77a1.43 1.43 0 00-1.38-1.38 19.34 19.34 0 00-2 .1c-.53 0-1.07.09-2.13.1s-1.61 0-2.14-.06a19.28 19.28 0 00-2-.06c-1.06.03-1.61.04-2.08.06zm-37.93 7v-3.09a1.06 1.06 0 011-1.05h3.1a1 1 0 011.05 1v3.09a1 1 0 01-1 1h-3.1a1 1 0 01-1.05-.86zm36.09 10h-6.17c-1 0-1.5 0-2 .09s-1.08.08-2.15.09h-4.16a18.66 18.66 0 01-2.18-.09 16.08 16.08 0 00-2-.08h-4.16c-1 0-1.49 0-2 .08s-1.07.09-2.15.1-1.57 0-2.09 0h-6.2v-2h8.3c1.06 0 1.5 0 2-.09s1.08-.08 2.15-.09h4.16a18.42 18.42 0 012.18.09c.51 0 1 .08 2 .08h4.16c1 0 1.49 0 2-.08s1.08-.09 2.15-.1h8.31v2c-1.07.09-1.61.09-2.15.01zm5.65-5h-9.7c-1 0-1.51 0-2-.07s-.93-.06-1.85-.06h-27.04v-2h27.1c1 0 1.51 0 2 .07s.92.07 1.85.06h11.59v2c-1.01.02-1.48.09-1.95.09zm.65-7.28h4.16v2h-12.49c-1 0-1.52 0-2 .08s-1.06.07-2.13.08-1.62 0-2.15-.06-1-.06-2 0-1.49 0-2 .09-1.07.08-2.15.09-1.57 0-2.1 0h-10.36v-2h12.44c1.06 0 1.5 0 2-.08s1.08-.09 2.15-.1 1.62 0 2.15.06 1 .06 2 0 1.52 0 2-.08 1.07-.07 2.14-.08h6.26c.53.06 1.09.07 2.09.06z"/><path class="cls-1" d="M208.71 229.76l7-.56 7.15-.21 5.49-.49-.2-5.73 1.48-7.05-.54-7-.77-7.18 1.74-14.22-.43-6.94-1.47-7.25 1.76-7.12-1.09-7 .27-7.14-.6-7-.19-7.16-.29-7.14.58-7.27 1.37-7-.08-6.93-1-7.13.49-7.2.08-7-.35-7-1.11-7.16.46-7.2-.24-7 .12-7.36 1.66-6.85-1.75-7 .89-7.17-.6-7.08.83-7.06-.9-5.47-5.54-.19-7.22.61-7-1.82-7 1.37-7.2.34-7.14-1.17-7-.32-7 .57-7.37 1.01-7.1-2.09-6.91.63-7.14 1.37-7.24-.72-7.07-1h-7l-7.13.34-7-.73-7.13 2.16L95 10.76l-7-.09-7.09.33-5-.52 1.74 1.87A17.25 17.25 0 0079 13.73a18.67 18.67 0 011.52 1.48l1.38 1.47c.35.36.7.73 1.39 1.47s1 1.19 1.38 1.6.6.76 1.26 1.48l1.38 1.49 1.36 1.48 1.38 1.47c.35.37.7.74 1.39 1.49a17.25 17.25 0 001.39 1.35A20.86 20.86 0 0194.36 30a3.3 3.3 0 01.86 2.47 3.54 3.54 0 01-1.1 2.34c-.65.61-1 .93-1.28 1.25s-.66.67-1.34 1.3l-5.36 5c-.71.65-1.1.95-1.47 1.24a15.47 15.47 0 00-1.34 1.13c-.65.6-1 .92-1.27 1.24s-.65.68-1.34 1.33a3.29 3.29 0 01-2.23.87h-.18a3.43 3.43 0 01-2.31-1.1 55.96 55.96 0 01-1.4-1.54L73.22 44l-2.81-3c-.69-.74-1-1.1-1.41-1.45s-.76-.75-1.47-1.52-1.06-1.11-1.41-1.47-.74-.75-1.46-1.52-1.06-1.17-1.4-1.58-.65-.77-1.34-1.51-1.05-1.1-1.41-1.46-.75-.75-1.46-1.52-1.05-1.19-1.41-1.6-.64-.77-1.33-1.51-1.06-1.16-1.41-1.55-.68-.77-1.37-1.51a17.06 17.06 0 00-1.41-1.39 19.32 19.32 0 01-1.55-1.51 18.67 18.67 0 01-1.4-1.66 18.06 18.06 0 00-1.27-1.51 19.1 19.1 0 00-1.42-1.4c-.39-.36-.79-.73-1.52-1.52l-2.48-2.66-4.11-.72-7 1.21L24 11.3l-6.9-1-5.48 1.3-.77 5.62-.22 7.06-.15 7 .9 7 .44 7.16.18 7.16-.06 7.12-.72 7.19-.13 7 .34 7.14-1.18 7.13-.18 7 .87 7 1.06 7.27-1.8 7.06 1.56 7.08-1.57 7.2-.05 6.93.93 7.13.16 7.17-.86 7.09.17 7 .56 7.05v7.17l-.47 7.11.23 7 1 7.11-.13 7.17v7.26l-1.28 6.95.66 5.92 6.07.19 7.05.93 7.08-1.22 7.11.62 7.09-1.15 7.13.57 7.13-.79 7.23 1.18 6.89.88 7.08-1.67 7.26-.49 7.1 1.81 7-.39 7 .55 7.16-1.26 7.09 1.45 7-1.29 14.4.35 6.94.9 7-1.31 7.19.09 7.16-.49 7.1 1.66 6.95-.44 14.23-.18zM119.65 76.51c.25-.89.39-1.33.54-1.77s.27-.85.51-1.7.39-1.32.53-1.76.26-.86.51-1.72l1-3.49c.24-.85.34-1.28.43-1.71s.21-.91.47-1.81.35-1.29.45-1.72.22-.9.48-1.8a3.33 3.33 0 014.16-2.23c1 .27 1.46.39 2 .51s1 .25 2 .53 1.52.46 2 .64 1 .32 1.9.6 1.5.44 2 .59l1.94.58a13.57 13.57 0 001.9.43 19.5 19.5 0 012.1.49 16 16 0 012 .7 16.67 16.67 0 001.84.63 17.24 17.24 0 001.91.45c.52.1 1.06.21 2.08.5l3.95 1.12h.08c-.19-.58-.3-1-.41-1.31s-.26-.85-.54-1.69-.44-1.31-.58-1.75-.27-.86-.55-1.7l-1.17-3.43c-.28-.84-.45-1.25-.61-1.66s-.35-.87-.65-1.75-.45-1.26-.61-1.67-.33-.87-.63-1.75a3.18 3.18 0 01.22-2.56 3.41 3.41 0 011.93-1.65c.95-.33 1.42-.51 1.89-.69s1-.37 2-.71 1.51-.48 2-.62 1-.27 1.9-.59 1.48-.49 2-.64 1-.3 1.93-.63a15.89 15.89 0 001.81-.72 16.74 16.74 0 012-.8 17.73 17.73 0 012.08-.59 15.69 15.69 0 001.87-.52 18.91 18.91 0 001.83-.72c.48-.21 1-.43 2-.78l3.86-1.3c1-.34 1.48-.49 2-.65s1-.29 1.92-.62 1.43-.5 1.91-.68 1-.36 1.95-.69l1.92-.67c.49-.18 1-.36 2-.69a20.75 20.75 0 012-.6c.5-.13 1-.25 1.9-.56a19.34 19.34 0 001.84-.72c.48-.2 1-.42 2-.77a3.42 3.42 0 014.28 2.13c.3.88.43 1.33.56 1.78s.25.85.53 1.68.45 1.24.62 1.64.35.87.65 1.76a14.36 14.36 0 01.51 1.87 14.15 14.15 0 00.45 1.64 9.74 9.74 0 00.66 1.54 11 11 0 01.77 1.81c.3.86.44 1.3.58 1.74s.27.86.56 1.71a3.25 3.25 0 01-2.2 4.09l-3.87 1.32a15.89 15.89 0 00-1.81.72 16.37 16.37 0 01-2 .81c-1 .32-1.44.49-1.91.66l-2 .69c-1 .34-1.54.47-2 .6a18.09 18.09 0 00-1.89.55l-1.95.65-1.94.65-1.91.66-2 .68a18.06 18.06 0 00-1.81.72 15.17 15.17 0 01-2 .8c-1 .34-1.5.49-2 .63s-1 .28-1.9.6-1.42.5-1.89.69-1 .38-2 .72l-7.77 2.65a17.39 17.39 0 01-1.88.55l1.36.38 2 .53 2 .55c1 .29 1.53.49 2 .67a19.06 19.06 0 001.87.62c.95.27 1.42.36 1.92.46s1.05.21 2.08.5a3.33 3.33 0 012 1.63 3.38 3.38 0 01.31 2.56c-.26.89-.4 1.33-.55 1.77s-.28.84-.53 1.69-.33 1.28-.43 1.71-.2.91-.46 1.81a12.65 12.65 0 01-.64 1.83 12.31 12.31 0 00-.56 1.6 10.14 10.14 0 00-.34 1.64 11.7 11.7 0 01-.39 1.93c-.26.89-.39 1.33-.53 1.77s-.26.85-.51 1.72a3.06 3.06 0 01-.55 1.06c.82 0 1.31 0 1.77.06a19.62 19.62 0 002 .06c1 0 1.46 0 2-.09s1.07-.1 2.13-.11a3.43 3.43 0 013.37 3.36v3.63c0 .89 0 1.32.07 1.76s.06.93.07 1.87a16.1 16.1 0 01-.1 1.93 13.4 13.4 0 00-.08 1.7 9.65 9.65 0 00.14 1.67 12.7 12.7 0 01.15 2v3.47l1.2-.35 1.94-.57c.5-.16 1-.31 2-.59s1.56-.4 2.07-.51 1-.19 1.92-.46 1.4-.44 1.88-.62 1-.38 2-.67a3.42 3.42 0 014.17 2.34c.26.89.37 1.34.47 1.8s.21.86.45 1.71.39 1.26.53 1.67.31.89.57 1.79a15.47 15.47 0 01.42 1.89 11.5 11.5 0 00.37 1.66 9.88 9.88 0 00.58 1.57 11.34 11.34 0 01.68 1.85c.25.88.37 1.32.48 1.77s.23.87.48 1.73a3 3 0 01-.38 2.52 3.56 3.56 0 01-2 1.46l-3.93 1.13a13.67 13.67 0 00-1.84.63 17.25 17.25 0 01-2 .7c-1 .28-1.46.43-1.95.58l-2 .58c-1 .29-1.57.4-2.08.5a16.73 16.73 0 00-1.91.45c-1 .29-1.49.42-2 .56l-.35.1a7.07 7.07 0 01.58 1.11 2 2 0 011.84-.93c.92.07 2.46.77 2.43 4.56a30.85 30.85 0 01-.26 3.24c-.06.44-.1.79-.11 1a1 1 0 01-1 1 1 1 0 01-1-1c0-.24.06-.67.12-1.2a28.1 28.1 0 00.25-3c0-1.91-.43-2.54-.59-2.55a3.75 3.75 0 00-.54 2.51 1 1 0 01-1.83.82s0-.09-.05-.13c-.07-.19-.14-.46-.27-.91a21 21 0 00-1.07-3.12 13.29 13.29 0 000 3.53c0 .05 0 .11.05.17a1 1 0 01-1.93.53.64.64 0 010-.07c-.73-2.86-1.42-3.47-1.68-3.6a.23.23 0 00-.23 0 .36.36 0 00-.21.25 3 3 0 00.14 1.08c.19.72.42 1.43.64 2.15s.46 1.47.66 2.21a1 1 0 01-.49 1.14 1 1 0 01-1.23-.22 11.57 11.57 0 00-2.24-1.96 7 7 0 001.14 2.57 13 13 0 011 1.87 1 1 0 01-.57 1.29.92.92 0 01-.36.07 1 1 0 01-.93-.63 13 13 0 00-.84-1.57 8 8 0 01-1.44-3.65c0-1.32.55-1.83 1-2a2.33 2.33 0 011.94.33c-.11-.36-.21-.72-.31-1.09a5.09 5.09 0 01-.2-1.52 17 17 0 01-2 .67c-1 .29-1.52.41-2 .53s-1 .22-1.94.5-1.44.43-1.92.59-1 .33-2 .62l-7.89 2.27c-1 .29-1.57.39-2.09.49a16.73 16.73 0 00-1.91.45 3.54 3.54 0 01-1 .14 3.43 3.43 0 01-1.54-.37 3.21 3.21 0 01-1.61-2c-.25-.89-.36-1.34-.48-1.79s-.21-.86-.45-1.72-.37-1.33-.49-1.77-.22-.87-.47-1.73l-1-3.49c-.24-.85-.39-1.26-.53-1.68s-.31-.89-.56-1.79-.39-1.28-.53-1.7-.28-.88-.54-1.77a3.19 3.19 0 01.35-2.55 3.4 3.4 0 012-1.55c1-.28 1.44-.43 1.92-.59s1-.33 2-.62 1.53-.4 2.05-.52 1-.21 1.93-.49 1.5-.41 2-.54 1-.25 2-.53a14.89 14.89 0 001.84-.64c.5-.19 1-.4 2-.7a18.41 18.41 0 012.11-.48 13.83 13.83 0 001.89-.43 19.06 19.06 0 001.87-.62h.1-3.06c-1.06 0-1.61 0-2.13-.07s-1-.07-2-.06h-8.16a18.36 18.36 0 00-1.95.11 18 18 0 01-2.15.13h-4.1c-1 0-1.5 0-2 .06s-1 0-2.08.06l-8.21.09h-.31c-.87 0-1.36 0-1.84-.08s-1-.07-2-.07a3.39 3.39 0 01-2.31-.89 3.19 3.19 0 01-1-2.32v-10.88c0-.88 0-1.33-.06-1.77s-.06-.93-.07-1.87 0-1.33-.05-1.78 0-.93-.05-1.85a3.23 3.23 0 011-2.37 3.43 3.43 0 012.35-1h2c.49 0 1 0 2.09-.06s1.58 0 2.1 0h6.07a17.73 17.73 0 002-.12 18.11 18.11 0 012.15-.13c1.07 0 1.62 0 2.15.09a15.19 15.19 0 002 .09 19 19 0 002-.11c.52 0 1.06-.09 2.13-.1h9.88l-.67-.19a15.69 15.69 0 00-1.9-.44 16.39 16.39 0 01-2.1-.48c-1-.28-1.47-.41-2-.54l-2-.55c-1-.29-1.54-.49-2-.67a19.61 19.61 0 00-1.86-.62c-1-.28-1.49-.43-2-.58l-2-.57-2-.55-2-.55a16 16 0 00-1.9-.43 20.26 20.26 0 01-2.1-.48c-1-.29-1.51-.46-2-.63s-.94-.32-1.91-.6-1.45-.39-1.94-.5-1-.24-2-.53l-7.9-2.24a20.47 20.47 0 01-2-.68 15.9 15.9 0 00-1.86-.63 3.26 3.26 0 01-2.34-3.99zM50 161.9a2.08 2.08 0 012.11.43c.1-1.18.38-2 1.05-2.43a1.57 1.57 0 011.69.1 3 3 0 01.85.94 2.79 2.79 0 01.6-.89l-.83-.15a15 15 0 00-1.94-.24 20.73 20.73 0 01-2.15-.27c-1-.19-1.55-.31-2.06-.42s-1-.23-2-.41-1.48-.24-2-.3-1-.14-2.08-.33l-8.1-1.43a20.21 20.21 0 01-2.1-.48 19.63 19.63 0 00-1.92-.43 3.42 3.42 0 01-2.15-1.31 3.15 3.15 0 01-.59-2.48c.16-.91.26-1.36.36-1.82s.19-.87.34-1.75.25-1.36.35-1.81.18-.88.33-1.76l.65-3.58c.15-.87.21-1.31.26-1.76s.11-.93.28-1.85.22-1.32.28-1.76.13-.92.29-1.84a3.24 3.24 0 011.43-2.14 3.49 3.49 0 012.5-.51c1 .18 1.49.25 2 .32s1 .14 1.94.3a3.5 3.5 0 01-.07-.45c-.06-.93-.07-1.39-.09-1.86s0-.89-.08-1.78-.08-1.38-.1-1.84 0-.9-.09-1.79l-.23-3.63c-.05-.89-.11-1.33-.16-1.77s-.11-.93-.17-1.87-.1-1.33-.14-1.78-.1-.92-.16-1.85a3.27 3.27 0 01.88-2.42 3.47 3.47 0 012.3-1.09c1-.06 1.51-.11 2-.17s1-.1 2.09-.17 1.58-.07 2.11-.08 1 0 2-.07 1.56-.09 2.08-.11 1 0 2-.1a16.9 16.9 0 001.94-.22 18.12 18.12 0 012.14-.25 18.37 18.37 0 012.17 0h1.06c-.34-.18-.72-.38-1.39-.7-.83-.39-1.24-.61-1.65-.82l-1.6-.79-3.28-1.59c-.8-.38-1.21-.55-1.62-.72s-.86-.36-1.71-.76-1.22-.57-1.63-.75-.85-.37-1.68-.77a3.18 3.18 0 01-1.68-2 3.44 3.44 0 01.37-2.48c.43-.9.63-1.36.83-1.83s.42-1 .88-1.9.71-1.42 1-1.88.48-.88.91-1.78.69-1.4.93-1.86.46-.9.9-1.81a16.46 16.46 0 00.76-1.81A20.46 20.46 0 0153 80.4a14.41 14.41 0 001-1.71c.43-.89.6-1.34.78-1.81a19.14 19.14 0 01.84-2l1.78-3.71c.45-.94.69-1.4.93-1.87s.46-.9.9-1.81.65-1.38.86-1.84.43-1 .88-1.89.65-1.38.86-1.84.44-.94.89-1.88.74-1.44 1-1.89.5-.86.93-1.75.6-1.34.79-1.82a21 21 0 01.85-2 3.42 3.42 0 014.52-1.57c.84.4 1.25.63 1.67.85s.78.42 1.57.8 1.21.55 1.61.72.87.36 1.72.76a13.32 13.32 0 011.69.95 13.19 13.19 0 001.49.83 10.05 10.05 0 001.57.61 13.26 13.26 0 011.84.72c.83.4 1.24.61 1.65.82s.8.41 1.61.8a3 3 0 011.64 2 3.57 3.57 0 01-.25 2.48l-1.78 3.7a16.78 16.78 0 00-.75 1.8 18.36 18.36 0 01-.83 2c-.45.92-.66 1.38-.88 1.84s-.43.94-.88 1.87a19 19 0 01-1 1.89c-.26.44-.5.85-.93 1.74s-.68 1.4-.91 1.86-.45.92-.89 1.84l-.88 1.85-.89 1.89a14.67 14.67 0 00-.76 1.81 19.3 19.3 0 01-.83 2c-.46.95-.71 1.41-1 1.87s-.48.89-.92 1.79-.63 1.37-.83 1.83-.41 1-.87 1.91l-3.56 7.42a19 19 0 01-1 1.9c-.26.44-.51.85-.94 1.73a1.27 1.27 0 01-.07.12l2.92-.19 2.08-.1c.5 0 1 0 2-.1l2-.16c.51 0 1-.09 2.07-.16s1.53-.1 2-.15l2.07-.15c1.06-.07 1.61-.06 2.13 0a18.64 18.64 0 002 0c1-.06 1.47-.13 2-.2a19.33 19.33 0 012.12-.22 3.27 3.27 0 012.44.86 3.43 3.43 0 011.15 2.31c.06.93.07 1.4.07 1.86s0 .89.08 1.77.11 1.32.16 1.76.11.93.17 1.87a14.26 14.26 0 010 1.94 10.66 10.66 0 000 1.7 9.47 9.47 0 00.23 1.67 13 13 0 01.26 2c.06.92.08 1.38.1 1.85s0 .9.1 1.79a3.26 3.26 0 01-3.19 3.39l-4.1.27a16.62 16.62 0 00-1.94.22 18.08 18.08 0 01-2.15.25l-2 .15-2.07.15c-1.06.06-1.61.05-2.14 0a18.47 18.47 0 00-2 0l-2.06.12-2 .12-2 .14c-.52 0-1 .08-2.06.14a16.35 16.35 0 00-1.95.23 20.93 20.93 0 01-2.14.24c-1 .07-1.58.08-2.1.09s-1 0-2 .08-1.51.12-2 .17-1 .11-2.09.18l-3.37.22c.93.17 1.45.32 1.93.45a13.5 13.5 0 001.9.45c1 .17 1.44.21 2 .26s1.07.1 2.13.28l4 .72c1 .18 1.54.29 2 .39s1 .21 2 .39 1.51.25 2 .33 1 .15 2.05.34l2 .34c.51.08 1 .16 2 .34s1.58.33 2.09.46 1 .25 1.94.43 1.45.22 2 .27 1.07.1 2.12.29a3.32 3.32 0 012.17 1.41 3.44 3.44 0 01.56 2.52c-.17.92-.27 1.38-.37 1.83s-.2.87-.35 1.74-.18 1.24-.26 1.64-.11.94-.28 1.86a14.42 14.42 0 01-.45 1.89 11.92 11.92 0 00-.4 1.66 10 10 0 00-.17 1.67 11.32 11.32 0 01-.2 2c-.16.9-.25 1.36-.34 1.8s-.18.89-.34 1.78a3.2 3.2 0 01-3.24 2.59 3.88 3.88 0 01-.67-.06l-4-.72a16.74 16.74 0 00-1.94-.24 17.59 17.59 0 01-2.14-.26l-2-.35-2-.34a20.51 20.51 0 01-2.09-.47 19.31 19.31 0 00-1.93-.43l-2-.37-1.82-.34a2.47 2.47 0 01.09.33 4 4 0 01.23 1.5v1.51a2.38 2.38 0 011.86-1c.53 0 1.23.36 1.57 1.63a8 8 0 01-.32 3.9 11.28 11.28 0 00-.35 1.73 1 1 0 11-2-.16 12.69 12.69 0 01.4-2.06 7 7 0 00.36-2.75 11.92 11.92 0 00-1.46 2.42 1 1 0 01-1.11.57 1 1 0 01-.8-1c0-.74-.06-1.48-.1-2.23s-.09-1.54-.11-2.32v-.27a2.68 2.68 0 00-.08-.76.88.88 0 00-.23-.36.23.23 0 00-.1.07c-.25.23-.64 1.05-.52 3.93v.19a1 1 0 01-2 0v-.14a13 13 0 00-1.09-3.27 24.23 24.23 0 000 3.07 7.53 7.53 0 010 1.17 1 1 0 01-1.13.86 1 1 0 01-.85-1.13 4.27 4.27 0 00-1.46-2.44c-.06.18-.13.79.46 2.71.33 1.05.74 2.14 1.05 2.93.18.46.31.82.39 1a1 1 0 01-.65 1.26 1.12 1.12 0 01-.31.05 1 1 0 01-1-.7c-.06-.19-.19-.52-.35-.94-.31-.81-.74-1.93-1.09-3-.34-1.3-1.21-4.26.79-5.07zm147.52 40.88l-2.52 2.61-2.85 2.42-3 2.22-2.89 2.47-3.18 1.73-3 2-3.06 2-3 2.19-3.02 1.78-2.69 2.35-3 2.18-1.17-1.63L167 223l2.87-2.47 3.13-1.76 2.89-2.12 3.08-2 3.08-2.1 3.13-1.71 2.69-2.32 3-2.22 2.73-2.33 2.46-2.49 2.1-2.9 1.77-3.06 1.56-3 .52-3.38.12-3.49-.52-3.48-1.28-3.64-.43-3.57-1.39-3.31-2.35-7-1.49-3.33-1.58-3.32-1.29-3.45-1.49-2.25-2.71.83-3.49.93-2.35.92.82 2.13 2.11 3 1.4 3.42.82 3.35 1.69 3.12 1.25 3.57.39 3.46 1.1 3.51.37 3.68-.55 3.65-.87 3.67-2.19 3.37-3 2.57-3.2 1.49-2.65 2.64-3.56 1.29-2.83 2.07-3.25 2.1-3.34 1.46-3.45 1.3-3.34 1.36-3.48 1.15-3.53 1-3.65.92-3.8.46-5.26-2.15-1.9-4.13-1-4.05.45-2.66h-2.23l-3.43-.41-3.49.25-3.49-.5-3.39.14-3.57.21-2.16-.31.52 2.15-.25 3.58-.32 3.51-.87 3.69-3.14 2.45-3.74 1.1-3.49.3-3.43.23-3.51.73-3.63-.15-3.43-.38-3.63.45-3.6-1-3.35-.77-3.58-1-3.18-1.67-3.06-2.05-2-3.21-1.47-3.3-1.39-3.62-.76-3.56-.43-3.72-.32-3.57-.86-3.63.15-3.73-.3-3.56-.48-3.66.07-2.39-2 .11-3.07.27-3.23.76-2.17.12.17 2.52.09 3.55.53 3.46.76 3.42.5 3.6 1.17 7 .45 3.52.94 3.36.68 3.44 1.74 3.21 1.1 3.33 1.27 3.15 1.8 2.79 2.73 2.06-1.23 1.58-2.95-2.28-2.13-3.3-1.37-3.29-1.11-3.34-1.81-3.37-.68-3.52-1-3.5-.46-3.54-1.16-7-.49-3.55-.77-3.4-.56-3.72-.08-3.57-.31-4.5 4.1-.22 3.18-.76 3.17-.27 4.21-.24-.08 4.42.46 3.54.31 3.72-.14 3.59.83 3.57.33 3.62.41 3.6.73 3.38 1.26 3.35 1.42 3.18 1.71 2.67 2.68 1.76 3 1.54 3.25.95 3.35.79 3.26.88 3.46-.43 3.6.4 3.31.13 3.48-.72 3.48-.23 3.37-.29 3.08-.92 2.28-1.79.69-2.93.3-3.28.22-3.25-1.14-4.73 4.89.71 3.38-.2 1.37-.06c-.25-.06-.5-.12-.74-.2a16.61 16.61 0 01-4.19-1.91 15.24 15.24 0 01-3.15-3l-.27-.31a17.79 17.79 0 01-2.66-4 18.91 18.91 0 01-1.66-4.47c-.08-.41-.19-.81-.29-1.22a13 13 0 01-.56-3.56 20.85 20.85 0 01.76-4.82 20.08 20.08 0 012-4.43c.06-.11.13-.2.19-.31a.88.88 0 010-.48c1.61-4.13 5.67-7.1 10.57-8.07a5.31 5.31 0 01-.22-.6 4.61 4.61 0 119-2.21 4.53 4.53 0 01-.27 2.95 1.09 1.09 0 01.27.33 16.94 16.94 0 013.56 1.51 7 7 0 011.06.6 17.56 17.56 0 013.64 3.25 14.13 14.13 0 012 3.38c.13.28.26.56.4.84a20 20 0 011.45 4.53c.1.46.24.94.4 1.44a10 10 0 01.61 3.29 20.14 20.14 0 01-.9 4.79 19.45 19.45 0 01-1.79 4.51 10.45 10.45 0 01-2.21 2.53c-.31.29-.62.57-.91.87l-.37.4a15 15 0 01-3 2.67 16.25 16.25 0 01-4.23 1.89h-.13l.87-.06 3.5.42 4.49-.07-.78 4.62.87 3.56 1.46 3.14 4.06 1.66 3.22-.39 3.43-.87 3.46-1 3.38-1.15 3.31-1.35 3.43-1.29 3.21-1.41 3-1.95 3.14-2.25 3.28-1.19 2.59-2.58 3.38-1.57 2.53-2.23 1.75-2.75.78-3.26.5-3.32-.33-3.32-1.1-3.49-.4-3.45-1.13-3.17-1.89-3.27-.83-3.4-1.28-3.11-2.13-3.05-1.59-4.11 4.37-1.7 3.51-.94 4.1-1.25 2.48 3.79 1.3 3.48 1.56 3.26 1.55 3.49 2.34 7 1.49 3.64.43 3.6 1.28 3.59.56 3.76-.14 3.87-.57 3.75-1.74 3.38-1.85 3.19z"/><path class="cls-1" d="M126.79 197.69a12.9 12.9 0 003.66-.25 14.5 14.5 0 003.72-1.67 13.2 13.2 0 002.62-2.34l.37-.4c.32-.33.66-.65 1-1a9.16 9.16 0 001.82-2 17.44 17.44 0 001.6-4.05 19 19 0 00.83-4.31 8.21 8.21 0 00-.53-2.65c-.16-.53-.32-1.07-.44-1.62a20.09 20.09 0 00-.8-2.89.7.7 0 01-.14 0h-.15c-4.79-.71-8.63-3.56-10.16-7.19-2 3.5-6.3 5.82-11.24 5.82h-1.07a14.85 14.85 0 01-4.3-.94v.07a18.62 18.62 0 00-1.8 4 19 19 0 00-.69 4.35 11 11 0 00.5 3c.11.43.22.86.31 1.29a17.66 17.66 0 001.5 4 15.79 15.79 0 002.38 3.51l.27.32a13.35 13.35 0 002.74 2.68 14.72 14.72 0 003.69 1.68 13.75 13.75 0 004 .6zm-1.29-17.09a1 1 0 11-2 0 3.24 3.24 0 016.47 0 1 1 0 01-2 0 1.24 1.24 0 00-2.47 0zM45.67 11.63l.75.82c.68.73 1 1.05 1.42 1.4s.79.73 1.52 1.52a17.06 17.06 0 011.4 1.63A18.33 18.33 0 0052 18.54a18.28 18.28 0 001.41 1.38A18.52 18.52 0 0155 21.44c.71.76 1.06 1.15 1.41 1.54s.68.77 1.38 1.52 1.06 1.18 1.4 1.59.65.77 1.33 1.51 1.05 1.1 1.41 1.46.75.75 1.46 1.52 1.06 1.18 1.41 1.58.65.77 1.34 1.51 1.05 1.11 1.41 1.47.74.75 1.45 1.52 1.05 1.1 1.41 1.45.75.74 1.47 1.51l2.81 3c.71.76 1.06 1.15 1.41 1.54s.68.76 1.38 1.51a1.38 1.38 0 00.94.45 1.22 1.22 0 00.94-.34c.66-.61 1-.93 1.28-1.25s.65-.68 1.34-1.32A18.74 18.74 0 0183.45 42c.35-.28.69-.54 1.33-1.13l5.36-5c.65-.61 1-.93 1.28-1.24s.66-.67 1.34-1.31a1.49 1.49 0 00.46-1 1.26 1.26 0 00-.32-1A18 18 0 0091.52 30 20.49 20.49 0 0190 28.52L88.62 27c-.35-.36-.7-.73-1.39-1.48s-1-1.12-1.38-1.49-.68-.75-1.36-1.48A20.47 20.47 0 0183.12 21c-.31-.39-.61-.76-1.27-1.47s-1-1.1-1.37-1.46-.71-.74-1.4-1.49a18.82 18.82 0 00-1.38-1.34 20.49 20.49 0 01-1.52-1.48l-2.75-3a.91.91 0 01-.23-.46l-6.3.32.17.17c.36.38.72.75 1.43 1.51s1 1.16 1.4 1.55.67.76 1.37 1.51l1.4 1.52 1.38 1.51c.69.73 1 1.09 1.41 1.44s.75.74 1.47 1.51 1 1.17 1.4 1.58.65.77 1.33 1.5 1 1.1 1.41 1.46.74.74 1.46 1.51l2.81 3c.71.76 1.06 1.15 1.41 1.53l1.38 1.51-1.46 1.36-1.41-1.52c-.34-.38-.68-.76-1.38-1.52l-2.82-3c-.69-.74-1-1.1-1.4-1.45s-.75-.75-1.46-1.51-1.06-1.18-1.4-1.58-.65-.77-1.34-1.51-1-1.09-1.41-1.44-.75-.74-1.46-1.51l-1.4-1.52c-.34-.38-.69-.76-1.39-1.51s-1-1.16-1.4-1.55-.67-.76-1.37-1.5-1-1.12-1.4-1.49-.72-.75-1.43-1.51h-4.27c.28.29.61.63 1.13 1.19l2.65 2.88 1.32 1.45c.32.36.65.72 1.31 1.43s1 1.09 1.31 1.45L69 20.55c.65.71 1 1.05 1.32 1.4s.69.71 1.36 1.44 1 1.11 1.32 1.49.61.73 1.25 1.43L79.53 32c.66.71 1 1.06 1.33 1.41s.68.71 1.34 1.43l-1.47 1.36c-.65-.71-1-1.06-1.32-1.4s-.68-.71-1.35-1.44l-5.29-5.73c-.67-.74-1-1.12-1.31-1.5s-.62-.73-1.26-1.43-1-1-1.33-1.4-.68-.71-1.35-1.43-1-1.1-1.33-1.47-.64-.72-1.3-1.42l-1.32-1.45-1.31-1.44-2.64-2.87c-.65-.71-1-1.06-1.32-1.4s-.68-.7-1.32-1.4l-4.35-.41h-.2c.22.24.38.44.55.63.3.35.6.7 1.23 1.38l1.29 1.4c.32.35.63.7 1.27 1.38s1 1 1.29 1.32.69.67 1.36 1.38L62 20.35c.67.72 1 1.11 1.29 1.48s.57.71 1.19 1.38L67 26c.63.67 1 1 1.29 1.31s.7.68 1.36 1.39L71 30.06l1.3 1.38c.66.71 1 1.08 1.29 1.45s.6.7 1.23 1.38l-1.47 1.36c-.65-.7-1-1.07-1.28-1.44s-.61-.7-1.24-1.38l-1.28-1.37L68.21 30c-.62-.67-.95-1-1.28-1.31s-.7-.68-1.36-1.39L63 24.57c-.66-.72-1-1.11-1.28-1.48s-.57-.71-1.19-1.38L58 18.94c-.63-.67-1-1-1.29-1.31s-.71-.63-1.4-1.39-1-1-1.28-1.39l-1.28-1.39c-.66-.71-1-1.07-1.29-1.44s-.6-.7-1.23-1.38l.07-.06z"/><path d="M231.1 208.58l-.75-7 1.74-14.18-.45-7.19-1.41-7 1.75-7.08-1.13-7.2.27-7v-.06l-.6-7.1-.19-7.11-.29-7 .55-7 1.4-7.15-.08-7.2-1-7.12.48-7 .08-7.16-.36-7.19-1.05-7 .46-7.09-.25-7 .1-7 1.63-7.29-1.77-7.15.87-7-.6-7.09.84-7.14-1.21-7.36-7.3-.26-7 .6-7.12-1.86-7.24 1.42-6.93.33-7-1.14-7.28-.34-7.22.58-6.88 1L159.1 8l-7.39.68-7 1.33-6.92-.69-7.17-1h-7.21l-7 .34-7.22-.76-7.03 2.1-6.86-1.23-7.3-.1L81 9l-7.13-.7-7.13.36-7 .05L52.5 8l-7.06 1.63-2-.35a1 1 0 00-.81-.14l-4.23-.73-7.18 1.22-6.93-.32-7.24-1.08L9.86 10l-.95 7-.24 7.22-.15 7.08v.07l.91 7.1.43 7.06.14 7.07-.06 7-.72 7.18L9.05 74l.33 7-1.16 7L8 95.25l.89 7.19 1 6.9-1.81 7.13 1.57 7.12-1.51 6.88-.07 7.3L9 145l.16 7-.86 7 .18 7.22.56 7v7l-.48 7.09.23 7.15 1 7.12-.13 7v7l-1.32 7.15.88 7.93L17 231l7.25 1 7.13-1.23 7.09.63 7.1-1.16 7.07.57 7.06-.78 7 1.13 7.28.93 7.19-1.71 6.86-.46 7.09 1.81 7.18-.41 7.16.56 7-1.23 7.1 1.45 7.18-1.32 14 .33 7.2.94 7.15-1.34 7.08.09 6.94-.47 7.09 1.65 7.19-.45 14.12-.18 7.16.42 7.11-.58L223 231l7.45-.66-.26-7.38 1.49-7.09zM180.43 230l-7.1-1.66-7.16.49-7.19-.09-7 1.31-6.94-.9-14.4-.35-7 1.29-7.09-1.45-7.16 1.26-7-.55-7 .39-7.1-1.81-7.26.49-7.08 1.67-6.95-.91-7.27-1.18-7.13.79-7.13-.57-7.09 1.15-7.11-.62-7.08 1.25-7-.93-6.07-.19-.66-5.92 1.23-6.96v-7.26l.13-7.17-1-7.11-.23-7 .47-7.11v-7.17l-.56-7.05-.17-7 .86-7.09-.19-7.19-.93-7.13.05-6.93 1.57-7.2-1.56-7.08 1.8-7.06-1.06-7.28-.87-7 .18-7 1.18-7.13-.34-7.14.13-7 .72-7.19.13-7.11-.1-7.15-.44-7.16-.9-7 .15-7 .22-7.06.77-5.62 5.48-1.3 6.9 1 7.31.34 7-1.21 4.11.72 2.5 2.65c.73.79 1.13 1.16 1.52 1.52a19.1 19.1 0 011.42 1.4 18.06 18.06 0 011.27 1.51 18.67 18.67 0 001.4 1.66 19.32 19.32 0 001.55 1.51 17.06 17.06 0 011.41 1.39c.69.74 1 1.13 1.37 1.51s.7.78 1.41 1.55 1 1.13 1.33 1.51.69.82 1.41 1.59 1.08 1.14 1.46 1.52.71.72 1.41 1.46 1 1.13 1.34 1.51.68.81 1.4 1.58 1.09 1.15 1.46 1.52.71.72 1.41 1.47 1.09 1.14 1.47 1.52.72.71 1.41 1.45l2.81 3 1.38 1.51c.34.39.69.78 1.4 1.54a3.43 3.43 0 002.31 1.09h.18a3.29 3.29 0 002.23-.87c.69-.65 1-1 1.34-1.33s.62-.64 1.27-1.24a15.47 15.47 0 011.34-1.13c.37-.29.76-.59 1.47-1.24l5.36-5c.68-.63 1-1 1.34-1.3s.63-.64 1.28-1.25a3.54 3.54 0 001.1-2.34 3.3 3.3 0 00-.9-2.43 20.86 20.86 0 00-1.51-1.48 17.25 17.25 0 01-1.39-1.35c-.69-.75-1-1.12-1.39-1.49l-1.38-1.48-1.36-1.48L86 21.23c-.66-.72-1-1.09-1.26-1.48s-.66-.83-1.38-1.6-1-1.11-1.39-1.47l-1.38-1.47A18.67 18.67 0 0079 13.73a17.25 17.25 0 01-1.37-1.34l-1.74-1.87 5 .52 7.11-.37 7 .09 7.25 1.32 7.13-2.16 7 .73 7.13-.34h7l7.07 1 7.24.72 7.18-1.39 6.9-.64 7.1 2.09 7.27-1.09 7-.57 7 .32 7.16 1.25 7.2-.34 7-1.37 7 1.82 7.22-.61 5.54.19.9 5.47-.83 7.06.6 7.08-.89 7.17 1.75 7-1.61 6.86-.12 7.36.24 7-.46 7.2L229.1 81l.35 7-.08 7-.49 7.2 1 7.13.08 6.93-1.37 7-.58 7.27.29 7.14.19 7.16.6 7-.27 7.14 1.09 7-1.76 7.12 1.47 7.25.43 6.94-1.74 14.22.77 7.18.54 7-1.48 7.05.2 5.73-5.49.49-7.15.21-7 .56-7.1-.41-14.23.18zM51.46 12c.32.37.63.73 1.29 1.44L54 14.85c.31.35.63.7 1.28 1.39s1 1.05 1.35 1.39.66.64 1.29 1.31l2.57 2.77c.62.67.9 1 1.19 1.38s.62.76 1.28 1.48l2.58 2.77c.66.71 1 1.05 1.36 1.39s.66.64 1.28 1.31l1.31 1.4 1.28 1.37c.63.68.94 1 1.24 1.38s.63.74 1.28 1.44l1.47-1.36c-.63-.68-.93-1-1.23-1.38s-.63-.74-1.29-1.45L71 30.06l-1.29-1.38c-.66-.71-1-1.05-1.36-1.39S67.66 26.65 67 26l-2.57-2.77c-.62-.67-.9-1-1.19-1.38s-.62-.76-1.29-1.48l-2.56-2.77c-.67-.71-1-1-1.36-1.38s-.66-.65-1.29-1.32-1-1-1.27-1.38l-1.29-1.4c-.63-.68-.93-1-1.23-1.38-.17-.19-.33-.39-.55-.63h.2l4.35.41c.64.7 1 1 1.32 1.4s.67.69 1.32 1.4l2.64 2.87 1.31 1.44L64.89 19c.66.7 1 1.07 1.3 1.42s.66.74 1.33 1.47 1 1.08 1.35 1.43.67.69 1.33 1.4 1 1.07 1.26 1.43.64.76 1.31 1.5l5.29 5.73c.67.73 1 1.08 1.35 1.44s.67.69 1.32 1.4l1.47-1.36c-.66-.72-1-1.07-1.34-1.43s-.67-.7-1.33-1.41l-5.29-5.73c-.64-.7-.95-1.06-1.25-1.43s-.65-.76-1.32-1.49-1-1.09-1.36-1.44-.67-.69-1.32-1.4l-1.31-1.44c-.33-.36-.65-.73-1.31-1.45s-1-1.07-1.31-1.43l-1.32-1.45-2.65-2.86c-.52-.56-.85-.9-1.13-1.19h4.27c.71.76 1.07 1.14 1.43 1.51s.71.74 1.4 1.49 1 1.12 1.37 1.5.69.78 1.4 1.55 1 1.13 1.39 1.51l1.4 1.52c.71.77 1.09 1.14 1.46 1.51s.72.7 1.41 1.44 1 1.13 1.34 1.51.68.8 1.4 1.58 1.09 1.13 1.46 1.51.71.71 1.4 1.45l2.82 3c.7.76 1 1.14 1.38 1.52l1.41 1.52 1.46-1.36L86.75 32c-.35-.38-.7-.77-1.41-1.53l-2.81-3c-.72-.77-1.09-1.14-1.46-1.51s-.72-.72-1.41-1.46-1-1.12-1.33-1.5-.69-.81-1.4-1.58-1.1-1.14-1.47-1.51-.72-.71-1.41-1.44l-1.38-1.51-1.4-1.52c-.7-.75-1-1.13-1.37-1.51s-.69-.78-1.4-1.55-1.07-1.13-1.43-1.51l-.17-.17 6.3-.32a.91.91 0 00.23.46l2.75 3a20.49 20.49 0 001.52 1.48 18.82 18.82 0 011.38 1.34c.69.75 1 1.12 1.4 1.49s.69.72 1.37 1.46 1 1.08 1.27 1.47a20.47 20.47 0 001.37 1.6c.68.73 1 1.11 1.36 1.48s.68.75 1.38 1.49 1 1.12 1.39 1.48L90 28.52A20.49 20.49 0 0091.52 30a18 18 0 011.38 1.36 1.26 1.26 0 01.32 1 1.49 1.49 0 01-.46 1c-.68.64-1 1-1.34 1.31s-.63.63-1.28 1.24l-5.36 5c-.64.59-1 .85-1.33 1.13A18.74 18.74 0 0082 43.25c-.69.64-1 1-1.34 1.32s-.62.64-1.28 1.25a1.22 1.22 0 01-.94.34 1.38 1.38 0 01-.94-.45c-.7-.75-1-1.13-1.38-1.51s-.7-.78-1.41-1.54l-2.81-3c-.72-.77-1.09-1.14-1.47-1.51s-.72-.71-1.41-1.45-1.08-1.14-1.45-1.52-.72-.72-1.41-1.47-1-1.12-1.34-1.51-.69-.81-1.41-1.58-1.09-1.14-1.46-1.52-.72-.72-1.41-1.46-1-1.13-1.33-1.51-.68-.82-1.4-1.59-1-1.14-1.38-1.52-.7-.78-1.41-1.54a18.52 18.52 0 00-1.54-1.52A18.28 18.28 0 0152 18.54 18.33 18.33 0 0150.76 17a17.06 17.06 0 00-1.4-1.66c-.73-.79-1.13-1.16-1.52-1.52s-.74-.67-1.42-1.4l-.75-.82 4.63-1.05-.07.06c.63.71.93 1.06 1.23 1.39z"/><path d="M50.75 171.08a1 1 0 001 .7 1.12 1.12 0 00.31-.05 1 1 0 00.65-1.26c-.08-.22-.21-.58-.39-1-.31-.79-.72-1.88-1.05-2.93-.59-1.92-.52-2.53-.46-2.71a4.27 4.27 0 011.46 2.44 1 1 0 00.85 1.13 1 1 0 001.13-.86 7.53 7.53 0 000-1.17 24.23 24.23 0 010-3.07 13 13 0 011.09 3.27v.14a1 1 0 002 0v-.19c-.12-2.88.27-3.7.52-3.93a.23.23 0 01.1-.07.88.88 0 01.23.36 2.68 2.68 0 01.08.76v.27c0 .78.06 1.55.11 2.32s.09 1.49.1 2.23a1 1 0 00.8 1 1 1 0 001.11-.57 11.92 11.92 0 011.46-2.42 7 7 0 01-.36 2.75 12.69 12.69 0 00-.4 2.06 1 1 0 102 .16 11.28 11.28 0 01.35-1.73 8 8 0 00.32-3.9c-.34-1.27-1-1.59-1.57-1.63a2.38 2.38 0 00-1.86 1v-1.51A4 4 0 0060 161a2.47 2.47 0 00-.19-.36l1.82.34 2 .37a19.31 19.31 0 011.93.43 20.51 20.51 0 002.09.47l2 .34 2 .35a17.59 17.59 0 002.14.26 16.74 16.74 0 011.94.24l4 .72a3.88 3.88 0 00.67.06 3.2 3.2 0 003.24-2.59c.16-.89.25-1.33.34-1.78s.18-.9.34-1.8a11.32 11.32 0 00.2-2 10 10 0 01.17-1.67 11.92 11.92 0 01.4-1.66 14.42 14.42 0 00.45-1.89c.17-.92.22-1.39.28-1.86s.1-.87.26-1.74.25-1.31.35-1.74.2-.91.37-1.83a3.44 3.44 0 00-.56-2.52 3.32 3.32 0 00-2.17-1.41c-1-.19-1.59-.24-2.12-.29s-1-.1-2-.27-1.44-.3-1.94-.43-1-.27-2.09-.46-1.53-.26-2-.34l-2-.34c-1-.19-1.54-.26-2.05-.34s-1-.15-2-.33-1.49-.28-2-.39-1-.21-2-.39l-4-.72c-1.06-.18-1.6-.23-2.13-.28s-1-.09-2-.26a13.5 13.5 0 01-1.9-.45c-.48-.13-1-.28-1.93-.45l3.37-.22c1.05-.07 1.57-.13 2.09-.18s1-.11 2-.17 1.5-.08 2-.08 1.05 0 2.1-.09a20.93 20.93 0 002.14-.24 16.35 16.35 0 011.95-.23c1-.06 1.54-.1 2.06-.14l2-.14 2-.12 2.06-.12a18.47 18.47 0 012 0h2.14l2.07-.15 2-.15a18.08 18.08 0 002.15-.25 16.62 16.62 0 011.94-.22l4.1-.27a3.26 3.26 0 003.19-3.39c-.06-.89-.08-1.34-.1-1.79s0-.93-.1-1.85a13 13 0 00-.26-2 9.47 9.47 0 01-.23-1.67 10.66 10.66 0 010-1.7 14.26 14.26 0 000-1.94c-.06-.94-.11-1.4-.17-1.87s-.1-.88-.16-1.76-.07-1.32-.08-1.77 0-.93-.07-1.86a3.43 3.43 0 00-1.15-2.31 3.27 3.27 0 00-2.44-.86 19.33 19.33 0 00-2.12.22c-.51.07-1 .14-2 .2a18.64 18.64 0 01-2 0h-2.13l-2.07.15c-.51 0-1 .09-2 .15s-1.56.12-2.07.16l-2 .16c-1 .06-1.52.08-2 .1l-2.08.1-2.92.19a1.27 1.27 0 00.07-.12c.43-.88.68-1.29.94-1.73a19 19 0 001-1.9l3.56-7.42c.46-.94.66-1.42.87-1.91s.4-.92.83-1.83.68-1.35.92-1.79.5-.92 1-1.87a19.3 19.3 0 00.83-2 14.67 14.67 0 01.86-1.68l.88-1.86.88-1.85c.44-.92.67-1.38.89-1.84s.46-.92.91-1.86.67-1.3.93-1.74a19 19 0 001-1.89c.45-.93.67-1.4.88-1.87s.43-.92.88-1.84a18.36 18.36 0 00.83-2 16.78 16.78 0 01.75-1.8l1.78-3.7a3.57 3.57 0 00.25-2.48 3 3 0 00-1.64-2c-.81-.39-1.21-.6-1.61-.8s-.82-.42-1.65-.82a13.26 13.26 0 00-1.84-.72 10.05 10.05 0 01-1.61-.56 13.19 13.19 0 01-1.51-.84 13.32 13.32 0 00-1.69-.95c-.85-.4-1.28-.58-1.72-.76s-.81-.34-1.61-.72-1.18-.59-1.57-.8-.83-.45-1.67-.85a3.42 3.42 0 00-4.52 1.57 21 21 0 00-.85 2c-.19.48-.36.93-.79 1.82s-.67 1.31-.93 1.75-.54.92-1 1.89-.65 1.37-.87 1.89-.42.93-.86 1.84-.67 1.41-.88 1.89-.42.92-.86 1.84-.67 1.36-.9 1.81-.48.93-.93 1.87l-1.78 3.71a19.14 19.14 0 00-.84 2c-.18.47-.35.92-.78 1.81A14.41 14.41 0 0153 80.4a20.46 20.46 0 00-1.87 3.89 16.46 16.46 0 01-.76 1.81c-.44.91-.67 1.36-.9 1.81s-.48.93-.93 1.86-.67 1.34-.91 1.78-.52.92-1 1.88-.67 1.42-.88 1.9-.4.93-.83 1.83a3.44 3.44 0 00-.18 2.54 3.18 3.18 0 001.68 2c.83.4 1.26.58 1.68.77s.82.36 1.63.75 1.28.58 1.71.76.82.34 1.62.72l3.28 1.59L58 107c.41.21.82.43 1.65.82.67.32 1 .52 1.39.7h-1.06a18.37 18.37 0 00-2.17 0 18.12 18.12 0 00-2.14.25 16.9 16.9 0 01-1.94.22c-1 .06-1.52.08-2 .1s-1 0-2.08.11-1.49.07-2 .07-1.06 0-2.11.08-1.57.12-2.09.17-1 .11-2 .17a3.47 3.47 0 00-2.3 1.09 3.27 3.27 0 00-.88 2.42c.06.93.11 1.39.16 1.85s.08.89.14 1.78.12 1.41.17 1.87.11.88.16 1.77l.23 3.63c.06.89.08 1.34.09 1.79s0 .92.1 1.84.07 1.34.08 1.78 0 .93.09 1.86a3.5 3.5 0 00.07.45c-.94-.16-1.45-.24-1.94-.3s-1-.14-2-.32a3.49 3.49 0 00-2.5.51 3.24 3.24 0 00-1.43 2.14c-.16.92-.23 1.38-.29 1.84s-.13.88-.28 1.76-.22 1.39-.28 1.85-.11.89-.26 1.76l-.65 3.58c-.15.88-.24 1.32-.33 1.76s-.19.91-.35 1.81-.25 1.32-.34 1.75-.2.91-.36 1.82a3.15 3.15 0 00.59 2.48 3.42 3.42 0 002.15 1.31 19.63 19.63 0 011.92.43 20.21 20.21 0 002.1.48l8.1 1.43c1 .19 1.56.26 2.08.33s1 .13 2 .3 1.48.29 2 .41 1 .23 2.06.42a20.73 20.73 0 002.15.27 15 15 0 011.94.24l.83.15a2.79 2.79 0 00-.6.89 3 3 0 00-.85-.94 1.57 1.57 0 00-1.69-.1c-.67.39-1 1.25-1.05 2.43a2.08 2.08 0 00-2.28-.41c-2.08.81-1.16 3.77-.72 5.19.35 1.12.78 2.24 1.09 3 .19.47.32.8.38.99zm8.14-65.82c-.41-.21-.82-.42-1.65-.81L54 102.86c-.85-.4-1.28-.59-1.72-.77s-.82-.33-1.61-.72-1.27-.59-1.7-.77-.81-.36-1.62-.75a1.19 1.19 0 01-.63-.75 1.47 1.47 0 01.04-1.1c.45-.94.66-1.42.87-1.9s.4-.93.84-1.84.67-1.34.92-1.77.51-.93 1-1.88.67-1.36.9-1.81.47-.93.92-1.87A17.78 17.78 0 0053 85a18.1 18.1 0 011.69-3.51 17.38 17.38 0 001-1.9 20.78 20.78 0 00.85-2c.18-.47.35-.92.77-1.81l1.78-3.71c.44-.91.67-1.36.9-1.81s.48-.93.93-1.86.67-1.42.88-1.89.42-.93.86-1.84.66-1.41.88-1.88.43-.92.87-1.84.67-1.31.93-1.75.54-.93 1-1.89.66-1.48.85-2 .36-.93.79-1.82a1.41 1.41 0 011.28-.75 1.47 1.47 0 01.58.12c.8.39 1.19.6 1.58.81s.82.44 1.66.84 1.28.59 1.71.77.82.34 1.61.72a10.47 10.47 0 011.49.83 14.51 14.51 0 001.7.94 10.73 10.73 0 001.83.72 10.05 10.05 0 011.57.61l1.61.8c.42.21.83.42 1.66.82a1 1 0 01.57.69 1.58 1.58 0 01-.13 1.08L85 66.21a16.18 16.18 0 00-.83 2A14.68 14.68 0 0183.4 70c-.45.94-.66 1.41-.88 1.87s-.43.93-.87 1.85-.65 1.28-.93 1.74-.55.93-1 1.89-.67 1.39-.9 1.85-.46.92-.9 1.85-.67 1.4-.89 1.87-.43.92-.88 1.85a19.3 19.3 0 00-.83 2 15.38 15.38 0 01-.76 1.8c-.43.91-.67 1.35-.91 1.79s-.5.92-1 1.87-.66 1.43-.87 1.92-.39.92-.83 1.83l-3.56 7.42a16.85 16.85 0 01-.94 1.73c-.27.46-.55.93-1 1.9a1.4 1.4 0 01-.75.71 1.19 1.19 0 01-1 0c-.8-.39-1.2-.6-1.6-.81s-.82-.43-1.65-.83-1.16-.63-1.56-.84zm-18.33 6.94a1.46 1.46 0 011-.46c1-.07 1.57-.12 2.09-.18s1-.1 2-.16 1.5-.07 2-.08 1.06 0 2.11-.07 1.52-.09 2-.11l2.08-.1a18.12 18.12 0 002.14-.25 16.9 16.9 0 011.94-.22h1.96a20 20 0 002.16 0 21.38 21.38 0 002.13-.23 17.66 17.66 0 012-.21l4.11-.27c1-.07 1.51-.08 2-.1s1 0 2.08-.11 1.56-.11 2.07-.16 1-.09 2-.15l2.07-.15c.51 0 1-.09 2-.15s1.48-.06 2 0 1.08 0 2.14 0 1.61-.15 2.13-.22 1-.14 2-.21a1.36 1.36 0 011 .36 1.41 1.41 0 01.48 1c.06.88.07 1.33.07 1.77s0 .93.08 1.86.12 1.4.17 1.87.11.88.17 1.76a13.8 13.8 0 010 1.7 13.86 13.86 0 000 1.94 11.38 11.38 0 00.27 2 10.91 10.91 0 01.23 1.67c0 .9.07 1.35.09 1.8s0 .92.1 1.84a1.28 1.28 0 01-1.32 1.27l-4.1.26a17.58 17.58 0 00-2.14.25 16.35 16.35 0 01-2 .23l-2.06.14-2 .15c-1 .06-1.47.05-2 0s-1.07 0-2.14 0l-2 .12-2.06.12-2.06.15-2 .14a21.21 21.21 0 00-2.15.24 16.12 16.12 0 01-1.94.23c-1 .06-1.5.07-2 .08s-1 0-2.1.08-1.57.12-2.09.18-1 .11-2 .17l-8.21.54c-1 .06-1.46 0-2 0a18.61 18.61 0 00-2.15 0 1.29 1.29 0 01-1.43-1.16c-.06-.89-.07-1.34-.09-1.79s0-.92-.08-1.85-.08-1.34-.1-1.79 0-.92-.09-1.84l-.23-3.63c-.06-.94-.12-1.41-.17-1.87s-.11-.88-.16-1.76-.11-1.39-.15-1.86-.09-.89-.15-1.78a1.25 1.25 0 01.3-1zm13.19 45.49a17 17 0 01-1.94-.24c-1-.18-1.47-.29-2-.4s-1-.24-2.07-.42-1.55-.26-2.07-.33-1-.13-2-.31l-8.1-1.43a16.06 16.06 0 01-1.92-.44c-.52-.14-1.05-.28-2.11-.47a1.45 1.45 0 01-.89-.54 1.16 1.16 0 01-.22-.93c.16-.87.25-1.31.34-1.74s.2-.91.36-1.83.25-1.32.34-1.76.18-.9.34-1.81l.65-3.58c.16-.93.22-1.39.28-1.86s.1-.88.26-1.75.22-1.37.29-1.83.12-.89.28-1.77a1.22 1.22 0 01.56-.81 1.48 1.48 0 011-.22c1 .18 1.54.26 2.06.33s1 .13 2 .31 1.47.29 2 .41 1 .24 2.07.43 1.49.28 2 .38 1 .21 2 .39a18.5 18.5 0 002.15.27 17 17 0 011.94.24 15.57 15.57 0 011.9.45 19.33 19.33 0 002.11.49c1.05.18 1.6.23 2.12.28s1 .09 2 .26l4 .72 2 .38c.51.11 1 .21 2 .4l2.06.34c.5.07 1 .15 2 .32s1.53.27 2 .35 1 .16 2 .34a18.66 18.66 0 011.93.43c.52.13 1 .27 2.1.46s1.59.24 2.12.29a19.14 19.14 0 012 .27 1.32 1.32 0 01.87.58 1.42 1.42 0 01.24 1c-.16.88-.26 1.31-.35 1.74s-.21.91-.37 1.83-.22 1.39-.28 1.86-.1.87-.26 1.74a14 14 0 01-.39 1.66 13.82 13.82 0 00-.46 1.88 12.54 12.54 0 00-.2 2 9.13 9.13 0 01-.17 1.67c-.16.88-.25 1.32-.33 1.76s-.18.91-.35 1.82a1.28 1.28 0 01-1.59.91l-4-.72a19.92 19.92 0 00-2.14-.26 16.74 16.74 0 01-1.94-.24l-2-.35c-.5-.08-1-.16-2-.34s-1.43-.3-1.93-.43a19.88 19.88 0 00-2.04-.47l-2-.4-2-.37-2-.35-2-.35a18.25 18.25 0 00-2.25-.24zm74.5 41.9l2.59-.19h.13a16.25 16.25 0 004.23-1.89 15 15 0 003-2.67l.37-.4c.29-.3.6-.58.91-.87a10.45 10.45 0 002.21-2.53 19.45 19.45 0 001.79-4.51 20.14 20.14 0 00.9-4.79 10 10 0 00-.61-3.29c-.16-.5-.3-1-.4-1.44a20 20 0 00-1.45-4.53c-.14-.28-.27-.56-.4-.84a14.13 14.13 0 00-2-3.38A17.56 17.56 0 00136 165a7 7 0 00-1.06-.6 16.94 16.94 0 00-3.56-1.51 1.09 1.09 0 00-.27-.33 4.53 4.53 0 00.27-2.95 4.61 4.61 0 10-9 2.21 5.31 5.31 0 00.22.6c-4.9 1-9 3.94-10.57 8.07a.88.88 0 000 .48c-.06.11-.13.2-.19.31a20.08 20.08 0 00-2 4.43 20.85 20.85 0 00-.76 4.82 13 13 0 00.56 3.56c.1.41.21.81.29 1.22a18.91 18.91 0 001.66 4.47 17.79 17.79 0 002.66 4l.27.31a15.24 15.24 0 003.15 3 16.61 16.61 0 004.19 1.91c.24.08.49.14.74.2l2.22-.09zm-9.5-4.19a13.35 13.35 0 01-2.74-2.68l-.27-.32a15.79 15.79 0 01-2.38-3.51 17.66 17.66 0 01-1.5-4c-.09-.43-.2-.86-.31-1.29a11 11 0 01-.5-3 19 19 0 01.69-4.35 18.62 18.62 0 011.8-4v-.07a14.85 14.85 0 004.3.94h1.07c4.94 0 9.22-2.32 11.24-5.82 1.53 3.63 5.37 6.48 10.16 7.19h.15a.7.7 0 00.14 0 20.09 20.09 0 01.8 2.89c.12.55.28 1.09.44 1.62a8.21 8.21 0 01.53 2.65 19 19 0 01-.83 4.31A17.44 17.44 0 01140 190a9.16 9.16 0 01-1.82 2c-.35.31-.69.63-1 1l-.37.4a13.2 13.2 0 01-2.62 2.34 14.5 14.5 0 01-3.72 1.67 12.9 12.9 0 01-3.66.25h-.38a13.75 13.75 0 01-4-.6 14.72 14.72 0 01-3.68-1.66z"/><path class="cls-2" d="M203.44 193.05l.57-3.75.15-3.86-.56-3.76-1.28-3.59-.43-3.6-1.49-3.64-2.34-7.01-1.55-3.49-1.56-3.26-1.3-3.48-2.48-3.79-4.1 1.25-3.51.94-4.37 1.7 1.59 4.11 2.13 3.06 1.28 3.1.83 3.4 1.72 3.32 1.13 3.17.4 3.45 1.1 3.49.33 3.32-.5 3.32-.78 3.26-1.75 2.75-2.53 2.23-3.38 1.57-2.59 2.58-3.28 1.19-3.14 2.25-3 1.95-3.21 1.4-3.43 1.3-3.31 1.35-3.38 1.15-3.46.98-3.43.87-3.22.39-4.06-1.66-1.47-3.13-.86-3.57.78-4.62-4.49.07-3.49-.42-.88.06-2.59.19-3.46-.5-2.22.1-1.37.05-3.38.2-4.89-.7 1.14 4.72-.22 3.25-.3 3.28-.69 2.93-2.28 1.79-3.08.92-3.37.29-3.48.23-3.48.72-3.31-.13-3.6-.4-3.46.43-3.26-.88-3.35-.79-3.25-.95-2.95-1.54-2.67-1.79-1.71-2.67-1.42-3.18-1.29-3.32-.73-3.38-.4-3.6-.33-3.62-.84-3.57.14-3.59-.31-3.72-.45-3.54.13-4.42-4.21.24-3.17.27-3.18.75-4.1.23.31 4.5.08 3.57.56 3.72.77 3.4.49 3.55 1.16 6.98.45 3.54.98 3.5.68 3.52 1.81 3.39 1.11 3.34 1.37 3.29 2.13 3.31 2.95 2.28 1.23-1.58-2.69-2.07-1.81-2.79-1.3-3.14-1.13-3.36-1.73-3.21-.68-3.44-.94-3.36-.45-3.52-1.17-6.98-.5-3.6-.76-3.42-.53-3.46-.09-3.55-.17-2.52 2.18-.12 3.22-.76 3.07-.27 1.99-.11-.07 2.39.47 3.66.29 3.56-.14 3.73.86 3.63.32 3.57.43 3.72.76 3.56 1.39 3.59 1.47 3.3 2.04 3.21 3.06 2.05 3.18 1.67 3.58 1.07 3.37.78 3.6.98 3.63-.45 3.43.38 3.63.15 3.51-.73 3.43-.23 3.49-.3 3.74-1.1 3.14-2.45.87-3.69.32-3.51.25-3.58-.52-2.15 2.16.31 3.58-.21 3.38-.14 3.49.5 3.49-.25 3.43.41 2.23-.03-.45 2.66.99 4.05 1.9 4.13 5.26 2.15 3.81-.46 3.64-.92 3.53-1 3.49-1.19 3.34-1.36 3.45-1.3 3.34-1.46 3.25-2.1 2.83-2.07 3.56-1.29 2.65-2.64 3.2-1.49 2.98-2.57 2.19-3.37.87-3.67.56-3.65-.38-3.68-1.1-3.51-.39-3.46-1.25-3.57-1.67-3.18-.82-3.35-1.4-3.42-2.11-3.03-.82-2.13 2.35-.92 3.49-.93 2.7-.83 1.5 2.25 1.29 3.45 1.58 3.32 1.49 3.33 2.35 7.04 1.39 3.31.43 3.57 1.28 3.64.52 3.48-.12 3.49-.52 3.38-1.56 3.04-1.77 3.06-2.1 2.9-2.45 2.49-2.74 2.33-2.98 2.22-2.69 2.32-3.13 1.71-3.08 2.1-3.08 2.03-2.9 2.12-3.12 1.76-2.87 2.47-2.95 2.12 1.17 1.63 3.02-2.18 2.7-2.35 3.09-1.74 3-2.19 3.06-2.01 2.96-2.03 3.18-1.73 2.89-2.47 2.97-2.22 2.85-2.42 2.58-2.61 2.29-3.16 1.85-3.19 1.74-3.38z"/><path d="M128 180.6a1 1 0 002 0 3.24 3.24 0 00-6.47 0 1 1 0 102 0 1.24 1.24 0 012.47 0z"/><path class="cls-2" d="M35.86 141.11l3 .55a1.06 1.06 0 001.22-.84l.54-3a1 1 0 00-.85-1.2l-3.01-.62a1 1 0 00-1.21.83c-.28 1.53-.27 1.53-.54 3.06a1 1 0 00.85 1.22z"/><path d="M37.59 143.64c-.48-.11-1-.22-1.93-.39l-.36 2c.93.17 1.39.28 1.86.38s1 .22 1.93.4l1.93.32c.48.08.95.15 1.89.32s1.45.25 1.94.32.94.13 1.87.3l3.8.7 1.88.36 1.91.37c.94.17 1.41.27 1.87.36s1 .2 1.92.38 1.46.24 1.95.31.94.13 1.86.3 1.35.28 1.82.4 1 .26 2 .44l7.59 1.38c1 .17 1.45.25 1.94.32s.94.14 1.87.31l.36-2c-1-.18-1.45-.25-1.94-.32s-.94-.14-1.87-.31l-7.59-1.38c-.92-.17-1.36-.28-1.82-.4s-1-.25-2-.43-1.45-.25-1.94-.32-.94-.13-1.87-.3-1.4-.27-1.87-.36-1-.2-1.92-.38l-1.88-.36-1.91-.36-3.8-.69c-1-.18-1.46-.25-1.95-.32s-.93-.14-1.86-.31-1.45-.25-1.94-.32l-1.88-.36c-.93-.15-1.39-.26-1.86-.36zM60.63 155c.52.06 1 .11 2 .29l2.07.36 2 .35c1 .18 1.5.3 2 .41s1.05.25 2.1.44l.35-2c-1-.18-1.49-.3-2-.41s-1-.25-2.1-.44l-2.05-.34-2-.35c-1.06-.19-1.6-.25-2.13-.31s-1-.11-2-.28l-4.13-.72c-1-.18-1.44-.31-1.94-.44a17.75 17.75 0 00-2.13-.49l-4.1-.73c-1.07-.19-1.61-.25-2.14-.31s-1-.11-2-.29l-2-.37-2.1-.37c-1-.17-1.49-.29-2-.4s-1-.25-2.09-.43l-.35 2c1 .18 1.49.3 2 .41s1 .25 2.09.43l2 .38c.51.1 1 .2 2.06.38s1.61.25 2.13.31 1 .11 2 .29l4.1.73a16.13 16.13 0 011.94.44 18.24 18.24 0 002.13.49l4.11.73c1.11.12 1.66.18 2.18.24zm-12.52-12.67c1 .18 1.51.29 2 .4s1 .23 2.08.41 1.53.28 2 .38l2.07.39c1.06.18 1.6.24 2.13.3s1 .11 2 .29 1.47.3 2 .42 1 .26 2.1.45 1.59.25 2.12.32 1 .12 2 .3l4.11.72 2 .39c.51.1 1 .2 2.07.38s1.55.27 2.07.36 1 .16 2 .34l.35-2-2.07-.35-2-.34-2-.39c-.52-.1-1-.2-2.07-.38L69 144c-1.06-.19-1.59-.25-2.12-.32s-1-.12-2-.3-1.46-.29-2-.42-1-.26-2.11-.45-1.6-.25-2.13-.31-1-.11-2-.28-1.53-.28-2-.38l-2.07-.39c-1-.18-1.51-.29-2-.39s-1-.23-2.08-.42-1.56-.26-2.09-.34-1-.15-2-.33l-.35 2c1 .18 1.56.26 2.08.34s.96.14 1.98.32z"/><path class="cls-2" d="M44 119.25l3.1-.19a1.06 1.06 0 001-1.11l-.2-3.09a1 1 0 00-1.11-1l-3.1.19a1 1 0 00-1 1.1c.1 1.55.11 1.55.21 3.1a1 1 0 001.1 1z"/><path d="M44.34 121.37l.12 2c.94-.06 1.42-.07 1.89-.08s1 0 2-.07 1.46-.1 2-.15.95-.08 1.9-.13 1.48-.11 2-.16.94-.09 1.89-.15l3.85-.23 1.9-.09c.49 0 1 0 2-.1s1.42-.08 1.9-.09l1.81-.12c1-.06 1.48-.11 2-.16s.94-.1 1.88-.16 1.38 0 1.86 0h2l7.7-.47c1-.06 1.47-.1 2-.15s.94-.09 1.89-.15l-.12-2c-1 .06-1.47.1-2 .15s-.94.09-1.89.14l-7.7.47a18.51 18.51 0 01-1.86 0h-2c-1 0-1.47.11-2 .16s-.94.09-1.88.15-1.42.07-1.9.09-1 0-1.95.09-1.44.08-1.92.1-1 0-1.94.1l-3.85.22c-1 .06-1.48.11-2 .16s-.94.09-1.89.15l-2 .14-1.9.14c-1 .06-1.42.07-1.9.07s-.9.07-1.89.13zm35.24 2.91c-.53 0-1.07 0-2.14.07l-2.09.15c-.52 0-1 .08-2.08.14s-1.62.14-2.14.21-1 .14-2 .2l-4.17.27a15.44 15.44 0 01-2 0 17 17 0 00-2.18 0l-4.16.26c-1.08.07-1.62.14-2.15.21s-1 .14-2 .2l-2.06.12-2.1.12c-1 .06-1.52.07-2 .08s-1.07 0-2.14.08l.13 2c1-.06 1.52-.07 2-.07s1.07 0 2.14-.08 1.55-.1 2.06-.12l2.1-.12c1.08-.07 1.62-.14 2.15-.21s1-.14 2-.2l4.16-.27a17.55 17.55 0 012 0 18.55 18.55 0 002.18 0l4.17-.27c1.07-.07 1.62-.14 2.14-.21s1-.14 2-.2l2.1-.15 2.07-.14c1-.07 1.52-.07 2-.07s1.07 0 2.15-.08l-.13-2c-.99.07-1.5.07-2.01.08zm-25.42-6.6c.51 0 1-.09 2.05-.16s1.53-.08 2-.09 1.06 0 2.12-.1l2.06-.11c.53 0 1.06 0 2.1-.12s1.62-.14 2.15-.21 1-.13 2-.2 1.5-.06 2-.06 1.08 0 2.16-.06 1.6-.13 2.13-.2 1-.12 2-.19l4.17-.27 2.06-.11c.53 0 1.06 0 2.11-.12s1.58-.11 2.1-.15l2.07-.15-.13-2c-1.05.07-1.58.11-2.1.16l-2.07.15-2.07.11c-.52 0-1 0-2.1.12l-4.17.27c-1.06.07-1.6.13-2.13.2s-1 .12-2 .18a20 20 0 01-2 .06c-.53 0-1.08 0-2.15.07s-1.62.14-2.15.21-1 .13-2 .19-1.55.1-2.07.12-1.05 0-2.1.12-1.53.08-2 .09-1.06 0-2.12.1-1.58.11-2.1.16-1 .09-2.06.16l.13 2c1.06-.07 1.58-.12 2.11-.17z"/><path class="cls-2" d="M55.4 95.35L52.6 94a1 1 0 00-1.38.51c-.67 1.4-.68 1.39-1.35 2.79a1 1 0 00.48 1.4c1.4.67 1.4.66 2.8 1.34a1 1 0 001.38-.5c.67-1.4.68-1.39 1.35-2.79a1 1 0 00-.48-1.4z"/><path d="M61.74 94.23c.43-.88.63-1.33.83-1.78s.39-.87.8-1.72l1.7-3.47c.42-.87.63-1.3.85-1.73s.44-.86.86-1.73.64-1.28.85-1.71.45-.86.88-1.74.63-1.34.82-1.79.39-.87.8-1.72.64-1.24.87-1.65.5-.87.94-1.76l3.37-7c.43-.88.63-1.33.83-1.77s.39-.87.8-1.72l-1.8-.88c-.43.88-.63 1.33-.83 1.78s-.39.87-.8 1.72l-3.37 6.94c-.41.84-.64 1.24-.87 1.65s-.5.87-.94 1.77-.63 1.33-.83 1.79-.38.86-.79 1.71-.64 1.28-.85 1.71-.45.87-.88 1.74-.63 1.28-.84 1.71-.44.87-.87 1.75l-1.7 3.47c-.43.89-.63 1.34-.83 1.79s-.38.86-.8 1.72-.63 1.32-.83 1.76-.4.87-.82 1.74-.64 1.27-.86 1.69-.46.87-.89 1.76l1.79.87c.42-.85.64-1.27.86-1.69s.47-.87.9-1.76.64-1.33.84-1.78.4-.81.81-1.67zM63.6 102c.25-.47.51-.94 1-1.9s.68-1.4.91-1.87.47-.94.92-1.88.67-1.47.87-2 .39-.93.82-1.85l1.81-3.76c.44-.89.68-1.31.95-1.76a21.38 21.38 0 001-1.91l1.8-3.76c.47-1 .67-1.47.87-2s.39-.94.82-1.85.68-1.42.9-1.89.45-.94.9-1.88.68-1.37.93-1.82.51-.94 1-1.9l-1.8-.87c-.44.92-.68 1.37-.93 1.81s-.51.95-1 1.91-.68 1.42-.91 1.9-.44.94-.89 1.87-.67 1.47-.87 2-.38.94-.82 1.85l-1.8 3.76c-.44.9-.69 1.32-1 1.76s-.56.94-1 1.92l-1.81 3.76c-.46 1-.67 1.46-.87 2s-.38.94-.82 1.85-.68 1.4-.91 1.86-.47.94-.92 1.89-.69 1.37-.93 1.82-.51.93-1 1.89l1.8.87c.49-.89.74-1.33.98-1.82zm-5.47-12.06c.21-.47.43-.94.87-1.87s.68-1.38.92-1.83.49-.94.95-1.9.68-1.39.91-1.86.47-.94.93-1.88.67-1.47.87-2 .38-.94.82-1.86.69-1.35.94-1.79.52-.94 1-1.91.67-1.46.87-2 .4-.94.84-1.85l1.8-3.76c.45-.93.68-1.4.91-1.86s.48-.94.93-1.9.68-1.43.91-1.91.43-.94.88-1.87l-1.81-.86c-.45.94-.67 1.42-.89 1.89s-.44 1-.89 1.89-.68 1.4-.91 1.86-.48.94-.93 1.89l-1.81 3.76c-.46 1-.66 1.46-.87 2s-.4.94-.84 1.86-.68 1.35-.93 1.79-.52.94-1 1.91-.67 1.46-.87 2-.39.94-.82 1.85-.68 1.4-.91 1.86-.47.94-.93 1.89-.68 1.38-.92 1.83-.49.94-.95 1.9-.67 1.43-.89 1.91-.43.94-.87 1.87l1.8.86c.46-.95.67-1.43.89-1.91z"/><path class="cls-2" d="M158.39 130.59c-.43-1.49-.43-1.49-.85-3a1 1 0 00-1.29-.7l-3 .84a1 1 0 00-.72 1.28c.42 1.49.43 1.49.86 3a1 1 0 001.28.7l3-.84a1 1 0 00.72-1.28z"/><path d="M194.36 123.84c-.45.14-.9.29-1.81.54l-7.4 2.09c-.9.25-1.34.34-1.81.44s-1 .2-1.94.47-1.41.42-1.88.57-.9.29-1.81.55l-1.83.49c-.47.12-.94.24-1.88.51l-1.84.5c-.47.12-.94.24-1.88.51l-3.71 1c-.94.27-1.41.42-1.88.57s-.9.29-1.81.55-1.4.4-1.87.55-.91.28-1.83.54-1.37.36-1.83.47-1 .23-1.9.5l.54 1.92c.91-.25 1.37-.36 1.83-.47s1-.23 1.9-.5 1.41-.41 1.88-.55.91-.28 1.82-.54 1.42-.41 1.88-.56.9-.29 1.81-.55l3.71-1c.92-.26 1.38-.38 1.85-.5l1.87-.51c.91-.26 1.37-.37 1.84-.49s.94-.24 1.88-.51 1.41-.41 1.88-.57.89-.29 1.8-.54 1.34-.35 1.81-.44 1-.2 1.94-.47l7.4-2.09c.95-.27 1.41-.41 1.88-.56s.9-.29 1.81-.55l-.54-1.92c-.94.25-1.41.4-1.88.55zm-3.95 6.23c-.53.12-1 .24-2.08.53l-2 .59-2 .58c-1 .29-1.54.48-2 .66s-.95.34-1.92.61l-4 1.15c-1 .27-1.43.36-1.93.46a17 17 0 00-2.12.49l-4 1.15c-1 .29-1.55.48-2 .65s-.95.35-1.92.62-1.49.42-2 .56-1 .27-2 .56-1.47.39-2 .51-1 .24-2.07.53l.55 1.92c1-.28 1.47-.39 2-.51s1-.24 2.06-.53l2-.55 2-.56c1-.3 1.54-.48 2-.66s1-.34 1.92-.62l4-1.14a18 18 0 011.93-.46 19.69 19.69 0 002.12-.5l4-1.14c1-.3 1.55-.48 2-.66s.95-.34 1.92-.62l2-.58 2-.58c1-.28 1.48-.4 2-.51s1-.24 2.07-.53l-.55-1.92c-.99.27-1.49.43-1.98.5zm-8.73-8c-1 .27-1.45.37-2 .48s-1.05.23-2.08.52-1.55.48-2 .66-.95.34-1.92.62l-2 .55-2 .56c-1 .28-1.48.4-2 .53s-1 .25-2 .54-1.51.45-2 .61l-2 .59.55 1.92c1-.29 1.51-.45 2-.61s1-.3 2-.58 1.48-.41 2-.53 1-.26 2-.55l2-.55c.5-.13 1-.27 2-.56s1.54-.48 2-.65.95-.35 1.92-.62 1.45-.38 1.95-.49 1.06-.23 2.09-.52 1.53-.47 2-.65 1-.33 1.94-.61l4-1.14c1-.29 1.49-.42 2-.55s1-.27 2-.56l2-.6c.49-.15 1-.3 2-.58l-.55-1.92-2 .59c-.49.15-1 .3-2 .58s-1.49.42-2 .56l-2 .55-4 1.15c-1 .29-1.53.47-2 .65s-.93.33-1.9.61z"/><path class="cls-2" d="M136.75 103a1 1 0 001-1v-3.09a1 1 0 00-1.05-1h-3.1a1.06 1.06 0 00-1 1.05v3.09a1 1 0 001.05 1c1.55-.05 1.55-.05 3.1-.05z"/><path d="M174.26 105h-9.59c-.93 0-1.38 0-1.85-.06s-1-.07-2-.07h-27.1v2h27.04c.94 0 1.38 0 1.85.06s1 .07 2 .07h11.59v-2c-.96-.07-1.45 0-1.94 0zm-5.47 4.92h-6.31c-1.07 0-1.62.06-2.15.1s-1 .07-2 .08h-4.16c-1 0-1.47 0-2-.08A18.42 18.42 0 00150 110h-4.16c-1.07 0-1.62 0-2.15.09s-1 .08-2 .09-1.55 0-2.06 0h-6.24v2h8.29c1.09 0 1.62 0 2.15-.1s1-.07 2-.08h4.16a16.08 16.08 0 012 .08 18.66 18.66 0 002.18.09h4.16c1.07 0 1.62-.05 2.15-.09s1-.08 2-.09h8.31v-2c-.99.01-1.5.01-2-.07zm2.03-10.23h-4.16c-1.07 0-1.6 0-2.14.08s-1 .07-2 .08-1.49 0-2 0-1.07-.07-2.15-.06-1.62 0-2.15.1-1 .07-2 .08-1.54 0-2.06 0h-10.44v2h12.39c1.05 0 1.62 0 2.15-.09s1-.08 2-.09 1.49 0 2 0 1.07.07 2.15.06 1.6 0 2.13-.08 1-.07 2-.08h12.49v-2h-6.23z"/><path d="M122 80.54a15.9 15.9 0 011.86.63 20.47 20.47 0 002 .68l7.9 2.24c1 .29 1.51.41 2 .53s1 .23 1.94.5 1.44.44 1.91.6 1 .34 2 .63a20.26 20.26 0 002.1.48 16 16 0 011.9.43l2 .55 2 .55 2 .57c.49.15 1 .3 2 .58a19.61 19.61 0 011.86.62c.49.18 1 .38 2 .67l2 .55c.5.13 1 .26 2 .54a16.39 16.39 0 002.1.48 15.69 15.69 0 011.9.44l.67.19h-9.88c-1.07 0-1.61.06-2.13.1a19 19 0 01-2 .11 15.19 15.19 0 01-2-.09c-.53 0-1.08-.09-2.15-.09a18.11 18.11 0 00-2.15.13 17.73 17.73 0 01-2 .12h-6.07c-.5 0-1-.05-2.1 0s-1.57 0-2.09.06-1 0-2 0a3.43 3.43 0 00-2.35 1 3.23 3.23 0 00-1 2.37c0 .92 0 1.39.05 1.85s0 .89.05 1.78 0 1.41.07 1.87 0 .89.06 1.77v10.88a3.19 3.19 0 001 2.32 3.39 3.39 0 002.31.89c1 0 1.46 0 2 .07s1 .08 1.84.08h.31l8.21-.09c1 0 1.56 0 2.08-.06s1 0 2-.06 1.5 0 2 0h2.1a18 18 0 002.15-.13 18.36 18.36 0 011.95-.11h8.16c1 0 1.46 0 2 .06s1.07.08 2.13.07h3.06-.1a19.06 19.06 0 01-1.87.62 13.83 13.83 0 01-1.89.43 18.41 18.41 0 00-2.11.48c-1 .3-1.54.51-2 .7a14.89 14.89 0 01-1.84.64c-1 .28-1.46.4-2 .53s-1 .26-2 .54-1.45.38-1.93.49-1 .23-2.05.52-1.49.45-2 .62-1 .31-1.92.59a3.4 3.4 0 00-2 1.55 3.19 3.19 0 00-.35 2.55c.26.89.4 1.33.54 1.77s.28.85.53 1.7.41 1.35.56 1.79.29.83.53 1.68l1 3.49c.25.86.36 1.29.47 1.73s.23.89.49 1.77.35 1.29.45 1.72.23.9.48 1.79a3.21 3.21 0 001.61 2 3.43 3.43 0 001.54.37 3.54 3.54 0 001-.14 16.73 16.73 0 011.91-.45c.52-.1 1.06-.2 2.09-.49l7.89-2.27c1-.29 1.51-.45 2-.62s.95-.32 1.92-.59 1.45-.39 1.94-.5 1-.24 2-.53a17 17 0 002-.67 5.09 5.09 0 00.2 1.52c.1.37.2.73.31 1.09a2.33 2.33 0 00-1.94-.33c-.49.19-1.07.7-1 2a8 8 0 001.44 3.65 13 13 0 01.84 1.57 1 1 0 00.93.63.92.92 0 00.36-.07 1 1 0 00.57-1.29 13 13 0 00-1-1.87 7 7 0 01-1.15-2.61 11.57 11.57 0 012.17 1.92 1 1 0 001.23.22 1 1 0 00.49-1.14c-.2-.74-.43-1.48-.66-2.21s-.45-1.43-.64-2.15a3 3 0 01-.14-1.08.36.36 0 01.21-.25.23.23 0 01.23 0c.26.13.95.74 1.68 3.6a.64.64 0 000 .07 1 1 0 001.93-.53c0-.06 0-.12-.05-.17a13.29 13.29 0 010-3.53 21 21 0 011.07 3.12c.13.45.2.72.27.91 0 0 0 .08.05.13a1 1 0 001.83-.82 3.75 3.75 0 01.54-2.51c.16 0 .6.64.59 2.55a28.1 28.1 0 01-.25 3c-.06.53-.11 1-.12 1.2a1 1 0 001 1 1 1 0 001-1c0-.21.05-.56.11-1a30.85 30.85 0 00.26-3.24c0-3.79-1.51-4.49-2.43-4.56a2 2 0 00-1.84.93 7.07 7.07 0 00-.58-1.11l.35-.1c.5-.14 1-.27 2-.56a16.73 16.73 0 011.91-.45c.51-.1 1-.21 2.08-.5l2-.58c.49-.15 1-.3 1.95-.58a17.25 17.25 0 002-.7 13.67 13.67 0 011.84-.63l3.93-1.13a3.56 3.56 0 002-1.46 3 3 0 00.38-2.52c-.25-.86-.36-1.3-.48-1.73s-.23-.89-.48-1.77a11.34 11.34 0 00-.68-1.85 9.88 9.88 0 01-.58-1.57 11.5 11.5 0 01-.37-1.66 15.47 15.47 0 00-.42-1.89c-.26-.9-.41-1.35-.57-1.79s-.29-.83-.53-1.67-.34-1.28-.45-1.71-.21-.91-.47-1.8a3.42 3.42 0 00-4.17-2.34c-1 .29-1.53.49-2 .67s-.93.35-1.88.62-1.42.36-1.92.46-1 .21-2.07.51-1.5.43-2 .59l-1.94.57-1.2.35v-3.47a12.7 12.7 0 00-.15-2 9.65 9.65 0 01-.14-1.67 13.4 13.4 0 01.08-1.7 16.1 16.1 0 00.1-1.93c0-.94 0-1.4-.07-1.87s-.06-.88-.07-1.76 0-1.33 0-1.77V96.1a3.43 3.43 0 00-3.37-3.36c-1.06 0-1.6.06-2.13.11s-1 .08-2 .09a19.62 19.62 0 01-2-.06c-.46 0-1-.06-1.77-.06a3.06 3.06 0 00.55-1.06c.25-.87.38-1.29.51-1.72s.27-.88.53-1.77a11.7 11.7 0 00.39-1.93 10.14 10.14 0 01.34-1.64 12.31 12.31 0 01.56-1.6 12.65 12.65 0 00.64-1.83c.26-.9.36-1.36.46-1.81s.19-.86.43-1.71.39-1.27.53-1.69.29-.88.55-1.77a3.38 3.38 0 00-.31-2.56 3.33 3.33 0 00-2-1.63c-1-.29-1.56-.4-2.08-.5s-1-.19-1.92-.46a19.06 19.06 0 01-1.87-.62c-.5-.18-1-.38-2-.67l-2-.55-2-.53-1.36-.38a17.39 17.39 0 001.88-.55l7.77-2.65c1-.34 1.47-.53 2-.72s.94-.37 1.89-.69 1.42-.46 1.9-.6 1-.29 2-.63a15.17 15.17 0 002-.8 18.06 18.06 0 011.81-.72l2-.68 1.91-.66 1.94-.65 1.95-.65a18.09 18.09 0 011.89-.55c.51-.13 1-.26 2-.6l2-.69c.47-.17.95-.34 1.91-.66a16.37 16.37 0 002-.81 15.89 15.89 0 011.81-.72l3.87-1.32a3.25 3.25 0 002.2-4.09c-.29-.85-.43-1.28-.56-1.71s-.28-.88-.58-1.74a11 11 0 00-.77-1.81 9.74 9.74 0 01-.66-1.54 14.15 14.15 0 01-.45-1.64 14.36 14.36 0 00-.51-1.87c-.3-.89-.48-1.32-.65-1.76s-.34-.81-.62-1.64-.41-1.26-.53-1.68-.26-.9-.56-1.78a3.42 3.42 0 00-4.28-2.13c-1 .35-1.51.57-2 .77a19.34 19.34 0 01-1.84.72c-.94.31-1.4.43-1.9.56a20.75 20.75 0 00-2 .6c-1 .33-1.46.51-2 .69l-1.92.67c-1 .33-1.47.51-1.95.69s-1 .35-1.91.68-1.44.47-1.92.62-1 .31-2 .65l-3.88 1.32c-1 .35-1.51.57-2 .78a18.91 18.91 0 01-1.83.72 15.69 15.69 0 01-1.87.52 17.73 17.73 0 00-2.08.59 16.74 16.74 0 00-2 .8 15.89 15.89 0 01-1.81.72c-1 .33-1.45.48-1.93.63s-1 .31-2 .64-1.42.46-1.9.59-1 .28-2 .62-1.47.52-2 .71-.94.36-1.89.69a3.41 3.41 0 00-1.93 1.65 3.18 3.18 0 00-.22 2.56c.3.88.47 1.31.63 1.75s.32.83.61 1.67.47 1.32.65 1.75.33.82.61 1.66l1.17 3.43c.28.84.42 1.27.55 1.7s.28.88.58 1.75.41 1.27.54 1.69.22.73.41 1.31h-.08l-3.95-1.12c-1-.29-1.56-.4-2.08-.5a17.24 17.24 0 01-1.91-.45 16.67 16.67 0 01-1.84-.63 16 16 0 00-2-.7 19.5 19.5 0 00-2.1-.49 13.57 13.57 0 01-1.9-.43l-1.94-.58c-.49-.15-1-.31-2-.59s-1.43-.44-1.9-.6-1-.35-2-.64-1.51-.41-2-.53-1-.24-2-.51a3.33 3.33 0 00-4.07 2.22c-.26.9-.37 1.35-.48 1.8s-.21.86-.45 1.72-.36 1.36-.47 1.81-.19.86-.43 1.71l-1 3.49c-.25.86-.38 1.29-.51 1.72s-.28.87-.53 1.76-.38 1.28-.51 1.7-.29.88-.54 1.77a3.26 3.26 0 002.35 4.06zm64.13 35.17c1-.28 1.49-.43 2-.58s1-.3 2-.58a17.31 17.31 0 011.91-.46c.52-.11 1-.21 2.08-.51a19.77 19.77 0 002-.67c.47-.18.93-.35 1.87-.62a1.27 1.27 0 01.34 0 1.46 1.46 0 011.36 1c.24.85.35 1.28.45 1.71s.21.9.47 1.8.41 1.34.56 1.78.29.83.54 1.68a10.82 10.82 0 01.36 1.65 14.22 14.22 0 00.43 1.9 9.82 9.82 0 00.68 1.84 10.77 10.77 0 01.58 1.58c.24.86.36 1.29.47 1.73s.23.89.49 1.77a1.29 1.29 0 01-1 1.51l-3.93 1.12a17.37 17.37 0 00-2 .71 16.67 16.67 0 01-1.84.63l-2 .58c-.49.15-1 .3-1.95.58a17.78 17.78 0 01-1.91.45c-.52.1-1.06.21-2.08.5l-2 .55c-.49.14-1 .27-2 .56l-2 .57-2 .58a19.89 19.89 0 00-2 .69 15.54 15.54 0 01-1.84.64c-1 .27-1.45.39-1.94.5s-1 .24-2 .52-1.5.46-2 .62-.95.32-1.92.6l-7.89 2.26a16.73 16.73 0 01-1.91.45 19.58 19.58 0 00-2.09.5 1.4 1.4 0 01-1-.09 1.18 1.18 0 01-.61-.73c-.24-.86-.35-1.29-.45-1.72s-.23-.9-.48-1.79-.36-1.29-.47-1.73-.23-.89-.49-1.77l-1-3.49c-.25-.9-.41-1.34-.56-1.79s-.29-.83-.53-1.68-.4-1.33-.54-1.77-.28-.85-.53-1.7a1.26 1.26 0 01.14-1 1.5 1.5 0 01.85-.65c1-.29 1.5-.45 2-.61s1-.32 1.91-.59 1.45-.39 1.93-.49 1-.24 2.05-.53l1.95-.53c.5-.13 1-.25 2-.54a17.81 17.81 0 002-.7 16.67 16.67 0 011.84-.63 16.13 16.13 0 011.9-.44 16.83 16.83 0 002.11-.48 21 21 0 002-.68 18.65 18.65 0 011.86-.62l3.94-1.13 1.6-.44H181a3.51 3.51 0 002.44-1c.27-.08.51-.15.73-.23.49-.16.97-.3 1.94-.59zM176.68 95c1.06 0 1.6-.06 2.13-.1a19.34 19.34 0 012-.1 1.43 1.43 0 011.38 1.38v3.63c0 .93 0 1.4.07 1.87s.06.87.07 1.76a13.07 13.07 0 01-.09 1.7 14.41 14.41 0 00-.09 1.93 12.24 12.24 0 00.16 2 10 10 0 01.13 1.68v3.63a1.16 1.16 0 01-.1.47l-.62.18c-1 .28-1.47.4-1.95.52h-2.81a17.75 17.75 0 00-2.14.13 18.1 18.1 0 01-2 .12h-4.06a19.4 19.4 0 01-2-.06c-.52 0-1.06-.07-2.13-.07h-8.16a20.87 20.87 0 00-2.14.12 15.84 15.84 0 01-2 .12h-4.1c-1.1 0-1.57 0-2.09.06s-1 0-2 .06l-8.21.09a18.83 18.83 0 01-2-.07c-.47 0-1-.08-1.83-.08h-.31a1.32 1.32 0 01-1-.36 1.17 1.17 0 01-.39-.87v-10.88c0-.94 0-1.4-.07-1.87s-.05-.88-.06-1.77 0-1.39-.05-1.85 0-.89-.05-1.78a1.24 1.24 0 01.39-.9 1.49 1.49 0 011-.41h2.08c.52 0 1 0 2-.06s1.49 0 2 0h6.18a18 18 0 002.15-.13 15.51 15.51 0 011.95-.12 17 17 0 011.95.09 18 18 0 002.15.09c1.07 0 1.61-.07 2.13-.11a16.9 16.9 0 012-.1h16.31a19.28 19.28 0 012 .06h2.22zm-21.6-40.93c-.31-.89-.48-1.32-.66-1.76s-.33-.81-.61-1.65-.46-1.31-.63-1.74-.32-.83-.61-1.68a1.22 1.22 0 01.1-1 1.45 1.45 0 01.81-.69c1-.34 1.47-.52 2-.71s.94-.36 1.89-.69 1.42-.45 1.9-.58 1-.28 2-.62 1.43-.48 1.92-.63 1-.31 2-.65a15.17 15.17 0 002-.8 15.89 15.89 0 011.81-.72 16.22 16.22 0 011.87-.53 15.49 15.49 0 002.08-.58c1-.35 1.51-.57 2-.78a17.89 17.89 0 011.83-.72l3.88-1.32c.95-.33 1.44-.48 1.92-.63s1-.3 2-.64 1.47-.51 2-.69.95-.35 1.91-.68 1.46-.51 1.95-.68l1.92-.68c.93-.31 1.4-.43 1.89-.55s1-.27 2.05-.61a20.91 20.91 0 002-.77c.47-.2.91-.39 1.84-.71a1.09 1.09 0 01.4-.07 1.45 1.45 0 011.35.95c.28.83.41 1.26.53 1.68s.26.9.56 1.78.48 1.31.65 1.75.33.81.62 1.65a12.35 12.35 0 01.45 1.64 14.32 14.32 0 00.51 1.86 12 12 0 00.77 1.81 10.18 10.18 0 01.66 1.54c.29.85.42 1.28.56 1.7s.28.88.58 1.76a1.28 1.28 0 01-1 1.55l-3.88 1.32a16.37 16.37 0 00-2 .81 15.89 15.89 0 01-1.9.69c-1 .33-1.45.51-1.93.68l-1.94.67a17.39 17.39 0 01-1.88.55c-.51.13-1 .26-2 .6l-1.93.65-2 .66-1.94.67-1.93.67a20 20 0 00-2 .8 14.47 14.47 0 01-1.81.72c-.94.32-1.42.46-1.91.6s-1 .29-2 .63-1.48.52-2 .71-.93.37-1.88.69L164.1 64c-.93.31-1.39.42-1.88.54a20.73 20.73 0 00-2.07.6 1.28 1.28 0 01-1.67-.74c-.29-.84-.42-1.27-.55-1.69s-.26-.89-.56-1.77-.43-1.27-.56-1.7-.27-.88-.57-1.74zm-33.51 23c.24-.86.38-1.28.52-1.71s.28-.88.54-1.77.37-1.28.51-1.71.27-.88.52-1.76l1-3.49c.26-.9.36-1.36.46-1.82s.2-.86.44-1.7.36-1.35.48-1.8.21-.86.45-1.72a1.37 1.37 0 011.7-.86c1 .29 1.51.41 2 .53s1 .24 1.94.51 1.43.44 1.9.6 1 .35 2 .64 1.45.43 1.93.58 1 .31 2 .59a16.78 16.78 0 002.1.48 15.69 15.69 0 011.9.44 13.67 13.67 0 011.84.63 17.25 17.25 0 002 .7 19.58 19.58 0 002.09.5 17.78 17.78 0 011.91.45l3.94 1.12c1 .28 1.45.43 1.94.58s1 .31 2 .6 1.5.41 2 .54 1 .25 2 .53l2 .55c.49.13 1 .26 2 .54s1.4.44 1.87.61 1 .38 2 .67a19.55 19.55 0 002.08.5c.5.1 1 .2 1.92.47a1.33 1.33 0 01.8.66 1.39 1.39 0 01.13 1.05c-.24.85-.38 1.27-.52 1.69s-.29.88-.55 1.78-.36 1.35-.46 1.81-.19.86-.43 1.7a12 12 0 01-.56 1.61 12.65 12.65 0 00-.64 1.83 11 11 0 00-.4 1.93 10.14 10.14 0 01-.34 1.64c-.24.86-.38 1.29-.51 1.72s-.27.88-.52 1.76a1.27 1.27 0 01-1.66.74l-3.94-1.12a18.41 18.41 0 00-2.11-.48 16 16 0 01-1.9-.43l-2-.55-1.94-.55c-1-.27-1.39-.44-1.87-.62s-1-.38-2-.68-1.47-.42-2-.56-1-.3-2-.58l-2-.56c-.49-.13-1-.26-1.95-.54a16.45 16.45 0 00-2.11-.48 16.08 16.08 0 01-1.89-.44c-1-.27-1.44-.43-1.91-.59s-1-.34-2-.63-1.52-.41-2-.53-1-.23-1.94-.5l-7.89-2.24a16.6 16.6 0 01-1.86-.63 20.47 20.47 0 00-2-.68 1.28 1.28 0 01-1.01-1.56z"/><path class="cls-2" d="M128 66.61l3 .85a1 1 0 001.29-.71c.43-1.49.43-1.49.85-3a1 1 0 00-.73-1.28l-3-.85a1 1 0 00-1.29.71c-.43 1.48-.42 1.49-.84 3a1 1 0 00.72 1.28z"/><path d="M130.74 71.77c.93.27 1.41.4 1.88.52s.92.24 1.84.51 1.42.39 1.89.51.92.23 1.83.49l3.69 1.08c.92.26 1.37.4 1.83.54l1.86.56c.92.26 1.37.4 1.83.55l1.86.56c.94.27 1.42.39 1.9.51s.92.23 1.82.49a18 18 0 011.76.58c.46.17.94.34 1.9.62l7.4 2.13c.94.28 1.41.4 1.89.52s.91.23 1.82.49l.56-1.92c-.94-.27-1.42-.39-1.89-.51s-.92-.23-1.83-.5l-7.39-2.13c-.89-.26-1.32-.42-1.77-.58s-.93-.35-1.89-.62-1.43-.39-1.9-.51-.92-.23-1.82-.49-1.37-.41-1.82-.55-.93-.29-1.87-.56l-1.83-.55c-.47-.14-.93-.29-1.86-.56l-3.7-1.07c-.94-.27-1.42-.39-1.89-.51s-.92-.23-1.83-.49-1.41-.4-1.88-.52-.92-.24-1.84-.51-1.35-.41-1.8-.56-.93-.31-1.88-.58l-.56 1.92c.91.26 1.36.41 1.81.56s.93.31 1.88.58zm-1.6 4.81c1 .28 1.48.43 2 .58l2 .59c1 .29 1.57.41 2.08.52s1 .21 2 .48l4 1.14a18.3 18.3 0 011.88.64c.5.19 1 .39 2.07.69l4 1.14c1 .29 1.56.41 2.08.52s1 .21 2 .48l2 .57 2 .55c1 .28 1.45.45 1.93.61s1 .35 2.05.64l.54-1.92c-1-.28-1.45-.44-1.94-.61s-1-.35-2-.64-1.51-.42-2-.56l-2-.56c-1-.29-1.56-.41-2.08-.52s-1-.21-2-.49l-4-1.13a16.83 16.83 0 01-1.88-.64c-.5-.19-1-.39-2.06-.69l-4-1.14c-1-.29-1.57-.41-2.09-.52s-1-.21-1.95-.49-1.49-.43-2-.58-1-.3-2-.58-1.45-.44-1.93-.61-1-.34-2-.63l-.54 1.92c1 .28 1.45.44 1.93.6s.88.35 1.91.64zm10.91-7.52c1 .28 1.47.44 1.95.59s1 .33 2 .62l2 .58 2 .59c1 .29 1.56.41 2.08.52s1 .21 2 .49 1.43.44 1.92.61 1 .37 2 .66 1.55.41 2.07.53 1 .22 2 .5l4 1.13 2 .59 2 .59c1 .29 1.52.42 2 .56l2 .55.55-1.93-2-.55-2-.55-2-.59-2-.59-4-1.14c-1-.29-1.55-.4-2.07-.52s-1-.23-2-.5-1.43-.44-1.92-.62-1-.36-2.05-.66-1.56-.4-2.08-.52-1-.21-2-.48l-2-.59c-.5-.15-1-.3-2-.58s-1.46-.44-1.95-.6-1-.33-2-.62l-2-.55c-.49-.12-1-.25-2-.53L136 68c1 .29 1.52.42 2 .55s1.06.23 2.05.51z"/><path class="cls-2" d="M157.83 52.14l2.93-1a1.05 1.05 0 00.66-1.32l-1-2.93a1 1 0 00-1.32-.63l-2.93 1a1 1 0 00-.66 1.32l1 2.92a1 1 0 001.32.64z"/><path d="M158.69 54.1l.63 1.9c.9-.31 1.35-.44 1.81-.57s.94-.28 1.88-.59 1.38-.48 1.84-.65l1.8-.62c.93-.32 1.38-.49 1.84-.66s.89-.34 1.79-.64l3.65-1.22 1.81-.59c.47-.15.93-.29 1.85-.6s1.35-.45 1.81-.59.93-.29 1.85-.6 1.4-.48 1.86-.66.88-.33 1.77-.63 1.32-.41 1.78-.53 1-.25 1.91-.57l7.3-2.45c.93-.32 1.39-.49 1.84-.66s.89-.33 1.79-.63l-.64-1.9c-.93.32-1.39.49-1.84.66s-.89.33-1.79.63l-7.29 2.45c-.88.3-1.32.41-1.78.53s-1 .25-1.92.57-1.39.49-1.85.66-.88.34-1.77.64l-1.81.58L177 48c-.9.31-1.36.45-1.81.59l-1.85.61-3.65 1.22c-.93.31-1.39.48-1.85.66s-.89.33-1.78.63-1.38.48-1.84.64-.9.33-1.8.63-1.35.44-1.8.57-1 .24-1.93.55zm34.68-6.38c-.52.14-1 .29-2 .63l-2 .69-2 .68c-1 .34-1.52.55-2 .75s-.93.39-1.88.72l-3.94 1.34a18.1 18.1 0 01-1.91.55c-.52.13-1.06.26-2.09.61L171.62 55c-1 .34-1.52.55-2 .75s-.93.39-1.88.72l-2 .65-2 .66c-1 .33-1.45.47-1.94.61s-1 .29-2 .63l.65 1.89c1-.32 1.44-.46 1.93-.6s1-.29 2-.64l2-.65c.5-.16 1-.32 2-.66s1.52-.56 2-.76.93-.38 1.89-.71l3.93-1.34a18.1 18.1 0 011.91-.55c.52-.13 1.06-.26 2.09-.61l3.94-1.34c1-.35 1.52-.56 2-.76s.93-.39 1.88-.71l2-.69 1.95-.67c1-.33 1.45-.47 1.94-.61s1-.29 2-.63l-.64-1.89c-.92.35-1.41.49-1.9.63zm-26.19.28c.48-.18 1-.36 1.94-.69s1.45-.48 1.94-.63 1-.3 2-.64 1.47-.5 2-.65l2-.66c1-.35 1.51-.56 2-.76s.93-.38 1.89-.71 1.42-.45 1.93-.59 1-.27 2.05-.62 1.5-.54 2-.74.94-.38 1.9-.71l3.94-1.34c1-.34 1.47-.49 2-.65s1-.32 2-.66 1.49-.52 2-.7l1.95-.68-.72-1.89-2 .69c-.49.18-1 .35-1.95.68s-1.47.5-2 .65l-2 .66-3.93 1.35c-1 .34-1.51.54-2 .74s-.94.38-1.9.71-1.42.45-1.92.58-1 .28-2.06.63-1.52.55-2 .75-.94.39-1.89.71-1.46.49-1.95.65l-2 .66c-1 .33-1.45.48-1.94.63s-1 .3-2 .65-1.49.52-2 .7l-1.94.69.65 1.89z"/></g></svg>