<svg xmlns="http://www.w3.org/2000/svg" viewBox="0 0 240 240"><defs><style>.cls-1{fill:#fff}.cls-2{fill:#ff4f42}</style></defs><g id="Frame"><path class="cls-1" d="M229.46 229.46l-6.55.76-7.1.39-7.09-.42-7.09-.23-7.1-.45-7.09-.6-7.09 1.66-7.1-1.42-7.09.21-7.1.74-7.09-.41-7.09 1.4-7.1-.8-7.1-.29-7.09-.65-7.1-.18-7.1 1.2-7.09-.14-7.1.76-7.1-.57-7.1-.88-7.1-.64-7.09 1.92-7.1-1.6-7.1 1.84-7.1-2.08-7.1 1.95-7.09-1.04-7.11.6-7.1-.31-7.7.41.92-7.68-.44-7.1-.76-7.09 1.92-7.09-1.89-7.1 1.48-7.09-.92-7.09.86-7.1-1.54-7.09 1.65-7.1-1.59-7.09-.12-7.09 1.71-7.1-1.07-7.1 1.22-7.09-1.71-7.1 1.83-7.1-1.42-7.09.82-7.1-1.04-7.1 1.37-7.1.22-7.1.13-7.09-.99-7.1-.97-7.1 1.59-7.1-1.65-7.1 2.05-7.09-.9-7.11-.21-7.1-.54-7.69 7.67.35 7.1-.67 7.09.19 7.09 1.58 7.1.15 7.09-.88 7.09-.86 7.1 1.01 7.09-1.06 7.1-.29 7.09 1.31 7.1.83 7.09-1.38 7.1 1.11 7.09-1.8 7.1 1.64 7.1-.23 7.1.52 7.09-.68 7.1.8 7.1-1.63 7.1 1.03 7.09-1.17 7.1-.34 7.1.31 7.1.4 7.1-.25 7.09 1.38 7.11.2 7.1-.32 7.82-1.38-1.37 7.8 1.44 7.1-.93 7.09-.25 7.09.69 7.1-1.38 7.09.82 7.09.43 7.1-.21 7.09.74 7.1-1.41 7.09.98 7.1.2 7.09.07 7.1-.52 7.09-.14 7.1.76 7.1-1.13 7.1.82 7.09.02 7.1-.58 7.1-.01 7.1v7.09l-.21 7.1 1.3 7.1-.56 7.1.08 7.1-1.27 7.09.91 7.11-.87 7.07.33 6.6z"/><path d="M144.92 232.1l-7.25-.82-7-.28-7.14-.65-6.94-.18-7.09 1.2-7.13-.14-7.13.77-7.24-.59-7.14-.87-6.86-.63-7.16 1.94-7.11-1.61-7.13 1.85-7.1-2.09-7 1.93-7.19-1-7.06.59-7.17-.31-8.79.48 1.05-8.78-.43-7-.78-7.23 1.9-7-1.87-7.06 1.48-7.16-.91-7.05.86-7L8 166.15l1.66-7.09L8.1 152l-.1-7.24 1.69-7-1.09-7.09 1.22-7-1.72-7.19 1.83-7.11-1.41-7 .83-7.13-1-7.13 1.4-7.19.21-7 .13-7-2-14.3 1.58-7L8 38.39l2.08-7.15-.88-6.9-.2-7.2-.65-8.77 8.72.4 7.09-.67 7.34.21 7 1.56 6.93.15 14.23-1.75 7.08 1 7.06-1 7.2-.34 7.2 1.34 6.88.8 7.11-1.39 7.07 1.11L116.4 8l7.21 1.66 7-.22h.05l7 .51 7.12-.67 7 .79L159 8.41l7.13 1 7.06-1.15 7.05-.26 7.19.31 7.12.41 7.12-.26 7.12 1.38 7 .2 7-.32 9.16-1.61-1.58 9 1.44 7.08-1 7.25-.23 6.93.69 7.17-1.38 7.09.8 6.94.44 7.15-.13 7.08.7 7.2-1.4 7.08 1 7 .2 7.09.07 7.12-.52 7.18-.14 7 .76 7.16-1.12 7.1.81 7.07v7.1l-.58 7.18v14.11l-.21 7 1.31 7.12-.58 7.23.09 7.1-1.26 7 .91 7.07-.88 7.11.38 7.46-7.49.86-7.21.4-7.15-.42-7.09-.12-7.13-.46-7-.58-7.15 1.67-7.19-1.44-7 .21-7.1.74-7.05-.41zm-28.5-3.94l7.19.2 7.16.64 7 .29 7 .78 7.07-1.39 7.14.41 7-.73 7.29-.21 7 1.4 7-1.65 7.25.61 7.07.45 7.06.23 7.06.41 7-.38 5.57-.64-.3-5.76.87-7-.91-7.13 1.28-7.16-.08-7 .56-7.06-1.3-7.07.21-7.21V159l.58-7.18v-7l-.83-7.18 1.13-7.1-.75-7 .14-7.16.53-7.15-.08-7-.2-7-1-7.21 1.41-7.11-.73-7 .21-7.16-.43-7-.83-7.19 1.38-7.1-.68-7v-.06l.24-7.09.92-7-1.45-7.12 1.16-6.59-6.54 1.15-7.11.32-7.34-.22-7-1.36-7 .25-7.19-.41-7.08-.3-6.95.33-7.19 1.19-7.07-1-6.86 1.52-7.17-.8-7.07.67-7.13-.52-7.18.23-7-1.61-7.06 1.79-7.12-1.12-7.08 1.38-7.24-.84-7.09-1.31-6.92.29-7.19 1.08-7.11-1L45.52 12l-7.36-.18-7-1.56-6.93-.18-7.11.67-6.62-.3L11 17l.21 7.14.92 7.22-2 7 1.65 7.07-1.6 7.14L12 66.75l-.13 7.17-.23 7.27-1.35 6.93 1 7.06-.82 7.07 1.53 7.17-1.81 7.08 1.69 7-1.23 7.14 1.08 7.13L10 145l.11 6.87 1.62 7.22-1.66 7.1 1.54 7-.87 7.13.92 7.14-1.46 7 1.9 7.12-1.95 7.17.75 6.9.44 7.23-.79 6.6 6.51-.35 7.14.31 7.16-.61 7 1 7.17-2 7.1 2.17 7.06-1.83 7.09 1.6 7-1.9 7.28.66 7.13.87 7 .57 7.07-.76 7.07.14z"/></g><g id="Illo"><path d="M64.91 230.25l-1.27-4.96.86-4.89.17-4.69-.09-4.61-.87-4.84.75-4.91.38-4.61-.36-4.67-.03-4.82-.17-4.72.11-4.76-.39-4.71-.44-4.84.55-4.85.16-4.67-.07-4.64-.69-4.88 1.18-4.83.05-4.57-.64-4.68-.43-4.87.31-4.84-.06-4.76 1.32-9.55.14-5.14 2.22-4.65 2.64-4.41 3.2-4.04 4.49-2.35 3.77-3.42 4.62-2.29 5.07-.38 4.91-1.3 4.88.33 4.66.51 4.68-.42 4.78.13 4.71.11 4.75-.02 4.6.52 4.81-1.19 4.73 1.4 4.63-1.15 5.1.46 5.23.96 4.06 3.18 4.67 1.7 4.07 3.37 2.54 4.33 3.57 3.74 1.04 5.1 1.71 4.81.32 4.9-.01 4.82.04 9.5-.35 4.73.51 4.66.18 4.82-.31 4.97-.84 4.58.8 4.57.43 4.84-.03 4.85-.38 9.46.5 4.77-.43 4.8.1 4.8-.89 4.71.49 4.7-.39 4.76.44 4.66v4.8l.54 4.78-.29 4.85-.6 4.82-1.98-.24.59-4.76.27-4.62-.53-4.78.01-4.75-.45-4.75.39-4.75-.51-4.8.9-4.8-.09-4.7.42-4.71-.5-4.73.39-9.57.04-4.72-.42-4.66-.85-4.84.89-4.87.29-4.69-.18-4.66-.52-4.76.36-4.85-.04-9.42.01-4.76-.31-4.68-1.66-4.61-.94-4.61-3.39-3.6-2.42-4.12-3.54-2.93-4.77-1.79-3.8-2.97-4.65-.85-4.68-.43-4.83 1.2-4.72-1.4-4.64 1.15-4.84-.55-4.66.02-9.41-.24-4.76.43-4.82-.53-4.5-.3-4.87 1.27-4.77.36-4.14 2.05-3.75 3.4-4.23 2.21-2.89 3.66-2.49 4.16-1.99 4.19-.14 4.87-1.31 9.47.06 4.68-.3 4.76.41 4.68.66 4.78-.09 5.05-1.11 4.57.65 4.69.07 4.75-.17 4.8-.53 4.73.43 4.64.39 4.82-.11 4.8.17 4.7.02 4.78.38 4.76-.4 4.83-.71 4.65.84 4.75.09 4.75-.19 4.94-.79 4.54 1.16 4.54-1.94.5z"/><path d="M92.9 84.88l-.31-3.26-.03-3.33.06-3.28.3-3.98 4.31-.48 3.64.02 3.38.45 3.39-.37 3.67-.04 3.47.39 3.48-.25 3.51.2 3.44-.22 3.6.1 3.48-.23 3.51.28 7.01-.34 4.45.42-.22 4.07.18 3.2.05 6.55-2 .01-.05-6.49-.18-3.27.12-2.26-2.39-.22-7.01.33-3.49-.27-3.43.22-3.6-.1-3.47.23-3.5-.21-3.53.25-3.54-.39-3.44.03-3.53.39-3.56-.47-3.39-.01-2.49.28-.17 2.27-.06 3.19.03 3.23.3 3.17-1.99.19z"/><path d="M104.66 84.62l-2-.04.06-3.16-.06-3.12-.02-3.18.06-3.18 2 .04-.06 3.16.02 3.13.06 3.15-.06 3.2zm10.86 0l-2-.04.06-3.16v-3.14l-.07-3.14.06-3.2 2 .04-.06 3.16.07 3.12v3.18l-.06 3.18zm10.87 0l-2-.04.06-3.16-.05-3.13.1-6.34 2 .03-.1 6.31.05 3.13-.06 3.2zm10.94-.01l-2-.02.04-3.17-.08-6.29.05-3.18 2 .03-.05 3.16.08 6.28-.04 3.19z"/><path class="cls-2" d="M60 63.49h-1.31a9.52 9.52 0 01-3-.54l-.48-.15a7.71 7.71 0 01-2.4-1.05 9.19 9.19 0 01-2-2.18l-.11-.15a9.65 9.65 0 01-1.52-2.71 10.11 10.11 0 01-.59-3.1 7.17 7.17 0 01.56-2.46l.2-.57.15-.51a7.92 7.92 0 011-2.38 10.18 10.18 0 012.28-2.16 10.06 10.06 0 012.81-1.33 10 10 0 013.06-.63 12.29 12.29 0 015.88 2 10.58 10.58 0 013.66 5 10.16 10.16 0 01.59 3.09 7 7 0 01-.52 2.34l-.22.6a9.24 9.24 0 01-1.4 2.74 9.48 9.48 0 01-2.1 2.28l-.23.17a9 9 0 01-2.48 1.43 5.74 5.74 0 01-1.83.27zm-1.31-17.94a7.79 7.79 0 00-2.39.52 8 8 0 00-2.3 1.06 8.2 8.2 0 00-1.84 1.72 6 6 0 00-.74 1.78c-.06.19-.11.37-.17.55l-.22.63a5.33 5.33 0 00-.44 1.78 8.34 8.34 0 00.49 2.48 8.14 8.14 0 001.24 2.16l.11.15A7.43 7.43 0 0054 60.11a6.18 6.18 0 001.8.76l.52.16a10.22 10.22 0 003.1.45 5.87 5.87 0 001.83-.13 7.3 7.3 0 001.92-1.14l.24-.18A8 8 0 0065 58.2a7.65 7.65 0 001.14-2.2c.07-.23.16-.45.24-.67a5.54 5.54 0 00.44-1.76 8.22 8.22 0 00-.49-2.48 7.84 7.84 0 00-1.18-2.21 8.22 8.22 0 00-1.75-1.78 8 8 0 00-2.26-1.07 8.22 8.22 0 00-2.45-.48z"/><path class="cls-2" d="M53.55 60.2l-1.42-1.41c.5-.5.77-.74 1-1s.49-.46 1-.94a12.77 12.77 0 00.87-.95 12.81 12.81 0 011-1.1c.5-.5.76-.74 1-1s.5-.47 1-1 .68-.72.9-1 .48-.54 1-1.05a10.9 10.9 0 011.15-1A7.23 7.23 0 0062 49l2-2 1.42 1.42-2 2a10.68 10.68 0 01-1.15 1 7.3 7.3 0 00-.94.82c-.47.47-.69.72-.91 1s-.48.54-1 1l-1 1c-.25.23-.49.47-1 1a9.43 9.43 0 00-.87.95c-.24.28-.48.57-1 1.1s-.77.74-1 1-.55.44-1 .91z"/><path class="cls-1" d="M179.55 93.58a9.33 9.33 0 01-.37 2.82 9 9 0 01-1.45 2.44 8.58 8.58 0 01-2 1.92 8.7 8.7 0 01-2.41 1.45 8 8 0 01-5.58-.07 8.94 8.94 0 01-2.52-1.28 6.74 6.74 0 01-3.1-4.55 8.94 8.94 0 01-.59-2.73 8.83 8.83 0 01.61-2.72 7.14 7.14 0 013.18-4.43A8.79 8.79 0 01167.7 85a9 9 0 012.8-.39 6.16 6.16 0 015.19 1.84 9.13 9.13 0 013.86 7.15z"/><path class="cls-2" d="M170.5 103.68a9.92 9.92 0 01-3.09-.59 9.8 9.8 0 01-2.79-1.42 10.09 10.09 0 01-2.27-2.17 7.63 7.63 0 01-1-2.39l-.21-.66a9.09 9.09 0 01-.59-2.87 8.49 8.49 0 01.57-2.74l.09-.29a9.79 9.79 0 011.29-2.81 10 10 0 012.25-2.12l.29-.22a8.4 8.4 0 012.35-1.4 9.77 9.77 0 013.11-.44 10.15 10.15 0 013.13.36 7.1 7.1 0 012.13 1.28c.17.13.34.27.52.39a10 10 0 012.17 2.18A9.65 9.65 0 01180 90.5a9.89 9.89 0 01.16 6.21 9.33 9.33 0 01-1.44 2.52l-.15.2a9.92 9.92 0 01-2.24 2.14l-.26.19a8.7 8.7 0 01-2.43 1.4 10 10 0 01-3.14.52zm0-18.09a7.93 7.93 0 00-2.49.34 6.66 6.66 0 00-1.82 1.07l-.3.22a8 8 0 00-1.81 1.69 7.61 7.61 0 00-1 2.25l-.1.3a6.81 6.81 0 00-.47 2.11 7.47 7.47 0 00.49 2.25l.22.69a6.17 6.17 0 00.75 1.8 8.26 8.26 0 001.82 1.74 8.36 8.36 0 002.23 1.13 7 7 0 005 .07 6.83 6.83 0 001.86-1.11l.28-.2a7.77 7.77 0 001.79-1.7l.15-.2a7.16 7.16 0 001.16-2 7.92 7.92 0 00-.16-5 9.6 9.6 0 00-3-3.88l-.57-.44a5.51 5.51 0 00-1.52-1 8.35 8.35 0 00-2.51-.13z"/><path class="cls-2" d="M165.32 100.15l-1.42-1.41 2-2c.5-.5.76-.74 1-1s.49-.45 1-.93l2-2c.47-.47.7-.72.92-1s.48-.53 1-1 .71-.73.94-1 .48-.52 1-1 .8-.76 1.08-1a12.88 12.88 0 001-.88l1.42 1.42a13.08 13.08 0 01-1.09 1 12.88 12.88 0 00-1 .88c-.48.48-.71.73-.94 1s-.48.52-1 1-.69.72-.91 1-.48.53-1 1l-2 2c-.5.5-.76.75-1 1s-.49.46-1 .94z"/><path class="cls-1" d="M45.06 179.41a9.12 9.12 0 01-.51 2.77 8.87 8.87 0 01-1.38 2.41 9.94 9.94 0 01-4.36 3.41 8.91 8.91 0 01-2.78.6 9 9 0 01-2.8-.55 9.17 9.17 0 01-2.55-1.25 9.26 9.26 0 01-1.88-2.11 8.92 8.92 0 01-1.44-2.43 9.39 9.39 0 01-.17-2.82 9.29 9.29 0 01.19-2.81 8.83 8.83 0 011.37-2.48 9.21 9.21 0 012-2 9.37 9.37 0 012.53-1.21 9 9 0 012.76-.44 9.2 9.2 0 012.8.33A9.1 9.1 0 0141.4 172a10.25 10.25 0 013.08 4.64 8.93 8.93 0 01.58 2.77z"/><path class="cls-2" d="M36 189.57a10.23 10.23 0 01-3.11-.59 10.18 10.18 0 01-2.82-1.4 9.89 9.89 0 01-2.07-2.26l-.18-.25a9.3 9.3 0 01-1.45-2.53 7.37 7.37 0 01-.23-2.5v-1.2a7.44 7.44 0 01.24-2.55 10 10 0 011.51-2.76A9.24 9.24 0 0133 170a11.19 11.19 0 016.18-.11 10 10 0 012.82 1.33 9.39 9.39 0 011.95 2.16l.14.18a10 10 0 011.35 2.8v.1a9.54 9.54 0 01.6 2.95 10.21 10.21 0 01-.56 3.08 9.78 9.78 0 01-1.48 2.69 9.86 9.86 0 01-2.15 2.21 9.57 9.57 0 01-2.71 1.53 9.94 9.94 0 01-3.14.65zm0-18.1a9 9 0 00-4.7 1.46 7.87 7.87 0 00-1.77 1.78 8.08 8.08 0 00-1.23 2.2 5.94 5.94 0 00-.14 1.89v1.3a5.54 5.54 0 00.13 1.82 7.63 7.63 0 001.16 2l.14.19a8.21 8.21 0 001.68 1.89 8.14 8.14 0 002.27 1.11 8.17 8.17 0 002.49.5 8.16 8.16 0 002.43-.53 8 8 0 002.19-1.27 7.78 7.78 0 001.71-1.81 8.24 8.24 0 001.24-2.14 8.42 8.42 0 00.46-2.46 7.8 7.8 0 00-.5-2.34v-.09a7.67 7.67 0 00-1.06-2.24l-.14-.19a7.54 7.54 0 00-1.51-1.72 7.7 7.7 0 00-4.85-1.35z"/><path class="cls-2" d="M30.89 186l-1.41-1.42 1-1 1-1 1.95-2c.49-.48.72-.73 1-1s.48-.51 1-1 .7-.72.93-1 .48-.53 1-1 .77-.75 1-1 .5-.46 1-.94.79-.75 1.06-1 .5-.44 1-.91l1.41 1.41c-.51.52-.78.76-1.06 1s-.49.44-1 .91l-1 1c-.25.22-.49.45-1 .93s-.7.72-.92 1-.49.53-1 1-.72.73-1 1l-1 1-2 2-1 1z"/><path class="cls-1" d="M147.17 48.64a6 6 0 01.48-3 6.31 6.31 0 012.19-2.31 6.17 6.17 0 013.09-.43c1.43 0 1.43-.11 2.86-.11s1.43-.33 2.85-.33 1.43.36 2.86.36 1.43-.33 2.86-.33 1.43.18 2.86.18 1.43.15 2.86.15a5.69 5.69 0 012.87.94 5.82 5.82 0 012.32 2 6 6 0 01.82 3h.22a6.35 6.35 0 01-.93 3.07 6.06 6.06 0 01-2.42 2 5.77 5.77 0 01-2.9 1c-1.42 0-1.42-.13-2.85-.13h-5.72c-1.42 0-1.43.07-2.85.07s-1.44.16-2.87.15-1.43-.13-2.86-.13a5.74 5.74 0 01-2.87-1 5.39 5.39 0 01-2.89-5z"/><path class="cls-2" d="M155.83 55.75a12.85 12.85 0 01-1.52-.07 13 13 0 00-1.34-.06 8 8 0 01-5.97-3.57 6.59 6.59 0 01-.85-3.41v-1a5.16 5.16 0 01.61-2.55 7.27 7.27 0 012.55-2.68 6 6 0 013.23-.56h.46c.69 0 1 0 1.35-.05a13.11 13.11 0 011.51-.06 4.85 4.85 0 001.2-.14 5.24 5.24 0 011.66-.19 5.86 5.86 0 011.66.21 6.39 6.39 0 001.21.15 4.22 4.22 0 001.19-.14 7.24 7.24 0 011.65-.19 11.81 11.81 0 011.55.1 9.47 9.47 0 001.31.08 12.72 12.72 0 011.54.08 10 10 0 001.33.07 6.63 6.63 0 013.37 1.08 6.73 6.73 0 012.68 2.34 7.26 7.26 0 01.88 2.5h.29v1a7.32 7.32 0 01-1.07 3.57 6.41 6.41 0 01-2.61 2.22l-.17.1a6.75 6.75 0 01-3.39 1.13c-.76 0-1.13 0-1.51-.07a13 13 0 00-1.34-.06h-8.58c-.74 0-1 0-1.32.07a12.2 12.2 0 01-1.56.1zm-7.64-6.66a4.23 4.23 0 00.57 2 4.52 4.52 0 001.8 1.71 4.83 4.83 0 002.37.86 13.18 13.18 0 011.53.07 12.73 12.73 0 001.33.06 9.26 9.26 0 001.32-.07 9.86 9.86 0 011.55-.08h8.57c.76 0 1.14 0 1.52.07a12.73 12.73 0 001.33.06 4.92 4.92 0 002.4-.87l.17-.1a4.7 4.7 0 001.87-1.49 6.3 6.3 0 00.67-1.56h-.09v-1a4.26 4.26 0 00-2.64-4.11 4.65 4.65 0 00-2.37-.81 12.39 12.39 0 01-1.53-.08 10.09 10.09 0 00-1.33-.07 10.36 10.36 0 01-1.55-.1 9.47 9.47 0 00-1.31-.08 4.63 4.63 0 00-1.19.14 7.66 7.66 0 01-1.65.19 5.88 5.88 0 01-1.67-.21 4.2 4.2 0 00-1.19-.15 4.25 4.25 0 00-1.2.14 6.27 6.27 0 01-1.64.19h-1.36c-.3 0-.76.06-1.51.06h-.38a4.57 4.57 0 00-2.22.3 5.22 5.22 0 00-1.81 2 4.79 4.79 0 00-.35 2.35z"/><path class="cls-2" d="M162.4 54.68h-2a12 12 0 01.12-1.64 9.67 9.67 0 00.1-1.37c0-.71 0-1.07-.06-1.43s-.06-.79-.06-1.58v-6.01h2v6.01c0 .77 0 1.07.06 1.42s.06.8.06 1.59a12 12 0 01-.12 1.64 9.54 9.54 0 00-.1 1.37z"/><path class="cls-1" d="M196.65 138.17l-.12.35a6.24 6.24 0 01-2.58-1.9 6 6 0 01-1.12-2.91 5.67 5.67 0 01.36-3c.48-1.34.15-1.46.62-2.81s.41-1.37.88-2.72.79-1.23 1.26-2.58.56-1.32 1-2.67.46-1.35.94-2.7.46-1.36.94-2.71a6 6 0 011.45-2.74 6.17 6.17 0 012.91-1.12 6 6 0 013.07.15v.06a5.16 5.16 0 013.81 4.5 5.68 5.68 0 01-.32 3c-.47 1.35-.36 1.39-.83 2.73s-.52 1.33-1 2.68-.38 1.38-.85 2.73-.21 1.44-.68 2.79-.94 1.19-1.41 2.54-.49 1.35-1 2.7a5.87 5.87 0 01-1.47 2.7 6.2 6.2 0 01-2.83 1.46 6.12 6.12 0 01-3.03-.53z"/><path class="cls-2" d="M199.17 139.76a6.68 6.68 0 01-2.1-.39 1 1 0 01-.54.15h-.17l-.16-.06a7.33 7.33 0 01-3-2.19 6.9 6.9 0 01-1.34-3.38 6.67 6.67 0 01.4-3.5 4.33 4.33 0 00.26-1.17 5.66 5.66 0 01.36-1.64c.23-.65.32-1 .42-1.31s.21-.71.46-1.41a6.56 6.56 0 01.73-1.49 4.59 4.59 0 00.53-1.09c.25-.7.39-1 .54-1.39s.27-.63.49-1.28.36-1 .47-1.34.23-.68.47-1.36.36-1 .47-1.35.23-.68.47-1.36l.07-.2a6.31 6.31 0 011.66-2.92 7 7 0 013.38-1.34 6.78 6.78 0 013.58.19l.94.33v.11a6.06 6.06 0 012.12 1.57 7 7 0 011.42 3.3 6.53 6.53 0 01-.36 3.52c-.22.63-.3 1-.39 1.29a14.37 14.37 0 01-.44 1.44c-.24.69-.37 1-.51 1.37s-.25.66-.48 1.31a11.41 11.41 0 00-.4 1.3c-.1.36-.2.72-.45 1.43a4.61 4.61 0 00-.29 1.21 7.76 7.76 0 01-.39 1.59 4.9 4.9 0 01-.86 1.55 2.81 2.81 0 00-.55 1c-.24.69-.36 1-.49 1.36s-.24.67-.47 1.34l-.05.12a6.57 6.57 0 01-1.72 3 7.33 7.33 0 01-3.29 1.67 4 4 0 01-.79.02zM196 136.9l1 .33a5.54 5.54 0 002.57.5 5.26 5.26 0 002.36-1.24 4.91 4.91 0 001.14-2.15v-.13l.48-1.35c.13-.34.25-.67.48-1.34a5.19 5.19 0 01.86-1.56 2.66 2.66 0 00.55-1 5.25 5.25 0 00.3-1.2 6.85 6.85 0 01.38-1.59c.23-.64.32-1 .41-1.3a14.39 14.39 0 01.44-1.43c.24-.69.38-1 .51-1.37s.25-.65.49-1.31.3-1 .39-1.28a13.61 13.61 0 01.44-1.45 4.63 4.63 0 00.27-2.49 4.87 4.87 0 00-1-2.38 5 5 0 00-2.19-1.35l-.64-.23a5.25 5.25 0 00-1.88.06 5.16 5.16 0 00-2.45.9 4.67 4.67 0 00-1.07 2l-.09.26c-.24.67-.35 1-.47 1.34s-.23.68-.47 1.36l-.47 1.35c-.11.34-.23.68-.47 1.36s-.39 1-.54 1.39-.27.63-.49 1.27a6.92 6.92 0 01-.73 1.5 4.4 4.4 0 00-.53 1.09c-.23.65-.33 1-.43 1.31s-.21.71-.46 1.41a4.11 4.11 0 00-.25 1.16 6.36 6.36 0 01-.36 1.64 4.69 4.69 0 00-.33 2.47 5.23 5.23 0 00.9 2.45 6.51 6.51 0 001.26 1.15z"/><path class="cls-2" d="M206.78 127.54a14.13 14.13 0 01-1.49-.61 9.43 9.43 0 00-1.3-.53l-2.84-1c-.69-.25-1-.36-1.39-.48s-.73-.23-1.45-.49-1.05-.35-1.4-.46-.73-.23-1.45-.49l.66-1.89c.69.25 1 .36 1.4.47s.73.23 1.45.49l1.4.47 1.45.49 2.84 1a14.69 14.69 0 011.48.61 12.07 12.07 0 001.31.53z"/><path class="cls-1" d="M68.07 159.07v.06a6.46 6.46 0 01-3.21.34 6.18 6.18 0 01-2.68-1.64 5.81 5.81 0 01-2-2.33c-.51-1.34-.37-1.39-.89-2.72s-.49-1.34-1-2.67-.71-1.26-1.23-2.59-.37-1.39-.88-2.72-.42-1.38-.94-2.71-.85-1.21-1.37-2.54a5.79 5.79 0 013.65-7.79l-.1-.25a6.09 6.09 0 016.1 1 6 6 0 011.73 2.63c.52 1.33.55 1.31 1.06 2.64s.63 1.3 1.14 2.63.61 1.29 1.13 2.63.51 1.33 1 2.66.17 1.47.68 2.81.86 1.2 1.37 2.54a6.22 6.22 0 01.24 3.19 8.86 8.86 0 01-3.84 4.81z"/><path class="cls-2" d="M65.8 160.54a7.59 7.59 0 01-1.07-.08 5.8 5.8 0 01-2.73-1.54l-.37-.31a6.69 6.69 0 01-2.31-2.76 11.75 11.75 0 01-.48-1.46 10.12 10.12 0 00-.41-1.25c-.26-.68-.38-1-.51-1.36s-.25-.66-.5-1.31a7.19 7.19 0 00-.55-1.16 11.12 11.12 0 01-.68-1.43 12.38 12.38 0 01-.47-1.46 10.61 10.61 0 00-.42-1.26c-.27-.7-.38-1.06-.49-1.42s-.2-.66-.44-1.29a3.9 3.9 0 00-.57-1 6.11 6.11 0 01-.8-1.49 9.16 9.16 0 011.16-7.08 6 6 0 012.14-1.61l-.11-.28.93-.36a7.07 7.07 0 017.09 1.17 7.07 7.07 0 012 3.05c.25.65.38 1 .52 1.3s.28.67.54 1.34.39.94.53 1.24.33.68.61 1.39.39.94.53 1.25.32.68.59 1.38l1 2.66A5.78 5.78 0 0171 147a4 4 0 00.28 1.16 4.2 4.2 0 00.57 1.05 5.87 5.87 0 01.81 1.49 7.4 7.4 0 01.29 3.71 6.89 6.89 0 01-1.7 3.21 8.89 8.89 0 01-1.88 1.9l.07.17-.94.36a7.37 7.37 0 01-2.7.49zm-7-28.36l.06.15-.93.36a5.1 5.1 0 00-2.22 1.39 5.18 5.18 0 00-.88 2.47 5.32 5.32 0 000 2.64 4.2 4.2 0 00.57 1.05 5.87 5.87 0 01.81 1.49c.27.7.38 1.06.49 1.42s.2.65.44 1.29a11.75 11.75 0 01.48 1.46 10.7 10.7 0 00.41 1.26 8.15 8.15 0 00.55 1.16 9.91 9.91 0 01.68 1.43c.25.66.38 1 .5 1.34l.51 1.33a13.16 13.16 0 01.47 1.46 10.7 10.7 0 00.41 1.26 4.91 4.91 0 001.7 1.91l.4.33a4.17 4.17 0 001.81 1.1 5.61 5.61 0 002.19-.12l.48-.22a8.18 8.18 0 003.21-4 5.45 5.45 0 00-.18-2.68 3.9 3.9 0 00-.57-1.05 6.11 6.11 0 01-.8-1.49 5.45 5.45 0 01-.4-1.65 3.78 3.78 0 00-.29-1.16l-1-2.66c-.24-.64-.39-.94-.53-1.25s-.32-.68-.59-1.38a13 13 0 00-.54-1.24c-.16-.34-.33-.68-.6-1.38s-.39-1-.52-1.31-.28-.67-.54-1.34a5 5 0 00-1.43-2.21 5.3 5.3 0 00-2.42-1.13 5.51 5.51 0 00-1.77-.03z"/><path class="cls-2" d="M57.5 148.39l-.72-1.87 1.38-.54 1.41-.57 2.81-1.08 1.37-.55 1.42-.56c.71-.28 1.07-.41 1.43-.54s.7-.25 1.39-.52l.72 1.86c-.71.28-1.07.41-1.43.54l-1.39.52-1.38.55-1.41.57-2.81 1.08-1.38.55c-.35.17-.7.29-1.41.56z"/><path class="cls-1" d="M36.08 110.54l-.11.33a6.17 6.17 0 01-2.53-1.87 6.26 6.26 0 01-1.55-2.74A6.38 6.38 0 0132 103c.45-1.35.49-1.34.94-2.69s.75-1.26 1.2-2.62.29-1.41.73-2.76.57-1.32 1-2.68l.9-2.71c.45-1.36.08-1.49.52-2.85a6.45 6.45 0 011.88-2.61 6.83 6.83 0 016-1.32v.06A6.46 6.46 0 0148 84.48a6.52 6.52 0 011.3 3 6.19 6.19 0 01-.53 3c-.45 1.35-.14 1.45-.59 2.81s-.38 1.38-.82 2.73-.44 1.36-.89 2.72-.37 1.38-.82 2.74-.51 1.34-1 2.69-.39 1.38-.84 2.74a6.34 6.34 0 01-1.77 2.7 6.11 6.11 0 01-3 1 5.55 5.55 0 01-2.96-.07z"/><path class="cls-2" d="M36.61 112.13l-1-.31a7.08 7.08 0 01-3-2.2 6.94 6.94 0 01-1.79-3.2 7.26 7.26 0 01.15-3.72c.23-.69.35-1 .48-1.38s.24-.65.46-1.32a6.79 6.79 0 01.69-1.5 4.93 4.93 0 00.51-1.11 11 11 0 00.34-1.27 10.8 10.8 0 01.39-1.5c.24-.72.4-1.07.54-1.41A11.25 11.25 0 0035 92l.9-2.72a3.51 3.51 0 00.21-1.16 5.77 5.77 0 01.31-1.68 7.51 7.51 0 015.48-4.66 7.14 7.14 0 013.7.09l1 .31v.11a6.63 6.63 0 012.26 1.58 7.25 7.25 0 011.53 3.4 6.15 6.15 0 01-.46 3.3l-.09.27a4.49 4.49 0 00-.38 1.16 6.53 6.53 0 01-.34 1.62c-.22.65-.31 1-.4 1.32s-.19.71-.42 1.42l-.89 2.71c-.22.65-.31 1-.4 1.32s-.19.72-.42 1.42-.37 1-.5 1.39-.25.65-.46 1.31-.32 1-.41 1.33-.2.71-.43 1.41a7.47 7.47 0 01-2 3.13 5.9 5.9 0 01-3 1.17l-.48.09a7.07 7.07 0 01-2.57.11zm-1.17-2.85l1 .32a4.59 4.59 0 002.51.06l.52-.1a4.33 4.33 0 002-.69 5.57 5.57 0 001.48-2.27c.22-.66.31-1 .41-1.33s.2-.71.43-1.41.36-1 .5-1.39.24-.65.46-1.31.3-1 .39-1.31.2-.72.43-1.43l.89-2.71c.21-.65.3-1 .39-1.32s.2-.71.43-1.42a4.49 4.49 0 00.25-1.19 6.53 6.53 0 01.34-1.62l.09-.27a4.73 4.73 0 00.41-2.26 5.52 5.52 0 00-1.07-2.48 5.41 5.41 0 00-2.33-1.37l-.62-.21a6 6 0 00-2 .12 5.14 5.14 0 00-2.39 1.15A5.32 5.32 0 0038.27 87a3.8 3.8 0 00-.21 1.16 5.44 5.44 0 01-.31 1.68l-.9 2.72c-.24.72-.39 1.07-.54 1.42s-.27.62-.48 1.25a11.61 11.61 0 00-.34 1.27 10.46 10.46 0 01-.39 1.5 6.28 6.28 0 01-.7 1.5 5 5 0 00-.5 1.11c-.23.69-.36 1-.48 1.38s-.24.65-.46 1.31a5.27 5.27 0 00-.09 2.69 5.11 5.11 0 001.32 2.28 8.12 8.12 0 001.2 1.15z"/><path class="cls-2" d="M46 99.7a15.57 15.57 0 01-1.48-.55c-.33-.13-.67-.27-1.34-.5s-1-.31-1.38-.4-.77-.19-1.52-.44l-2.85-.94c-.73-.24-1.09-.37-1.45-.5s-.69-.25-1.39-.48l.63-1.9 1.44.5c.35.12.69.25 1.4.48l2.85.94c.68.22 1 .31 1.38.4s.76.2 1.51.44 1.12.4 1.48.55a14.34 14.34 0 001.35.5z"/><path class="cls-1" d="M110.79 57.85v-.06a6 6 0 01-3.11 0 6 6 0 01-3-.93 6.41 6.41 0 01-2-2.55c-.51-1.33-.35-1.39-.86-2.73s-.5-1.33-1-2.67-.26-1.43-.77-2.76-.59-1.3-1.11-2.64-.52-1.33-1-2.66-.59-1.31-1.1-2.65a6.06 6.06 0 01-.5-3.1 6.43 6.43 0 011.22-3 6.13 6.13 0 012.77-1.45l-.16-.43a6.24 6.24 0 013.17-.21 6.36 6.36 0 013 1.11 6.41 6.41 0 011.74 2.69c.52 1.33.44 1.36 1 2.69s.41 1.38.93 2.71.52 1.33 1 2.66.75 1.24 1.26 2.58.27 1.43.78 2.77.83 1.21 1.35 2.55a6.17 6.17 0 01.13 3.16 5.85 5.85 0 01-3.69 4.88z"/><path class="cls-2" d="M110.21 59.15l-.07-.19a7.86 7.86 0 01-2.35-.14l-.63-.1a6.15 6.15 0 01-3.16-1.09 7.3 7.3 0 01-2.27-3 10.33 10.33 0 01-.47-1.48 8.3 8.3 0 00-.4-1.25c-.25-.67-.38-1-.51-1.34s-.25-.67-.5-1.33a7.6 7.6 0 01-.44-1.56 5.71 5.71 0 00-.33-1.2c-.25-.64-.39-1-.54-1.26s-.3-.68-.57-1.38L97 41.2c-.25-.65-.39-1-.53-1.28s-.3-.68-.56-1.37a6.93 6.93 0 01-.56-3.61 7.36 7.36 0 011.43-3.43A4.83 4.83 0 0199 30.1l-.15-.41.93-.36a7.13 7.13 0 013.68-.27 7.43 7.43 0 013.48 1.32 7.21 7.21 0 012 3.11c.26.69.38 1 .49 1.4s.21.66.45 1.29.38 1.07.49 1.43.2.65.44 1.28l1 2.66a5.83 5.83 0 00.56 1.13 8.07 8.07 0 01.71 1.45 7.6 7.6 0 01.44 1.56 5.61 5.61 0 00.33 1.21 4.4 4.4 0 00.65 1.1 6.19 6.19 0 01.78 1.47 7.19 7.19 0 01.19 3.69 7 7 0 01-1.35 3.41 7.31 7.31 0 01-3 2.25zM101.48 31l.12.29-.94.36-.62.23a3.88 3.88 0 00-1.73.92 5.28 5.28 0 00-1 2.48 5.06 5.06 0 00.44 2.58c.25.65.39 1 .53 1.28s.3.68.57 1.37l1 2.66c.24.64.38 1 .53 1.27s.3.68.57 1.37a8 8 0 01.44 1.56 5.41 5.41 0 00.33 1.2l.52 1.35c.12.33.24.66.5 1.32a11.68 11.68 0 01.47 1.48 8.3 8.3 0 00.4 1.25 5.35 5.35 0 001.65 2.14 4.56 4.56 0 002.17.66l.65.1a4.44 4.44 0 002.29 0l.71-.27a5.66 5.66 0 001.45-1.29 5.19 5.19 0 00.93-2.47 5.25 5.25 0 00-.08-2.65 4.25 4.25 0 00-.56-1.07 6.31 6.31 0 01-.78-1.48 7.82 7.82 0 01-.44-1.57 5.29 5.29 0 00-.34-1.2 5.93 5.93 0 00-.55-1.13 8.07 8.07 0 01-.71-1.45l-1-2.66c-.27-.7-.38-1.07-.49-1.43a13.49 13.49 0 00-.43-1.28c-.27-.69-.38-1-.5-1.4s-.2-.65-.45-1.29a5.38 5.38 0 00-1.44-2.27 5.55 5.55 0 00-2.53-.91 6.85 6.85 0 00-1.68-.05z"/><path class="cls-2" d="M100.2 47.13l-.72-1.87a14.77 14.77 0 011.51-.51c.34-.1.68-.2 1.34-.45l1.39-.55 1.41-.55 1.42-.54 1.39-.53a9.24 9.24 0 001.25-.58 11.51 11.51 0 011.49-.68l.72 1.86a9.24 9.24 0 00-1.25.58 12.72 12.72 0 01-1.49.69l-1.41.53-1.4.54-1.39.54-1.41.56c-.74.28-1.13.39-1.51.5a13.62 13.62 0 00-1.34.46z"/><path class="cls-1" d="M87.98 177.65l2.59-4.58 2.43-4.12 3.08-3.73 2.72-3.94 1.94-4.43 3.46-3.49 1.82-4.51 3.23-3.63 1.65-4.62 2.51-4.07 3.07-3.73 2.33-4.2 2.57-4.22 2.02 4.54 2.92 3.82 2.6 4.02 2.55 4.05 2.64 4 2.47 4.1 2.06 4.36 2.7 3.96 2.52 4.07 2.76 3.93 2.5 4.08 2.33 4.21 3.2 4.06-5.05-.75-4.7.64-4.7-.16-4.7.37-4.7-.01-4.7-.38-4.7.33-4.71-.48-4.7-.3-4.7.14-4.7.39-4.71.44-4.72-.92-5.18.76z"/><path class="cls-2" d="M86.1 178.94l3.6-6.36 2.53-4.27 3.08-3.72 2.61-3.8 2-4.51 3.45-3.48 1.81-4.48 3.21-3.62 1.68-4.62 2.59-4.19 3-3.66 2.29-4.12 3.58-5.88 2.75 6.18 2.84 3.72 2.65 4.09 2.56 4.06 2.62 4 2.55 4.22 2 4.29 2.66 3.9 2.54 4.11 2.72 3.88 2.54 4.13 2.32 4.17 4.7 6-7.4-1.1-4.64.63-4.73-.16-4.64.36h-4.77l-4.71-.38-4.71.33-4.79-.48-4.66-.3-4.61.14-9.49.84-4.7-.91zm7.08-3.06l4.75.92 9.28-.82 4.75-.14 4.8.31 4.65.46 4.69-.33 4.78.4h4.62l4.68-.36 4.67.16 4.75-.65 2.71.4-1.73-2.23-2.33-4.2-2.49-4.05-2.76-3.87-2.55-4.12-2.76-4.06-2-4.32-2.45-4.06-2.62-4-2.56-4.07-2.59-4-3-4-1.25-2.8-1.57 2.59-2.42 4.31-3 3.68-2.43 3.97-1.67 4.7-3.24 3.65-1.84 4.53-3.47 3.5-2 4.43-2.72 3.94-3.08 3.73-2.39 4.06-1.58 2.79z"/><path d="M120.39 158.05l-.16-4.25.15-4.33.03-4.23-.19-4.21 2-.08.19 4.26-.03 4.3-.15 4.29.16 4.18-2 .07z"/><path transform="rotate(-.1 125.9 171.997)" d="M120.41 165.38h2v4.86h-2z"/></g></svg>