<svg xmlns="http://www.w3.org/2000/svg" viewBox="0 0 240 240"><defs><style>.cls-1{fill:#fff}.cls-2{fill:#ff4f42}</style></defs><g id="Illo"><path class="cls-1" d="M164.3 97.12l3.33-6.05 3.83-5.87 3.3-6.01 3.62-5.96 3.13-6.25 3.83-5.78 2.93-5.04-1.14-.67-3.18 5.02-3.59 5.91-3.14 6.12-3.54 6.02-3.38 6.02-3.68 5.93-3.48 5.96-3.34 6.05-3.92 5.76-2.68 5.19.84.5 2.91-5.07 3.87-5.85 3.48-5.93zM74.08 81.28l3.82-6.35 3.94-6.3L85.27 62l4.17-6.15 3.84-6.3.81-1.46-1.06.9-5.31 4.67-5.02 5.06-5.47 4.51-10.46 9.48-5.43 4.6-5.17 4.78-4.57 4.49 1.1 6.55 1.01 7.26 1.14 7.19 1.04 4.76 2.9-4.65 3.98-6.74 4.13-6.7 3.26-6.57 3.92-6.4zm12.88-18.2l-3.38 6.54-3.97 6.36-3.82 6.34-3.88 6.32-2.81 5.67 4.4 2.27 5.3-12.78 3.27-6.72 5.88-13.54 1.79-4.57-2.78 4.11zM54.79 80.64l5.23-4.83 5.43-4.6 10.47-9.5 5.47-4.5 4.96-5.01 3.4-2.99-4.13 2.04-5.97 4.1-6.33 3.38-12.46 7.07-6.49 3.11-6.09 3.94L41.83 76l-6.12 3.62-6.31 3.5-3.19 1.86 3.42.23h6.84l6.89.22 7.06-.49 4.37-4.3z"/><path class="cls-1" d="M228.17 222.89l.06-7.34 1.66-7 .2-6.92-.77-7.09.08-7.16.2-7.12.11-7.08-.32-7.1.59-7-1.36-7.12.93-7.25.35-7-.46-7-.27-7.12-.69-7-.07-7.18.48-7.18.75-7.05-.9-14.1.24-7.3 1-7-.65-7-1.16-7.17 1-7.13-.56-7.13 1.46-7-2-7.09 1.5-7.23-.09-6.29-6.57.86-7.13-1.26-7 .61-7.16-.25-7 .17-7.11.58-7.2-.45-7.1.7-7.11-.47-7.13.42L144.86 10l-7.06 1.61-7.23-.27-7.23-.17-7-1.19-7 .79-7.1.07-7.12-.1-7-.65L81 11.87l-7.29-1.12-6.92-.46-7.08.8-7.16-.25-7.14-.94-7 .18-7.12.77L24.2 10l-7 .92-6 .28.16 6-.84 7.12v7l.83 7.17-1 7.1.73 7 .92 7.1-.58 7.2-.82 7 .7 7.11-.62 7.07 1.12 7.09-.4 7.2-.78 7.15-.11 7 1.14 14.19-.87 7.08.9 7.08-.68 7.21v7l-.55 7.07.85 7.1-.65 7.1.75 7.1-.8 7.2-.47 7 .61 7-.18 14.29.25 6.39 6.37.62 7-.48 7.09-1.46 7.18.8 7.14-.25 7 1.34 7.09-1.73 7.15 1.24 7.08-1 7.08 1 7.1-1.34 7.17 1 7.09-.24 7 .87 7-1.14 7.35-.52 7.13 1.86 6.87-.08 7.1-1.39 7.34.09 7 1.08 7-.43 7.18-.73 7.15 1.11h6.91l7.13-1.41 7.22.48 7.17.21 7 1h6.92l5.55-1.21zM31.43 122l-2 .22C27.57 105.31 42.58 94 43.22 93.54l1.19 1.61c-.15.11-14.72 11.1-12.98 26.85zm67-77.58l-.05.09-2.73 6.27-3.18 6.72-2.68 6.8-5.9 13.62-3.27 6.7-2.79 6.8-3.32 7.93-6.38-3.29-3.65 5.94-4 6.74-5.48 8.82-2.12-9.56-1.15-7.27-1-7.24L49.64 87l-6.25.43-7-.22h-6.82l-10-.66 8.84-5.17 6.31-3.49 6.16-3.65 6.47-3.16 6.1-4L59.93 64l12.43-7 6.3-3.37 6-4.12 6.44-3.18 9.24-5.33-1.91 3.44zm13.63 28.13h6.12v-6.21h2v6.19h6.17v2h-6.19v6.11h-2v-6.1h-6.12zm14.29 88.9v2l-14.3.1v-2zm0 6.93l-7.15-.1-7.12.08v-2l7.15-.08 7.18.1zm74.94-120.7h3.56v2h-3.57zm-2.15 7.18l2.52 2.52-1.42 1.41-2.52-2.52zm-8.55-19.44h2v3.56h-2zm-7.69 3.19l2.51 2.52-1.41 1.39-2.53-2.52zm-1 9.07v2h-3.6v-2zm-31.3 66.58l3.63-7 3.91-5.74 3.3-6 3.51-6 3.67-5.91 3.36-6 3.53-6 3.15-6.12 3.63-6 3.16-5 .59-1 .62-4.17.78-4 7.42-1.92 2.1 7.75-6.38 5.2-3.46 6-3.91 5.65-3.09 6.15-3.63 6-3.31 6-3.84 5.87-3.3 6-3.53 6-3.86 5.98-3.89 6.77zm57.12 76.22l-3.94 7.27-5.58 5.68-7.27 3.66-5.74.79-1.51.39-.77.36-.71-.35-1.22-.31-6.12-.69-7.38-3.88-5.71-5.81-3.64-7.12-1.23-8 .77-7.12 2.52-6.27 2.48-6.5 7.3-11.4 3.6-5.73 4.11-5.48 5.28-6.2 5 6.38 4.41 5.08 4 5.69 3.32 5.92 3.57 5.88 2.73 6.32 2 6.6 1.05 6.8z"/><path d="M231.86 208.92l.23-7.37-.77-7.11.08-7 .2-7.11.1-7.16-.31-7L232 159l-1.36-7.08.9-7 .36-7.15-.47-7.13-.27-7.16-.68-7-.07-7 .47-7 .77-7.18-.91-14.3.23-7 1-7.16-.68-7.28-1.12-6.94.95-7.06-.56-7.05 1.51-7.19-2-7.09 1.44-7-.12-8.75-8.49 1.11-7.09-1.26-7.17.62-7.1-.23-7.15.17-7 .57-7.12-.46-7.09.7-7.08-.46-7.1.37-7-.84-7.26-.77-7.13 1.6-7-.26-7-.15L116.44 8l-7.19.81-7 .07-7-.1L88 8.07l-7.11 1.76-7-1.07-7.19-.48-7.11.81-6.92-.24-7.15-.95-7.25.18-7 .76L24.19 8l-7.14 1-7.84.36.21 7.78-.84 7.1v7.16l.81 7.08-1 7.09.75 7.24.84 7-.56 7-.86 7.09.73 7.1-.62 7.12 1.12 7.12-.39 6.94-.78 7.19-.1 7.19 1.12 14.09-.88 7.12.91 7.11L9 152v7l-.56 7.19.85 7.09-.65 7.08.75 7.09-.78 7-.48 7.17.61 7.07-.17 14.23.31 8.19 8.27.81 7.19-.5 7.02-1.42 7 .79 7.07-.25 7.2 1.37 7.1-1.73 7.05 1.23 7.12-1 7.12 1 7.1-1.41 7 1 7.11-.23 7.16.88 7.15-1.17 6.93-.49 7.07 1.85 7.23-.09 7.18-1.39 6.92.07 7.13 1.11 7.24-.45 7-.7 7 1.08h7.25l7.16-1.4 7 .47 7 .2 7.11 1h7.17l7.49-1.61-.23-7.31v-7zm-16 20.86l-7-1-7.17-.21-7.22-.48-7.13 1.41h-6.91l-7.15-1.11-7.18.73-7 .43-7-1.08-7.34-.09-7.1 1.39-6.87.08-7.11-1.85-7.35.52-7 1.14-7-.87-7.09.24-7.17-1-7.07 1.32-7.08-1-7.08 1-7.15-1.24-7.09 1.73-7-1.34-7.14.25-7.18-.8-7.19 1.45-7 .48-6.37-.62-.25-6.39.18-14.29-.61-7 .47-7 .8-7.2-.75-7.1.65-7.1-.85-7.1.55-7.07v-7l.72-7.21-.9-7.08.87-7.08-1.14-14.19.11-7 .78-7.15.4-7.2-1.12-7.09.67-7.01-.73-7.08.82-7 .58-7.2-.86-7.18-.73-7 1-7.1-.83-7.17v-7l.84-7.12-.16-6 6-.28 7-.92 7.08.86 7.12-.77 7-.18 7.12.94 7.16.25 7.08-.8 6.92.46L81 11.87l7.13-1.78 7 .65 7.12.1 7.1-.07 7-.79 7 1.19 7.23.17 7.23.27 7.05-1.61L159 11.61l7.13-.42 7.11.47 7.1-.7 7.09.46 7.11-.58 7-.17 7.16.25 7-.61 7.13 1.26 6.57-.86.09 6.29-1.49 7.23 2 7.09-1.46 7 .56 7.13-1 7.13 1.16 7.17.65 7-1 7-.24 7.3.9 14.1-.75 7.05-.48 7.18.07 7.18.69 7 .27 7.12.46 7-.35 7-.93 7.25 1.36 7.12-.59 7 .32 7.1-.11 7.08-.2 7.12-.08 7.16.77 7.09-.2 6.92-1.66 7-.06 7.34.18 5.68-5.55 1.21z"/><path d="M91.11 46.31l-6.44 3.18-6 4.12L72.36 57l-12.43 7-6.48 3.11-6.1 4-6.47 3.16-6.16 3.65-6.31 3.49-8.84 5.17 10 .66h6.87l7 .22 6.2-.46 1.08 6.44 1 7.24 1.16 7.32 2.12 9.56 5.51-8.83 4-6.74 3.65-5.93 6.38 3.29 3.32-7.93 2.79-6.8 3.27-6.7 5.9-13.62 2.68-6.83 3.18-6.72 2.73-6.27.05-.09 1.88-3.39zM43.36 85.43l-6.89-.22h-6.84L26.21 85l3.19-1.86 6.31-3.5L41.82 76l6.46-3.15 6.09-3.94 6.49-3.12 12.46-7.06 6.33-3.38 6-4.1 4.13-2-3.4 3-5 5-5.46 4.5-10.47 9.5L60 75.81l-5.23 4.83-4.37 4.3zM62.77 101l-4 6.75-2.9 4.64-1-4.76-1.14-7.19-1-7.26-1.1-6.55 4.57-4.49 5.17-4.78 5.43-4.6 10.46-9.48 5.47-4.51 5-5.07L93 49l1.06-.9-.81 1.46-3.84 6.3L85.27 62l-3.43 6.63-3.94 6.3-3.82 6.35-3.92 6.4-3.26 6.57zm19.3-23.87l-3.28 6.67-5.29 12.78-4.4-2.27 2.81-5.67 3.88-6.32L79.61 76l4-6.36L87 63.08 89.74 59 88 63.54z"/><path class="cls-1" d="M205.76 189.8l1.21-7.42-.99-6.43-1.94-6.33-2.64-6.1-3.49-5.73-3.31-5.9-3.88-5.48-4.38-5.05-3.49-4.48-3.65 4.28-4.02 5.37-3.56 5.66-7.25 11.32-2.36 6.24-2.48 6.16-.65 6.44 1.14 7.46 3.42 6.7 5.31 5.33 1.01.53-.11-.08-3.34-6.69-1-7.21.85-6.9 2.22-6.43 2.99-5.95 3.08-5.94 3.61-5.72 4.84-6.27 4.68 6.28 3.61 5.7 3.18 5.94 3.28 6 2.21 6.55.74 6.75-1.07 7.26-3.67 6.43-.85.66 1.95-.99 5.25-5.34 3.55-6.62z"/><path d="M205.94 169l-2.73-6.32-3.57-5.88-3.32-5.92-4-5.69-4.41-5.08-5-6.38-5.28 6.2-4.11 5.48-3.6 5.73-7.3 11.4-2.48 6.5-2.52 6.27-.77 7.12 1.23 8 3.64 7.12 5.71 5.81 7.38 3.88 6.12.69 1.22.31.71.35.77-.36 1.51-.39 5.74-.79 7.27-3.66 5.58-5.68 3.94-7.27 1.32-8.07-1.05-6.8zm-29.21 34.35l-2.39-6.76 1.68-6.93 3.55-6.47 3.34-5.12 3.48 5 3.37 6.6 1.73 7-2.33 6.85-6.26 2.95zm16.84-6.66l-1.9-7.64-3.53-7-5.28-7.57-5 7.66-3.65 6.65-1.95 7.88 2.37 6.7-3.4-2.42-3-5.95-.91-6.63.76-6.33 2.11-6.14 3-5.88 3-5.85 3.51-5.57 3.18-4.11 3.06 4.1 3.53 5.57 3.15 5.89 3.18 5.78 2.09 6.15.7 6.38-1 6.64-3.29 5.75-2.89 2.25zm1.44 6.08l.85-.66 3.67-6.43 1.07-7.26-.74-6.75-2.21-6.55-3.29-6-3.17-5.94-3.61-5.7-4.68-6.28-4.85 6.27-3.6 5.72-3.08 5.94-3 5.95-2.22 6.43-.85 6.9 1 7.21 3.35 6.69.11.08-1-.53-5.31-5.33-3.42-6.7-1.14-7.45.65-6.45 2.49-6.16 2.35-6.24 7.25-11.32 3.56-5.66 4-5.37 3.65-4.28 3.49 4.48 4.38 5 3.88 5.49 3.31 5.9 3.49 5.73 2.64 6.1L206 176l1 6.43-1.21 7.42-3.55 6.62-5.24 5.29z"/><path class="cls-1" d="M197.61 195l.97-6.64-.7-6.38-2.09-6.15-3.18-5.78-3.15-5.89-3.53-5.57-3.06-4.1-3.18 4.11-3.51 5.57-3.03 5.85-2.96 5.88-2.1 6.14-.76 6.33.91 6.63 2.98 5.95 3.41 2.42-2.38-6.69 1.95-7.89 3.65-6.65 5.01-7.66 5.28 7.57 3.53 6.98 1.9 7.64-2.16 6.33 2.91-2.25 3.29-5.75z"/><path class="cls-2" d="M189.16 203.43l2.33-6.85-1.73-6.95-3.37-6.61-3.48-4.97-3.34 5.12-3.55 6.47-1.68 6.93 2.39 6.76 6.17 3.05 6.26-2.95z"/><path d="M162.51 104.11l3.53-6 3.3-6 3.84-5.87 3.31-6 3.63-6 3.09-6.24 3.79-5.74 3.46-6 6.38-5.2-2.1-7.75-7.42 1.92-.78 4-.54 4.18-.59 1-3.16 5-3.63 6-3.15 6.12-3.53 6-3.36 6-3.67 5.91-3.51 6-3.3 6-3.91 5.74-3.63 7 4.2 2.49 3.89-6.77zm26.57-57.22l4.29-1.11 1.24 4.59-5.13 4.19-1.48-.91.6-4.07zM154 114l-.84-.5 2.67-5.19 3.93-5.76 3.34-6 3.48-6 3.68-5.93 3.37-6 3.55-6 3.14-6.12 3.68-5.99 3.18-5 1.14.67-2.92 5-3.89 5.82-3.13 6.25-3.62 6-3.3 6-3.83 5.87-3.33 6.05-3.48 5.93-3.82 5.8z"/><path class="cls-2" d="M187.95 53.65l1.53.91 5.13-4.19-1.24-4.59-4.29 1.11-.53 2.69-.6 4.07z"/><path class="cls-2" transform="rotate(-89.72 191.57 37.174)" d="M189.79 36.18h3.56v2h-3.56z"/><path class="cls-2" transform="rotate(-89.4 203.204 48.562)" d="M202.05 46.88h2v3.56h-2z"/><path class="cls-2" transform="rotate(-.17 178.558 47.45)" d="M178.3 47.66h3.56v2h-3.56z"/><path class="cls-2" transform="rotate(-44.99 199.7 56.785)" d="M198.68 55.01h2v3.56h-2z"/><path class="cls-2" transform="rotate(-44.97 183.42 40.545)" d="M182.44 38.77h2v3.56h-2z"/><path d="M118.14 80.66l2 .01.03-6.11 6.19-.02-.01-2-6.17.02.03-6.19-2-.01-.03 6.2-6.12-.04-.01 2 6.12.04-.03 6.1z"/><path transform="rotate(-.36 120.442 164.31)" d="M112.05 161.47h14.3v2h-14.3z"/><path d="M112.04 166.33l.02 2 7.13-.08 7.15.1.03-2-7.18-.1-7.15.08z"/><path class="cls-2" d="M29.45 122.19l2-.22c-1.74-15.72 12.83-26.71 13-26.82l-1.19-1.61c-.68.46-15.69 11.77-13.81 28.65z"/></g></svg>