<svg xmlns="http://www.w3.org/2000/svg" viewBox="0 0 240 240"><defs><style>.cls-1{fill:#fff}</style></defs><g id="Illo"><path class="cls-1" d="M150.59 119.99l6.3-3.22 6.48-2.84 6.38-2.88 12.29-6.89 6.55-2.41 6.06-3.36 6.32-3.14 6.42-2.8 6.11-3.62 6.48-2.72 6.09-3.3.62-.35-.64.11-6.71 2.82-6.98 1.37-7.05 1.18-13.66 3.52-6.93 1.46-6.78 2.39-6.91 1.61-7.05.93-6.71 2.8-7 1.27-6.89 1.55-6.71 2.1-6.83 2.02-6.98 1.62-7.04 1.3-6.86 1.64-7.04 1.18-4.03 1.19 4.48 1.45 7.26 2.12 7.17 2.32 7.68 1.08 13.88 4.66 6.25-2.6 5.98-3.56z"/><path class="cls-1" d="M228.71 187.34l.77-7-.85-7.08.87-14.28-.1-7-.6-7.13.82-7-1.57-7.12 1.17-7.29.78-6.93-.86-7-.77-7.17v-7.15L229 88v-1.2l-4.52 5-4.39 5.36-4.26 5.49-4.16 5.58-4.67 5.22-4.1 5.75-4.76 5.12-4.38 5.35-8.52 11-4.53 5.37-4.6 5.28-4.84 6.51-5.53-4.6-3.58-3.23L152 160.16l-6.13 4.84-5.87 5-6.91 7.52.35-9.49 1.18-6.72v-6.92l.79-6.83.33-6.8.92-6.9.71-5.92-13.48-4.53-7.67-1.08L109 120l-7.26-2.13-10.66-3.44 10.41-3.07 7-1.18 6.85-1.63 7-1.31 6.88-1.6 6.76-2 6.77-2.12 7-1.57 6.92-1.27 6.79-2.82 7.08-.92 6.77-1.58 6.8-2.4 6.95-1.47L204.9 86l7.1-1.21 6.84-1.34 6.75-2.83 3.21-.56-.69-6.28 1.63-7.12-.39-7 .43-7.15-.09-7-1.17-7.12.81-14.18-1.29-7.08.17-5.36-5.27.27h-7.27l-14.19-1.51-6.92-.6-7.07 1.85-7.41-.26-7-1.41-7 .26-7.09.38-7.11.28-7.02-.03-7.15.89-14.21-1.65-14.21 1.38-7.09-1-7.08.74-7.12-.93-7.07.32-7-.55-7.14 1-7.07-1.06-7 1.34-7.25.5-7.14-1.69-6.88-.2-7.13 1.31-7.14-.7-5.67.49.66 5.84-.14 7.4-1.76 6.89 1.3 7.07-1.42 7.14.77 6.94.59 7.19-.33 7.08.82 7.16-.85 7.1.24 7 .34 7.08.24 7.27-2 7 1.15 6.88.8 7.29-1.34 7.15.05 7 .51 7 .91 7.11-.05 7.56-2 6.93.34 6.94 1.16 14.15.17 7.26-1.38 7 1.61 7.11v7.31L10.3 223l.54 6.07 6.24-.19 7.2.48 7 .09 7.22-1.33 7.13 1.9 7-.88 7.17.17 14.14.3 7.16-.67 7.02 1.06 7-.86 7.27-1 7.07 1.81 7-1.37 7.19.06 7-.48 14.47.31 6.84 1.51 7.13-2.07h7.09l7.3.2 6.92 1.35 7.1-1 7.11 1.4 7-.79 7.15.09 7.15.5 7 .16 6.12-.65-.63-6.29.88-7.22.29-7 .43-7-1.12-7.14zM107 142.66l-6.19 3.34-6 3.63-5.65 4.08-5.55 4.18-4.95 4.92-5.3 4.71-4.76 5-4.6 5.32-4.21 5.54-11.74 17.34-3.27 6.16-3.74 6-3 6.32-1.81-.85 3-6.48 3.73-6 3.32-6.24L58.1 182.2l4.29-5.64 4.67-5.34 4.94-5.14 5.32-4.72 5.06-5L88 152.1l5.72-4.1 6.09-3.7 6.33-3.44 6.53-2.68.76 1.84z"/><path class="cls-1" d="M136.61 161.58l-1.18 6.73-.14 3.86 3.38-3.66 5.93-5.03 6.07-4.85 10.91-10.92 4.51-5.53 5.16-4.71 5.03-5.02 5.63-4.02 4.46-5.6 5.56-4.15 4.57-5.18 5.11-5.12 5.72-3.92 4.43-5.51 5.22-4.65 5.3-4.48 3.83-4.76-5.27 2.85-6.5 2.73-6.09 3.61-6.43 2.81-6.24 3.1-6.23 3.44-6.54 2.41-12.16 6.82-6.47 2.93-6.43 2.82-6.19 3.16-6.11 3.62-6.01 2.51-.75 6.25-.91 6.82-.32 6.79-.8 6.83-.05 7.02zm34.3-6.62l3.63-4.87 4.63-5.33 4.49-5.33 8.51-11.01 4.44-5.42 4.76-5.11 4.08-5.73 4.64-5.21 4.12-5.53 4.29-5.52.71-.87-.92.78-5.14 4.57-4.57 5.64-5.76 3.96-4.86 4.89-4.75 5.35-5.53 4.14-4.49 5.62-5.68 4.05-4.87 4.89-5.14 4.69-3.98 4.88 3.52 3.26 3.87 3.21z"/><path d="M232 116.41l-.88-7.2-.76-7v-7L231 88v-3.77l1.67-2.23 4.13-3.35-4.57.79-.09-.15-.42.24-.94.16-.64-5.82 1.63-7.07-.41-7.18.43-7.1-.09-7.1-1.16-7.13.81-14.19-1.29-7.1.22-7.32-7.38.39h-7.06l-14.17-1.5-7.27-.64-7.12 1.87-6.87-.23-7.13-1.44-7.28.25-7 .38-7.09.24h-7.16l-7.05.89-14.18-1.66-14.18 1.38-7.1-1-7.1.74-7.07-.88-7.07.27-7.14-.55-7.06 1-7.17-1.05-7.2 1.37-6.88.49-6.95-1.65-7.39-.24-7.06 1.3-7-.69-7.95.68.88 7.76-.08 6.92-1.84 7.2 1.3 7.13L8 45.47l.8 7.22.58 7-.34 7.12.96 7.1-.84 7 .24 7.19.34 7.08.24 6.94-2 7.17 1.21 7.26.76 7-1.32 7 .06 7.26.49 7.19.9 7-.08 6.92L8 166l.36 7.3 1.14 14.16.16 7-1.41 7.19 1.65 7.19v6.87l-1.61 7.14.71 8.25 8-.25 7.16.48 7.2.09 7-1.28 7.08 1.86 7.22-.9 14.12.29 7.16.17 7-.65 7.11 1.13 7.25-.89 6.9-.93 7.13 1.83 7.22-1.42h7.07l7-.48 14.1.29 7.25 1.61 7.2-2.14h6.92l7 .18 7.17 1.4 7.09-1 7.08 1.39 7.19-.81 7 .08 7.14.51 7.16.16 8.22-.87-.81-8.05.86-7.08.3-7.09.44-7.2-1.13-7.14-.12-7 .78-7.15-.86-7.13.9-14.11-.1-7.16-.59-7 .84-7.17-1.56-7.07 1.11-7zm-2.49 92.23l-.29 7-.88 7.22.63 6.29-6.12.65-7-.16-7.15-.5-7.15-.09-7 .79-7.11-1.4-7.1 1-6.92-1.35-7.3-.2h-7.09l-7.13 2.07-6.84-1.51-14.47-.31-7 .48-7.19-.06-7 1.37-7.07-1.81-7.27 1-7 .86-7.06-1.07-7.16.67-14.14-.3-7.17-.17-7 .88-7.13-1.9-7.22 1.33-6.95-.09-7.2-.48-6.24.19-.49-6.04 1.56-7v-7.31l-1.61-7.11 1.38-7-.17-7.26-1.16-14.15-.3-6.9 2-6.93.09-7.43-.91-7.11-.51-7-.05-7 1.38-7.18-.8-7.29-1.2-6.88 2-7-.24-7.27-.34-7.08-.24-7 .82-7.2-.92-7.13.33-7.08-.59-7.19-.77-6.94 1.42-7.14-1.3-7.07 1.76-6.89.14-7.4-.66-5.84 5.67-.49 7.14.7 7.13-1.31 6.88.2L45.38 12l7.25-.5 7-1.34 7.07 1.06 7.14-1 7 .55 7.16-.34 7.13.88 7.08-.74 7.09 1 14.21-1.38 14.21 1.61 7.15-.89 7.08.08 7.11-.28 7.09-.38 7-.26 7 1.41 7.41.26 7.07-1.85 6.92.6L215.74 12h7.27l5.27-.27-.17 5.36 1.29 7.08-.81 14.18 1.17 7.12.09 7-.43 7.15.39 7-1.63 7.12.69 6.28-3.21.56-6.75 2.83-6.91 1.38-7.1 1.21-13.71 3.53-6.95 1.47-6.8 2.4-6.77 1.6-7.08.92-6.79 2.78-6.92 1.3-7 1.57-6.77 2.12-6.76 2-6.88 1.6-7 1.31-6.85 1.63-7 1.18-10.41 3.07 10.66 3.44L109 120l7.23 2.32 7.67 1.08 13.48 4.53-.71 5.92-.92 6.9-.33 6.8-.79 6.83v6.92l-1.18 6.7-.35 9.49L140 170l5.86-5 6.09-4.87 10.2-10.2 3.56 3.29 5.53 4.6 4.84-6.51 4.6-5.28 4.53-5.37 8.52-11 4.38-5.35 4.76-5.12 4.1-5.75 4.66-5.24 4.16-5.58 4.26-5.49 4.39-5.36 4.52-5V88l-.56 7.17v7.15l.77 7.17.86 7-.78 6.93-1.17 7.29 1.57 7.12-.82 7 .6 7.13.1 7-.87 14.28.85 7.08-.77 7 .12 7.16 1.12 7.14zm-91.16-82.49l-13.88-4.66-7.68-1.09-7.17-2.31-7.25-2.09-4.48-1.45 4-1.19 7-1.18 6.86-1.64 7-1.3 7-1.62 6.83-2 6.71-2.1 6.89-1.54 7-1.28 6.71-2.8 7.05-.93 7.06-1.66 6.77-2.39 6.93-1.46 13.66-3.52 7.05-1.18 7-1.37 6.71-2.82.64-.11-.62.35-6.14 3.3-6.48 2.72-6.11 3.62-6.41 2.8-6.32 3.14-6.07 3.36-6.61 2.41-12.29 6.89-6.38 2.88-6.48 2.84-6.3 3.22-6 3.56zm-.58 14.79l.91-6.83.75-6.24 6-2.51 6.11-3.62 6.19-3.16 6.43-2.82 6.47-2.92 12.18-6.84 6.54-2.41 6.23-3.44 6.24-3.1 6.43-2.81 6.09-3.61 6.5-2.73 5.27-2.85-3.83 4.76L217 94.3l-5.24 4.7-4.43 5.51-5.72 3.92-5.11 5.12-4.57 5.18-5.56 4.15-4.46 5.6-5.63 4-5 5-5.16 4.71-4.51 5.53-10.91 10.92-6.07 4.85-5.93 5-3.38 3.66.14-3.86 1.18-6.73v-7l.8-6.83zm29.72 2.67l5.14-4.69 4.87-4.89 5.68-4.05 4.49-5.62 5.53-4.14 4.75-5.35 4.86-4.89 5.76-4 4.57-5.64 5.14-4.57.92-.78-.71.87-4.29 5.52-4.11 5.62-4.64 5.21-4.08 5.73-4.76 5.06-4.44 5.41-8.51 11-4.49 5.33-4.63 5.33-3.63 4.93-3.91-3.25-3.52-3.26z"/><path fill="#ff4f42" d="M106.14 140.83l-6.33 3.44-6.09 3.7-5.73 4.13-5.62 4.23-5.06 5.03-5.32 4.72-4.85 5.15-4.67 5.34-4.29 5.64-11.82 17.43-3.32 6.24-3.73 5.98-3.04 6.48 1.81.85 2.96-6.32 3.73-5.99 3.28-6.16 11.75-17.34 4.21-5.54 4.61-5.27 4.76-5.05 5.3-4.71 4.95-4.92 5.55-4.18 5.65-4.08 5.98-3.63 6.14-3.34 6.48-2.66-.76-1.85-6.53 2.68z"/></g></svg>