<svg width="14" height="14" xmlns="http://www.w3.org/2000/svg" xmlns:xlink="http://www.w3.org/1999/xlink"><defs><path d="M16.294 5A2.708 2.708 0 0119 7.705v8.59A2.708 2.708 0 0116.294 19H7.705A2.708 2.708 0 015 16.294V7.705A2.708 2.708 0 017.705 5h8.589zm-7.841 5.563h-2.09v5.731c0 .74.602 1.34 1.342 1.34h8.588c.74 0 1.342-.6 1.342-1.34v-5.731h-2.091c.182.443.285.929.285 1.436a3.833 3.833 0 01-3.83 3.83 3.833 3.833 0 01-3.828-3.83c0-.507.102-.993.282-1.436zm3.548-1.028c-.823 0-1.55.407-1.999 1.028-.291.404-.465.9-.466 1.436A2.465 2.465 0 0012 14.463 2.468 2.468 0 0014.464 12c0-.536-.175-1.031-.466-1.436a2.46 2.46 0 00-1.997-1.028zm5.379-2.923l-.309.001-2.064.007.008 2.373 2.365-.008V6.612z" id="a"/></defs><g transform="translate(-5 -5)" fill="none" fill-rule="evenodd"><mask id="b" fill="#fff"><use xlink:href="#a"/></mask><use fill="#000" fill-rule="nonzero" xlink:href="#a"/><g mask="url(#b)" fill="#FFF"><path d="M0 0h24v24H0z"/></g></g></svg>