<svg width="50" height="50" xmlns="http://www.w3.org/2000/svg" xmlns:xlink="http://www.w3.org/1999/xlink"><defs><path d="M26.682 17.539c3.358 0 5.875 2.194 5.875 6.908v8.803h-5.103v-8.213c0-2.062-.737-3.47-2.585-3.47-1.41 0-2.248.947-2.618 1.866-.135.328-.17.783-.17 1.243v8.574h-5.103v-.043c.004-.842.066-13.914 0-15.308h5.104v2.176c.678-1.044 1.888-2.536 4.6-2.536zm-12.526.36V33.25H9.053V17.9h5.103zM11.638 10.5c1.746 0 2.82 1.146 2.853 2.652 0 1.474-1.107 2.653-2.887 2.653h-.033c-1.712 0-2.821-1.18-2.821-2.653 0-1.506 1.142-2.652 2.888-2.652z" id="a"/></defs><g fill="none" fill-rule="evenodd"><rect fill="#000" width="50" height="50" rx="5"/><g transform="translate(4 4)"><mask id="b" fill="#fff"><use xlink:href="#a"/></mask><use fill="#C2D1D9" fill-rule="nonzero" xlink:href="#a"/><g mask="url(#b)" fill="#FFF"><path d="M0 0h42v42H0z"/></g></g></g></svg>