<svg width="161" height="18" xmlns="http://www.w3.org/2000/svg" xmlns:xlink="http://www.w3.org/1999/xlink"><defs><path id="a" d="M.486.76h12.21V18H.486z"/><path id="c" d="M.295.759h13.422v16.783H.295z"/></defs><g fill="none" fill-rule="evenodd"><path fill="#000" d="M0 1v17h3.13v-7.125H12V7.99H3.13V3.886H12V1zm16 17h3V1h-3zm15.61-8.047c.44-.15.833-.344 1.168-.576 1.219-.8 1.948-2.211 1.948-3.78 0-1.578-.72-2.99-1.917-3.774-.99-.672-2.292-.97-4.218-.97l-5.415.023v16.76H26.2v-7.311l1.956.015 4.713 7.296h3.728L31.61 9.953zm.07-4.356c0 .612-.243 1.105-.715 1.471-.423.323-1.016.471-1.863.471H26.2V3.654h2.902c.847 0 1.44.15 1.86.47.475.367.718.862.718 1.473z"/><g transform="translate(37.9)"><mask id="b" fill="#fff"><use xlink:href="#a"/></mask><path d="M7.967 7.95L6.58 7.5c-1.95-.63-2.159-1.51-2.148-2.11.037-1.059 1.052-1.773 2.471-1.737 1.234.04 2.244.73 2.701 1.847l.198.484 2.894-1.095-.19-.487C11.694 2.3 9.471.839 6.982.764 3.837.662 1.354 2.606 1.224 5.285c-.05 1.305.443 2.489 1.429 3.422.644.625 1.597 1.134 3.098 1.653l1.367.448c2.157.7 2.428 1.524 2.401 2.324-.007.492-.2.928-.559 1.263-.495.465-1.258.708-2.165.687-1.418-.04-2.629-.855-3.089-2.08l-.187-.499-3.033 1.118.198.492c.89 2.224 3.286 3.786 5.96 3.88.088.005.177.008.265.008 1.597 0 3.11-.545 4.184-1.514.98-.882 1.542-2.065 1.586-3.324a4.477 4.477 0 00-.854-2.88C11.028 9.15 9.71 8.53 7.967 7.95" fill="#000" mask="url(#b)"/></g><path fill="#000" d="M53.412.875v2.846h5.108v13.914h3.207V3.72h5.083V.875zM85.753.781H79.25v16.827h6.502c5.407 0 8.766-3.186 8.766-8.313 0-5.25-3.36-8.514-8.766-8.514m.023 13.937H82.55V3.674h3.225c3.415 0 5.373 2.049 5.373 5.622 0 3.496-1.907 5.422-5.373 5.422"/><g transform="translate(98.133)"><mask id="d" fill="#fff"><use xlink:href="#c"/></mask><path d="M8.73 9.86a4.71 4.71 0 001.167-.577c1.219-.798 1.948-2.21 1.948-3.78 0-1.576-.72-2.99-1.917-3.774-.99-.672-2.292-.97-4.218-.97L.295.783v16.76H3.32V10.23l1.954.017 4.715 7.294h3.729L8.73 9.86zm.069-4.357c0 .612-.242 1.106-.717 1.472-.421.322-1.016.472-1.86.472H3.318V3.561H6.22c.845 0 1.44.15 1.86.47.476.367.718.862.718 1.472z" fill="#000" mask="url(#d)"/></g><path d="M123.127.781h-3.126l-6.534 16.76h3.214l1.686-4.332h6.393l1.685 4.332h3.215L123.127.781zm.533 9.628h-4.19l2.102-5.392 2.088 5.391zm20.254-6.781V.782h-11.596v16.76h3.024v-7.025h8.572V7.672h-8.572V3.628zm3.365-2.847v2.846h5.107v13.914h3.208V3.627h5.083V.782z" fill="#000"/></g></svg>