<svg width="18" height="12" xmlns="http://www.w3.org/2000/svg" xmlns:xlink="http://www.w3.org/1999/xlink"><defs><path d="M20.007 18A.994.994 0 0021 17c0-.552-.445-1-.993-1H3.993A.994.994 0 003 17c0 .552.445 1 .993 1h16.014zm0-5A.994.994 0 0021 12c0-.552-.445-1-.993-1H3.993A.994.994 0 003 12c0 .552.445 1 .993 1h16.014zM3 7c0 .552.445 1 .993 1h16.014A.994.994 0 0021 7c0-.552-.445-1-.993-1H3.993A.994.994 0 003 7z" id="a"/></defs><g transform="translate(-3 -6)" fill="none" fill-rule="evenodd"><mask id="b" fill="#fff"><use xlink:href="#a"/></mask><use fill="#C2D1D9" xlink:href="#a"/><g mask="url(#b)" fill="#000"><path d="M0 0h24v24H0z"/></g></g></svg>