<svg width="29" height="29" xmlns="http://www.w3.org/2000/svg" xmlns:xlink="http://www.w3.org/1999/xlink"><defs><path d="M24.517 23.333l-.467-.45a10.785 10.785 0 002.617-7.05C26.667 9.85 21.817 5 15.833 5 9.85 5 5 9.85 5 15.833c0 5.984 4.85 10.834 10.833 10.834 2.684 0 5.15-.984 7.05-2.617l.45.467v1.316l7.627 7.611a1 1 0 001.413 0l1.07-1.07a1 1 0 00.001-1.414l-7.61-7.627h-1.317zm-16.184-7.5c0-4.15 3.35-7.5 7.5-7.5s7.5 3.35 7.5 7.5-3.35 7.5-7.5 7.5a7.49 7.49 0 01-7.5-7.5z" id="a"/></defs><g transform="translate(-5 -5)" fill="none" fill-rule="evenodd"><mask id="b" fill="#fff"><use xlink:href="#a"/></mask><use fill="#C2D1D9" xlink:href="#a"/><g mask="url(#b)" fill="#000"><path d="M0 0h40v40H0z"/></g></g></svg>