<svg width="50" height="50" xmlns="http://www.w3.org/2000/svg" xmlns:xlink="http://www.w3.org/1999/xlink"><defs><path d="M9.029 23.33c10.834 0 16.76-8.977 16.76-16.761 0-.255 0-.509-.017-.761a11.985 11.985 0 002.939-3.05 11.758 11.758 0 01-3.383.927 5.911 5.911 0 002.59-3.258 11.805 11.805 0 01-3.741 1.43 5.896 5.896 0 00-10.039 5.372 16.724 16.724 0 01-12.14-6.154 5.895 5.895 0 001.824 7.863 5.847 5.847 0 01-2.674-.737v.075a5.893 5.893 0 004.726 5.774 5.881 5.881 0 01-2.66.101 5.897 5.897 0 005.504 4.09A11.82 11.82 0 010 20.684a16.676 16.676 0 009.029 2.642" id="a"/></defs><g fill="none" fill-rule="evenodd"><rect fill="#000" width="50" height="50" rx="5"/><g transform="translate(11 12.75)"><mask id="b" fill="#fff"><use xlink:href="#a"/></mask><use fill="#1DA1F2" fill-rule="nonzero" xlink:href="#a"/><g mask="url(#b)" fill="#FFF"><path d="M-4.594-6.125h36.75v36.75h-36.75z"/></g></g></g></svg>